<?xml version='1.0' encoding='UTF-8' standalone='no'?>
<!-- Created with Fritzing (https://fritzing.org/) -->
<svg xmlns="http://www.w3.org/2000/svg" baseProfile="tiny"  width="1.62117in" height="1.9348in" viewBox="0 0 116.724 139.306" version="1.2" xmlns:svg="http://www.w3.org/2000/svg" y="0in" x="0in">
 <g transform="matrix(-1, 0, 0, 1, 116.724, 0)">
  <g partID="854372002">
   <g id="silkscreen">
    <rect stroke="black" stroke-width="0.576" width="116.148" height="138.73" y="0.288" fill="none" x="0.288"/>
   </g>
  </g>
  <g partID="854372000">
   <g id="board">
    <rect stroke="black" stroke-width="0.5" fill-opacity="0.5" width="116.148" height="138.73" id="boardoutline" y="0.288" fill="none" x="0.288"/>
   </g>
  </g>
  <g partID="854398961">
   <g transform="translate(18.348,0.59336)">
    <g id="silkscreen" gorn="0.2">
     <path stroke="black" stroke-width="0.576" d="M0.288,50.184L0.288,7.416A6.912,6.912,0,0,1,7.43566,0.288L71.7643,0.288A6.912,6.912,0,0,1,78.912,7.416L78.912,50.184A6.912,6.912,0,0,1,71.7643,57.312L7.43566,57.312A6.912,6.912,0,0,1,0.288,50.184" fill="none"/>
     <g>
      <title>polygon</title>
      <path stroke="black" stroke-width="0.72" stroke-linecap="round" d="M70.92,18.36L72,17.28L72,19.44L70.92,18.36M71.28,18.72L72,18.72L71.28,18.72" fill="none"/>
     </g>
     <g>
      <title>polygon</title>
      <path stroke="black" stroke-width="0.72" stroke-linecap="round" d="M72.936,28.512L75.096,28.512L74.016,29.592L72.936,28.512M73.944,29.52L74.088,29.52L73.944,29.52" fill="none"/>
     </g>
    </g>
   </g>
  </g>
  <g partID="854372002">
   <g id="silkscreen">
    <rect stroke="black" stroke-width="0.576" width="116.148" height="138.73" y="0.288" fill="none" x="0.288"/>
   </g>
  </g>
  <g partID="60761">
   <g transform="translate(80.7272,85.791)">
    <g id="silkscreen">
     <line stroke="black" stroke-width="0.72" x1="20.137" y2="12.0586" y1="6.38928" x2="20.137"/>
     <line stroke="black" stroke-width="0.72" x1="5.96376" y2="0.72" y1="0.72" x2="18.0115"/>
     <line stroke="black" stroke-width="0.72" x1="5.96376" y2="17.7278" y1="17.7278" x2="18.0115"/>
     <line stroke="black" stroke-width="0.72" x1="3.12912" y2="12.0586" y1="6.38928" x2="3.12912"/>
     <line stroke="black" stroke-width="0.72" x1="11.633" y2="10.6416" y1="7.80696" x2="11.633"/>
     <line stroke="black" stroke-width="0.72" x1="13.0507" y2="9.22392" y1="9.22392" x2="10.2161"/>
    </g>
   </g>
  </g>
  <g partID="61891">
   <g transform="translate(9.06,119.559)">
    <g id="silkscreen">
     <line stroke="black" x1="0.288" stroke-width="0.576" y2="0.288" class="other" y1="0.288" stroke-linecap="round" x2="43.488"/>
     <line stroke="black" x1="0.288" stroke-width="0.576" y2="0.288" class="other" y1="37.1384" stroke-linecap="round" x2="0.288"/>
     <line stroke="black" x1="0.288" stroke-width="0.576" y2="37.1384" class="other" y1="37.1384" stroke-linecap="round" x2="43.488"/>
     <line stroke="black" x1="43.488" stroke-width="0.576" y2="37.1384" class="other" y1="0.288" stroke-linecap="round" x2="43.488"/>
    </g>
   </g>
  </g>
  <g id="partLabel" partID="60760">
   <g transform="translate(103.994,80.191)">
    <g stroke="none" fill-opacity="1" font-family="'OCRA'" font-weight="normal" id="silkscreenLabel" font-size="5" font-style="normal" fill="#000000">
     <text y="3.75" x="0">S1</text>
    </g>
   </g>
  </g>
  <g id="partLabel" partID="61890">
   <g transform="translate(52.836,113.959)">
    <g stroke="none" fill-opacity="1" font-family="'OCRA'" font-weight="normal" id="silkscreenLabel" font-size="5" font-style="normal" fill="#000000">
     <text y="3.75" x="0">U1</text>
    </g>
   </g>
  </g>
  <g id="partLabel" partID="854398960">
   <g transform="translate(97.548,-5.00664)">
    <g stroke="none" fill-opacity="1" font-family="'OCRA'" font-weight="normal" id="silkscreenLabel" font-size="5" font-style="normal" fill="#000000">
     <text y="3.75" x="0">Part2</text>
    </g>
   </g>
  </g>
  <g partID="854400600">
   <g transform="translate(51.8252,77.5295)">
    <g transform="matrix(-1,0,0,-1,0,0)">
     <g id="copper1" flipped="1">
      <g transform="matrix(-1, 0, 0, 1, 45.354, 0)">
       <g>
        <g>
         <g gorn="0.1.0">
          <circle stroke="white" r="2.239" stroke-width="2.52" stroke-linecap="round" stroke-linejoin="round" id="connector3pin" cy="4.93599" cx="4.677" gorn="0.1.0.0" fill="white"/>
          <circle stroke="white" r="2.239" stroke-width="2.52" stroke-linecap="round" stroke-linejoin="round" id="connector2pin" cy="4.93599" cx="11.877" gorn="0.1.0.1" fill="white"/>
          <circle stroke="white" r="2.239" stroke-width="2.52" stroke-linecap="round" stroke-linejoin="round" id="connector1pin" cy="4.93599" cx="19.077" gorn="0.1.0.2" fill="white"/>
          <circle stroke="white" r="2.239" stroke-width="2.52" stroke-linecap="round" stroke-linejoin="round" id="connector6pin" cy="4.93599" cx="26.277" gorn="0.1.0.3" fill="white"/>
          <circle stroke="white" r="2.239" stroke-width="2.52" stroke-linecap="round" stroke-linejoin="round" id="connector5pin" cy="4.93599" cx="33.477" gorn="0.1.0.4" fill="white"/>
          <circle stroke="white" r="2.239" stroke-width="2.52" stroke-linecap="round" stroke-linejoin="round" id="connector4pin" cy="4.93599" cx="40.677" gorn="0.1.0.5" fill="white"/>
         </g>
        </g>
       </g>
      </g>
     </g>
    </g>
   </g>
  </g>
  <g partID="854398962">
   <g transform="translate(18.348,0.59336)">
    <g id="copper1" gorn="0.3">
     <g id="copper0" gorn="0.3.0">
      <circle r="4.26331" stroke="white" connectorname="P$1" stroke-width="2.16" id="connector53pad" cy="50.4" cx="7.2" fill="white" gorn="0.3.0.0"/>
      <circle r="4.26331" stroke="white" connectorname="P$1" stroke-width="2.16" id="connector51pad" cy="7.2" cx="7.2" fill="white" gorn="0.3.0.1"/>
      <circle r="1.96866" stroke="white" connectorname="RST" stroke-width="1.82268" id="connector19pad" cy="50.4" cx="57.6" fill="white" gorn="0.3.0.2"/>
      <circle r="1.96866" stroke="white" connectorname="SDA" stroke-width="1.82268" id="connector20pad" cy="50.4" cx="50.4" fill="white" gorn="0.3.0.3"/>
      <circle r="1.96866" stroke="white" connectorname="SCL" stroke-width="1.82268" id="connector21pad" cy="50.4" cx="43.2" fill="white" gorn="0.3.0.4"/>
      <circle r="1.96866" stroke="white" connectorname="GND" stroke-width="1.82268" id="connector22pad" cy="50.4" cx="36" fill="white" gorn="0.3.0.5"/>
      <circle r="1.96866" stroke="white" connectorname="3.3V" stroke-width="1.82268" id="connector23pad" cy="50.4" cx="28.8" fill="white" gorn="0.3.0.6"/>
      <circle r="1.96866" stroke="white" connectorname="VIN" stroke-width="1.82268" id="connector24pad" cy="50.4" cx="21.6" fill="white" gorn="0.3.0.7"/>
      <circle r="4.26331" stroke="white" connectorname="P$1" stroke-width="2.16" id="connector50pad" cy="50.4" cx="72" fill="white" gorn="0.3.0.8"/>
      <circle r="1.89666" stroke="white" connectorname="GINT1" stroke-width="1.67868" id="connector25pad" cy="7.2" cx="50.4" fill="white" gorn="0.3.0.9"/>
      <circle r="4.26331" stroke="white" connectorname="P$1" stroke-width="2.16" id="connector52pad" cy="7.2" cx="72" fill="white" gorn="0.3.0.10"/>
      <circle r="1.89666" stroke="white" connectorname="GINT2" stroke-width="1.67868" id="connector26pad" cy="7.2" cx="43.2" fill="white" gorn="0.3.0.11"/>
      <circle r="1.89666" stroke="white" connectorname="AINT1" stroke-width="1.67868" id="connector27pad" cy="7.2" cx="36" fill="white" gorn="0.3.0.12"/>
      <circle r="1.89666" stroke="white" connectorname="AINT2" stroke-width="1.67868" id="connector28pad" cy="7.2" cx="28.8" fill="white" gorn="0.3.0.13"/>
     </g>
    </g>
   </g>
  </g>
  <g partID="60762">
   <g transform="translate(80.7272,85.791)">
    <g id="copper1">
     <g id="copper0">
      <circle r="1.98" stroke="white" stroke-width="2.16" id="connector0pad" cy="15.6024" cx="20.8462" fill="white"/>
      <circle r="1.98" stroke="white" stroke-width="2.16" id="connector1pad" cy="15.6024" cx="2.42064" fill="white"/>
      <circle r="1.98" stroke="white" stroke-width="2.16" id="connector2pad" cy="2.84616" cx="20.8462" fill="white"/>
      <circle r="1.98" stroke="white" stroke-width="2.16" id="connector3pad" cy="2.84616" cx="2.42064" fill="white"/>
     </g>
    </g>
   </g>
  </g>
  <g partID="61892">
   <g transform="translate(9.06,119.559)">
    <g id="copper1">
     <circle r="2.04066" stroke="white" connectorname="8" stroke-width="1.96668" id="connector7pad" cy="3.43446" cx="34.488" fill="white"/>
     <circle r="2.04066" stroke="white" connectorname="7" stroke-width="1.96668" id="connector6pad" cy="10.6345" cx="30.888" fill="white"/>
     <circle r="2.04066" stroke="white" connectorname="6" stroke-width="1.96668" id="connector5pad" cy="3.43446" cx="27.288" fill="white"/>
     <circle r="2.04066" stroke="white" connectorname="4" stroke-width="1.96668" id="connector3pad" cy="3.43446" cx="20.088" fill="white"/>
     <circle r="2.04066" stroke="white" connectorname="2" stroke-width="1.96668" id="connector1pad" cy="3.43446" cx="12.888" fill="white"/>
     <circle r="2.04066" stroke="white" connectorname="5" stroke-width="1.96668" id="connector4pad" cy="10.6345" cx="23.688" fill="white"/>
     <circle r="2.04066" stroke="white" connectorname="3" stroke-width="1.96668" id="connector2pad" cy="10.6345" cx="16.488" fill="white"/>
     <circle r="2.04066" stroke="white" connectorname="1" stroke-width="1.96668" id="connector0pad" cy="10.6345" cx="9.288" fill="white"/>
     <path stroke="white" stroke-width="0.72" d="m6.624,7.97046,5.328,0,0,5.328,-5.328,0,0,-5.328zM7.87068,10.6345a1.41732,1.41732,0,1,0,2.83465,0,1.41732,1.41732,0,1,0,-2.83465,0z" fill="white"/>
     <circle r="4.53543" stroke="white" stroke-width="0.72" id="nonconn0" cy="28.6345" cx="5.688" fill="white"/>
     <circle r="4.53543" stroke="white" stroke-width="0.72" id="nonconn1" cy="28.6345" cx="38.088" fill="white"/>
    </g>
   </g>
  </g>
 </g>
</svg>
