G04 MADE WITH FRITZING*
G04 WWW.FRITZING.ORG*
G04 DOUBLE SIDED*
G04 HOLES PLATED*
G04 CONTOUR ON CENTER OF CONTOUR VECTOR*
%ASAXBY*%
%FSLAX23Y23*%
%MOIN*%
%OFA0B0*%
%SFA1.0B1.0*%
%ADD10C,0.010000*%
%ADD11R,0.001000X0.001000*%
%LNSILK1*%
G90*
G70*
G54D10*
X1401Y655D02*
X1401Y576D01*
D02*
X1204Y733D02*
X1371Y733D01*
D02*
X1204Y497D02*
X1371Y497D01*
D02*
X1165Y655D02*
X1165Y576D01*
D02*
X1283Y635D02*
X1283Y595D01*
D02*
X1302Y615D02*
X1263Y615D01*
X1240Y1672D02*
X1255Y1687D01*
X1255Y1657D01*
X1240Y1672D01*
X1245Y1667D02*
X1255Y1667D01*
X1245Y1667D01*
D02*
X1268Y1531D02*
X1298Y1531D01*
X1283Y1516D01*
X1268Y1531D01*
X1282Y1517D02*
X1284Y1517D01*
X1282Y1517D01*
D02*
G54D11*
X1Y1934D02*
X1621Y1934D01*
X1Y1933D02*
X1621Y1933D01*
X1Y1932D02*
X1621Y1932D01*
X1Y1931D02*
X1621Y1931D01*
X1Y1930D02*
X1621Y1930D01*
X1Y1929D02*
X1621Y1929D01*
X1Y1928D02*
X1621Y1928D01*
X1Y1927D02*
X1621Y1927D01*
X1Y1926D02*
X8Y1926D01*
X348Y1926D02*
X1262Y1926D01*
X1614Y1926D02*
X1621Y1926D01*
X1Y1925D02*
X8Y1925D01*
X340Y1925D02*
X1271Y1925D01*
X1614Y1925D02*
X1621Y1925D01*
X1Y1924D02*
X8Y1924D01*
X335Y1924D02*
X1276Y1924D01*
X1614Y1924D02*
X1621Y1924D01*
X1Y1923D02*
X8Y1923D01*
X331Y1923D02*
X1280Y1923D01*
X1614Y1923D02*
X1621Y1923D01*
X1Y1922D02*
X8Y1922D01*
X327Y1922D02*
X1283Y1922D01*
X1614Y1922D02*
X1621Y1922D01*
X1Y1921D02*
X8Y1921D01*
X324Y1921D02*
X1287Y1921D01*
X1614Y1921D02*
X1621Y1921D01*
X1Y1920D02*
X8Y1920D01*
X321Y1920D02*
X1289Y1920D01*
X1614Y1920D02*
X1621Y1920D01*
X1Y1919D02*
X8Y1919D01*
X318Y1919D02*
X1292Y1919D01*
X1614Y1919D02*
X1621Y1919D01*
X1Y1918D02*
X8Y1918D01*
X316Y1918D02*
X347Y1918D01*
X1263Y1918D02*
X1294Y1918D01*
X1614Y1918D02*
X1621Y1918D01*
X1Y1917D02*
X8Y1917D01*
X314Y1917D02*
X339Y1917D01*
X1272Y1917D02*
X1297Y1917D01*
X1614Y1917D02*
X1621Y1917D01*
X1Y1916D02*
X8Y1916D01*
X312Y1916D02*
X334Y1916D01*
X1277Y1916D02*
X1299Y1916D01*
X1614Y1916D02*
X1621Y1916D01*
X1Y1915D02*
X8Y1915D01*
X310Y1915D02*
X330Y1915D01*
X1280Y1915D02*
X1301Y1915D01*
X1614Y1915D02*
X1621Y1915D01*
X1Y1914D02*
X8Y1914D01*
X308Y1914D02*
X327Y1914D01*
X1284Y1914D02*
X1303Y1914D01*
X1614Y1914D02*
X1621Y1914D01*
X1Y1913D02*
X8Y1913D01*
X306Y1913D02*
X324Y1913D01*
X1287Y1913D02*
X1304Y1913D01*
X1614Y1913D02*
X1621Y1913D01*
X1Y1912D02*
X8Y1912D01*
X304Y1912D02*
X321Y1912D01*
X1289Y1912D02*
X1306Y1912D01*
X1614Y1912D02*
X1621Y1912D01*
X1Y1911D02*
X8Y1911D01*
X303Y1911D02*
X319Y1911D01*
X1292Y1911D02*
X1308Y1911D01*
X1614Y1911D02*
X1621Y1911D01*
X1Y1910D02*
X8Y1910D01*
X301Y1910D02*
X317Y1910D01*
X1294Y1910D02*
X1309Y1910D01*
X1614Y1910D02*
X1621Y1910D01*
X1Y1909D02*
X8Y1909D01*
X300Y1909D02*
X314Y1909D01*
X1296Y1909D02*
X1311Y1909D01*
X1614Y1909D02*
X1621Y1909D01*
X1Y1908D02*
X8Y1908D01*
X298Y1908D02*
X312Y1908D01*
X1298Y1908D02*
X1312Y1908D01*
X1614Y1908D02*
X1621Y1908D01*
X1Y1907D02*
X8Y1907D01*
X297Y1907D02*
X311Y1907D01*
X1300Y1907D02*
X1314Y1907D01*
X1614Y1907D02*
X1621Y1907D01*
X1Y1906D02*
X8Y1906D01*
X295Y1906D02*
X309Y1906D01*
X1302Y1906D02*
X1315Y1906D01*
X1614Y1906D02*
X1621Y1906D01*
X1Y1905D02*
X8Y1905D01*
X294Y1905D02*
X307Y1905D01*
X1303Y1905D02*
X1316Y1905D01*
X1614Y1905D02*
X1621Y1905D01*
X1Y1904D02*
X8Y1904D01*
X293Y1904D02*
X305Y1904D01*
X1305Y1904D02*
X1318Y1904D01*
X1614Y1904D02*
X1621Y1904D01*
X1Y1903D02*
X8Y1903D01*
X292Y1903D02*
X304Y1903D01*
X1307Y1903D02*
X1319Y1903D01*
X1614Y1903D02*
X1621Y1903D01*
X1Y1902D02*
X8Y1902D01*
X290Y1902D02*
X303Y1902D01*
X1308Y1902D02*
X1320Y1902D01*
X1614Y1902D02*
X1621Y1902D01*
X1Y1901D02*
X8Y1901D01*
X289Y1901D02*
X301Y1901D01*
X1309Y1901D02*
X1321Y1901D01*
X1614Y1901D02*
X1621Y1901D01*
X1Y1900D02*
X8Y1900D01*
X288Y1900D02*
X300Y1900D01*
X1311Y1900D02*
X1322Y1900D01*
X1614Y1900D02*
X1621Y1900D01*
X1Y1899D02*
X8Y1899D01*
X287Y1899D02*
X298Y1899D01*
X1312Y1899D02*
X1323Y1899D01*
X1614Y1899D02*
X1621Y1899D01*
X1Y1898D02*
X8Y1898D01*
X286Y1898D02*
X297Y1898D01*
X1313Y1898D02*
X1324Y1898D01*
X1614Y1898D02*
X1621Y1898D01*
X1Y1897D02*
X8Y1897D01*
X285Y1897D02*
X296Y1897D01*
X1315Y1897D02*
X1325Y1897D01*
X1614Y1897D02*
X1621Y1897D01*
X1Y1896D02*
X8Y1896D01*
X284Y1896D02*
X295Y1896D01*
X1316Y1896D02*
X1326Y1896D01*
X1614Y1896D02*
X1621Y1896D01*
X1Y1895D02*
X8Y1895D01*
X283Y1895D02*
X294Y1895D01*
X1317Y1895D02*
X1327Y1895D01*
X1614Y1895D02*
X1621Y1895D01*
X1Y1894D02*
X8Y1894D01*
X282Y1894D02*
X293Y1894D01*
X1318Y1894D02*
X1328Y1894D01*
X1614Y1894D02*
X1621Y1894D01*
X1Y1893D02*
X8Y1893D01*
X281Y1893D02*
X291Y1893D01*
X1319Y1893D02*
X1329Y1893D01*
X1614Y1893D02*
X1621Y1893D01*
X1Y1892D02*
X8Y1892D01*
X280Y1892D02*
X290Y1892D01*
X1320Y1892D02*
X1330Y1892D01*
X1614Y1892D02*
X1621Y1892D01*
X1Y1891D02*
X8Y1891D01*
X280Y1891D02*
X289Y1891D01*
X1321Y1891D02*
X1331Y1891D01*
X1614Y1891D02*
X1621Y1891D01*
X1Y1890D02*
X8Y1890D01*
X279Y1890D02*
X288Y1890D01*
X1322Y1890D02*
X1332Y1890D01*
X1614Y1890D02*
X1621Y1890D01*
X1Y1889D02*
X8Y1889D01*
X278Y1889D02*
X288Y1889D01*
X1323Y1889D02*
X1333Y1889D01*
X1614Y1889D02*
X1621Y1889D01*
X1Y1888D02*
X8Y1888D01*
X277Y1888D02*
X287Y1888D01*
X1324Y1888D02*
X1333Y1888D01*
X1614Y1888D02*
X1621Y1888D01*
X1Y1887D02*
X8Y1887D01*
X276Y1887D02*
X286Y1887D01*
X1325Y1887D02*
X1334Y1887D01*
X1614Y1887D02*
X1621Y1887D01*
X1Y1886D02*
X8Y1886D01*
X276Y1886D02*
X285Y1886D01*
X1326Y1886D02*
X1335Y1886D01*
X1614Y1886D02*
X1621Y1886D01*
X1Y1885D02*
X8Y1885D01*
X275Y1885D02*
X284Y1885D01*
X1327Y1885D02*
X1336Y1885D01*
X1614Y1885D02*
X1621Y1885D01*
X1Y1884D02*
X8Y1884D01*
X274Y1884D02*
X283Y1884D01*
X1327Y1884D02*
X1336Y1884D01*
X1614Y1884D02*
X1621Y1884D01*
X1Y1883D02*
X8Y1883D01*
X273Y1883D02*
X282Y1883D01*
X1328Y1883D02*
X1337Y1883D01*
X1614Y1883D02*
X1621Y1883D01*
X1Y1882D02*
X8Y1882D01*
X273Y1882D02*
X282Y1882D01*
X1329Y1882D02*
X1338Y1882D01*
X1614Y1882D02*
X1621Y1882D01*
X1Y1881D02*
X8Y1881D01*
X272Y1881D02*
X281Y1881D01*
X1330Y1881D02*
X1338Y1881D01*
X1614Y1881D02*
X1621Y1881D01*
X1Y1880D02*
X8Y1880D01*
X271Y1880D02*
X280Y1880D01*
X1330Y1880D02*
X1339Y1880D01*
X1614Y1880D02*
X1621Y1880D01*
X1Y1879D02*
X8Y1879D01*
X271Y1879D02*
X279Y1879D01*
X1331Y1879D02*
X1340Y1879D01*
X1614Y1879D02*
X1621Y1879D01*
X1Y1878D02*
X8Y1878D01*
X270Y1878D02*
X279Y1878D01*
X1332Y1878D02*
X1340Y1878D01*
X1614Y1878D02*
X1621Y1878D01*
X1Y1877D02*
X8Y1877D01*
X270Y1877D02*
X278Y1877D01*
X1333Y1877D02*
X1341Y1877D01*
X1614Y1877D02*
X1621Y1877D01*
X1Y1876D02*
X8Y1876D01*
X269Y1876D02*
X277Y1876D01*
X1333Y1876D02*
X1341Y1876D01*
X1614Y1876D02*
X1621Y1876D01*
X1Y1875D02*
X8Y1875D01*
X269Y1875D02*
X277Y1875D01*
X1334Y1875D02*
X1342Y1875D01*
X1614Y1875D02*
X1621Y1875D01*
X1Y1874D02*
X8Y1874D01*
X268Y1874D02*
X276Y1874D01*
X1334Y1874D02*
X1343Y1874D01*
X1614Y1874D02*
X1621Y1874D01*
X1Y1873D02*
X8Y1873D01*
X267Y1873D02*
X276Y1873D01*
X1335Y1873D02*
X1343Y1873D01*
X1614Y1873D02*
X1621Y1873D01*
X1Y1872D02*
X8Y1872D01*
X267Y1872D02*
X275Y1872D01*
X1336Y1872D02*
X1344Y1872D01*
X1614Y1872D02*
X1621Y1872D01*
X1Y1871D02*
X8Y1871D01*
X266Y1871D02*
X274Y1871D01*
X1336Y1871D02*
X1344Y1871D01*
X1614Y1871D02*
X1621Y1871D01*
X1Y1870D02*
X8Y1870D01*
X266Y1870D02*
X274Y1870D01*
X1337Y1870D02*
X1345Y1870D01*
X1614Y1870D02*
X1621Y1870D01*
X1Y1869D02*
X8Y1869D01*
X265Y1869D02*
X273Y1869D01*
X1337Y1869D02*
X1345Y1869D01*
X1614Y1869D02*
X1621Y1869D01*
X1Y1868D02*
X8Y1868D01*
X265Y1868D02*
X273Y1868D01*
X1338Y1868D02*
X1346Y1868D01*
X1614Y1868D02*
X1621Y1868D01*
X1Y1867D02*
X8Y1867D01*
X265Y1867D02*
X272Y1867D01*
X1338Y1867D02*
X1346Y1867D01*
X1614Y1867D02*
X1621Y1867D01*
X1Y1866D02*
X8Y1866D01*
X264Y1866D02*
X272Y1866D01*
X1339Y1866D02*
X1346Y1866D01*
X1614Y1866D02*
X1621Y1866D01*
X1Y1865D02*
X8Y1865D01*
X264Y1865D02*
X271Y1865D01*
X1339Y1865D02*
X1347Y1865D01*
X1614Y1865D02*
X1621Y1865D01*
X1Y1864D02*
X8Y1864D01*
X263Y1864D02*
X271Y1864D01*
X1340Y1864D02*
X1347Y1864D01*
X1614Y1864D02*
X1621Y1864D01*
X1Y1863D02*
X8Y1863D01*
X263Y1863D02*
X270Y1863D01*
X1340Y1863D02*
X1348Y1863D01*
X1614Y1863D02*
X1621Y1863D01*
X1Y1862D02*
X8Y1862D01*
X262Y1862D02*
X270Y1862D01*
X1341Y1862D02*
X1348Y1862D01*
X1614Y1862D02*
X1621Y1862D01*
X1Y1861D02*
X8Y1861D01*
X262Y1861D02*
X269Y1861D01*
X1341Y1861D02*
X1348Y1861D01*
X1614Y1861D02*
X1621Y1861D01*
X1Y1860D02*
X8Y1860D01*
X262Y1860D02*
X269Y1860D01*
X1341Y1860D02*
X1349Y1860D01*
X1614Y1860D02*
X1621Y1860D01*
X1Y1859D02*
X8Y1859D01*
X261Y1859D02*
X269Y1859D01*
X1342Y1859D02*
X1349Y1859D01*
X1614Y1859D02*
X1621Y1859D01*
X1Y1858D02*
X8Y1858D01*
X261Y1858D02*
X268Y1858D01*
X1342Y1858D02*
X1350Y1858D01*
X1614Y1858D02*
X1621Y1858D01*
X1Y1857D02*
X8Y1857D01*
X261Y1857D02*
X268Y1857D01*
X1343Y1857D02*
X1350Y1857D01*
X1614Y1857D02*
X1621Y1857D01*
X1Y1856D02*
X8Y1856D01*
X260Y1856D02*
X268Y1856D01*
X1343Y1856D02*
X1350Y1856D01*
X1614Y1856D02*
X1621Y1856D01*
X1Y1855D02*
X8Y1855D01*
X260Y1855D02*
X267Y1855D01*
X1343Y1855D02*
X1350Y1855D01*
X1614Y1855D02*
X1621Y1855D01*
X1Y1854D02*
X8Y1854D01*
X260Y1854D02*
X267Y1854D01*
X1344Y1854D02*
X1351Y1854D01*
X1614Y1854D02*
X1621Y1854D01*
X1Y1853D02*
X8Y1853D01*
X259Y1853D02*
X267Y1853D01*
X1344Y1853D02*
X1351Y1853D01*
X1614Y1853D02*
X1621Y1853D01*
X1Y1852D02*
X8Y1852D01*
X259Y1852D02*
X266Y1852D01*
X1344Y1852D02*
X1351Y1852D01*
X1614Y1852D02*
X1621Y1852D01*
X1Y1851D02*
X8Y1851D01*
X259Y1851D02*
X266Y1851D01*
X1344Y1851D02*
X1352Y1851D01*
X1614Y1851D02*
X1621Y1851D01*
X1Y1850D02*
X8Y1850D01*
X259Y1850D02*
X266Y1850D01*
X1345Y1850D02*
X1352Y1850D01*
X1614Y1850D02*
X1621Y1850D01*
X1Y1849D02*
X8Y1849D01*
X258Y1849D02*
X266Y1849D01*
X1345Y1849D02*
X1352Y1849D01*
X1614Y1849D02*
X1621Y1849D01*
X1Y1848D02*
X8Y1848D01*
X258Y1848D02*
X265Y1848D01*
X1345Y1848D02*
X1352Y1848D01*
X1614Y1848D02*
X1621Y1848D01*
X1Y1847D02*
X8Y1847D01*
X258Y1847D02*
X265Y1847D01*
X1345Y1847D02*
X1352Y1847D01*
X1614Y1847D02*
X1621Y1847D01*
X1Y1846D02*
X8Y1846D01*
X258Y1846D02*
X265Y1846D01*
X1346Y1846D02*
X1353Y1846D01*
X1614Y1846D02*
X1621Y1846D01*
X1Y1845D02*
X8Y1845D01*
X258Y1845D02*
X265Y1845D01*
X1346Y1845D02*
X1353Y1845D01*
X1614Y1845D02*
X1621Y1845D01*
X1Y1844D02*
X8Y1844D01*
X257Y1844D02*
X264Y1844D01*
X1346Y1844D02*
X1353Y1844D01*
X1614Y1844D02*
X1621Y1844D01*
X1Y1843D02*
X8Y1843D01*
X257Y1843D02*
X264Y1843D01*
X1346Y1843D02*
X1353Y1843D01*
X1614Y1843D02*
X1621Y1843D01*
X1Y1842D02*
X8Y1842D01*
X257Y1842D02*
X264Y1842D01*
X1346Y1842D02*
X1353Y1842D01*
X1614Y1842D02*
X1621Y1842D01*
X1Y1841D02*
X8Y1841D01*
X257Y1841D02*
X264Y1841D01*
X1347Y1841D02*
X1354Y1841D01*
X1614Y1841D02*
X1621Y1841D01*
X1Y1840D02*
X8Y1840D01*
X257Y1840D02*
X264Y1840D01*
X1347Y1840D02*
X1354Y1840D01*
X1614Y1840D02*
X1621Y1840D01*
X1Y1839D02*
X8Y1839D01*
X257Y1839D02*
X264Y1839D01*
X1347Y1839D02*
X1354Y1839D01*
X1614Y1839D02*
X1621Y1839D01*
X1Y1838D02*
X8Y1838D01*
X256Y1838D02*
X263Y1838D01*
X1347Y1838D02*
X1354Y1838D01*
X1614Y1838D02*
X1621Y1838D01*
X1Y1837D02*
X8Y1837D01*
X256Y1837D02*
X263Y1837D01*
X1347Y1837D02*
X1354Y1837D01*
X1614Y1837D02*
X1621Y1837D01*
X1Y1836D02*
X8Y1836D01*
X256Y1836D02*
X263Y1836D01*
X1347Y1836D02*
X1354Y1836D01*
X1614Y1836D02*
X1621Y1836D01*
X1Y1835D02*
X8Y1835D01*
X256Y1835D02*
X263Y1835D01*
X1347Y1835D02*
X1354Y1835D01*
X1614Y1835D02*
X1621Y1835D01*
X1Y1834D02*
X8Y1834D01*
X256Y1834D02*
X263Y1834D01*
X1347Y1834D02*
X1354Y1834D01*
X1614Y1834D02*
X1621Y1834D01*
X1Y1833D02*
X8Y1833D01*
X256Y1833D02*
X263Y1833D01*
X1348Y1833D02*
X1354Y1833D01*
X1614Y1833D02*
X1621Y1833D01*
X1Y1832D02*
X8Y1832D01*
X256Y1832D02*
X263Y1832D01*
X1348Y1832D02*
X1355Y1832D01*
X1614Y1832D02*
X1621Y1832D01*
X1Y1831D02*
X8Y1831D01*
X256Y1831D02*
X263Y1831D01*
X1348Y1831D02*
X1355Y1831D01*
X1614Y1831D02*
X1621Y1831D01*
X1Y1830D02*
X8Y1830D01*
X256Y1830D02*
X263Y1830D01*
X1348Y1830D02*
X1355Y1830D01*
X1614Y1830D02*
X1621Y1830D01*
X1Y1829D02*
X8Y1829D01*
X256Y1829D02*
X263Y1829D01*
X1348Y1829D02*
X1355Y1829D01*
X1614Y1829D02*
X1621Y1829D01*
X1Y1828D02*
X8Y1828D01*
X256Y1828D02*
X263Y1828D01*
X1348Y1828D02*
X1355Y1828D01*
X1614Y1828D02*
X1621Y1828D01*
X1Y1827D02*
X8Y1827D01*
X256Y1827D02*
X263Y1827D01*
X1348Y1827D02*
X1355Y1827D01*
X1614Y1827D02*
X1621Y1827D01*
X1Y1826D02*
X8Y1826D01*
X256Y1826D02*
X263Y1826D01*
X1348Y1826D02*
X1355Y1826D01*
X1614Y1826D02*
X1621Y1826D01*
X1Y1825D02*
X8Y1825D01*
X256Y1825D02*
X263Y1825D01*
X1348Y1825D02*
X1355Y1825D01*
X1614Y1825D02*
X1621Y1825D01*
X1Y1824D02*
X8Y1824D01*
X256Y1824D02*
X263Y1824D01*
X1348Y1824D02*
X1355Y1824D01*
X1614Y1824D02*
X1621Y1824D01*
X1Y1823D02*
X8Y1823D01*
X256Y1823D02*
X263Y1823D01*
X1348Y1823D02*
X1355Y1823D01*
X1614Y1823D02*
X1621Y1823D01*
X1Y1822D02*
X8Y1822D01*
X256Y1822D02*
X263Y1822D01*
X1348Y1822D02*
X1355Y1822D01*
X1614Y1822D02*
X1621Y1822D01*
X1Y1821D02*
X8Y1821D01*
X256Y1821D02*
X263Y1821D01*
X1348Y1821D02*
X1355Y1821D01*
X1614Y1821D02*
X1621Y1821D01*
X1Y1820D02*
X8Y1820D01*
X256Y1820D02*
X263Y1820D01*
X1348Y1820D02*
X1355Y1820D01*
X1614Y1820D02*
X1621Y1820D01*
X1Y1819D02*
X8Y1819D01*
X256Y1819D02*
X263Y1819D01*
X1348Y1819D02*
X1355Y1819D01*
X1614Y1819D02*
X1621Y1819D01*
X1Y1818D02*
X8Y1818D01*
X256Y1818D02*
X263Y1818D01*
X1348Y1818D02*
X1355Y1818D01*
X1614Y1818D02*
X1621Y1818D01*
X1Y1817D02*
X8Y1817D01*
X256Y1817D02*
X263Y1817D01*
X1348Y1817D02*
X1355Y1817D01*
X1614Y1817D02*
X1621Y1817D01*
X1Y1816D02*
X8Y1816D01*
X256Y1816D02*
X263Y1816D01*
X1348Y1816D02*
X1355Y1816D01*
X1614Y1816D02*
X1621Y1816D01*
X1Y1815D02*
X8Y1815D01*
X256Y1815D02*
X263Y1815D01*
X1348Y1815D02*
X1355Y1815D01*
X1614Y1815D02*
X1621Y1815D01*
X1Y1814D02*
X8Y1814D01*
X256Y1814D02*
X263Y1814D01*
X1348Y1814D02*
X1355Y1814D01*
X1614Y1814D02*
X1621Y1814D01*
X1Y1813D02*
X8Y1813D01*
X256Y1813D02*
X263Y1813D01*
X1348Y1813D02*
X1355Y1813D01*
X1614Y1813D02*
X1621Y1813D01*
X1Y1812D02*
X8Y1812D01*
X256Y1812D02*
X263Y1812D01*
X1348Y1812D02*
X1355Y1812D01*
X1614Y1812D02*
X1621Y1812D01*
X1Y1811D02*
X8Y1811D01*
X256Y1811D02*
X263Y1811D01*
X1348Y1811D02*
X1355Y1811D01*
X1614Y1811D02*
X1621Y1811D01*
X1Y1810D02*
X8Y1810D01*
X256Y1810D02*
X263Y1810D01*
X1348Y1810D02*
X1355Y1810D01*
X1614Y1810D02*
X1621Y1810D01*
X1Y1809D02*
X8Y1809D01*
X256Y1809D02*
X263Y1809D01*
X1348Y1809D02*
X1355Y1809D01*
X1614Y1809D02*
X1621Y1809D01*
X1Y1808D02*
X8Y1808D01*
X256Y1808D02*
X263Y1808D01*
X1348Y1808D02*
X1355Y1808D01*
X1614Y1808D02*
X1621Y1808D01*
X1Y1807D02*
X8Y1807D01*
X256Y1807D02*
X263Y1807D01*
X1348Y1807D02*
X1355Y1807D01*
X1614Y1807D02*
X1621Y1807D01*
X1Y1806D02*
X8Y1806D01*
X256Y1806D02*
X263Y1806D01*
X1348Y1806D02*
X1355Y1806D01*
X1614Y1806D02*
X1621Y1806D01*
X1Y1805D02*
X8Y1805D01*
X256Y1805D02*
X263Y1805D01*
X1348Y1805D02*
X1355Y1805D01*
X1614Y1805D02*
X1621Y1805D01*
X1Y1804D02*
X8Y1804D01*
X256Y1804D02*
X263Y1804D01*
X1348Y1804D02*
X1355Y1804D01*
X1614Y1804D02*
X1621Y1804D01*
X1Y1803D02*
X8Y1803D01*
X256Y1803D02*
X263Y1803D01*
X1348Y1803D02*
X1355Y1803D01*
X1614Y1803D02*
X1621Y1803D01*
X1Y1802D02*
X8Y1802D01*
X256Y1802D02*
X263Y1802D01*
X1348Y1802D02*
X1355Y1802D01*
X1614Y1802D02*
X1621Y1802D01*
X1Y1801D02*
X8Y1801D01*
X256Y1801D02*
X263Y1801D01*
X1348Y1801D02*
X1355Y1801D01*
X1614Y1801D02*
X1621Y1801D01*
X1Y1800D02*
X8Y1800D01*
X256Y1800D02*
X263Y1800D01*
X1348Y1800D02*
X1355Y1800D01*
X1614Y1800D02*
X1621Y1800D01*
X1Y1799D02*
X8Y1799D01*
X256Y1799D02*
X263Y1799D01*
X1348Y1799D02*
X1355Y1799D01*
X1614Y1799D02*
X1621Y1799D01*
X1Y1798D02*
X8Y1798D01*
X256Y1798D02*
X263Y1798D01*
X1348Y1798D02*
X1355Y1798D01*
X1614Y1798D02*
X1621Y1798D01*
X1Y1797D02*
X8Y1797D01*
X256Y1797D02*
X263Y1797D01*
X1348Y1797D02*
X1355Y1797D01*
X1614Y1797D02*
X1621Y1797D01*
X1Y1796D02*
X8Y1796D01*
X256Y1796D02*
X263Y1796D01*
X1348Y1796D02*
X1355Y1796D01*
X1614Y1796D02*
X1621Y1796D01*
X1Y1795D02*
X8Y1795D01*
X256Y1795D02*
X263Y1795D01*
X1348Y1795D02*
X1355Y1795D01*
X1614Y1795D02*
X1621Y1795D01*
X1Y1794D02*
X8Y1794D01*
X256Y1794D02*
X263Y1794D01*
X1348Y1794D02*
X1355Y1794D01*
X1614Y1794D02*
X1621Y1794D01*
X1Y1793D02*
X8Y1793D01*
X256Y1793D02*
X263Y1793D01*
X1348Y1793D02*
X1355Y1793D01*
X1614Y1793D02*
X1621Y1793D01*
X1Y1792D02*
X8Y1792D01*
X256Y1792D02*
X263Y1792D01*
X1348Y1792D02*
X1355Y1792D01*
X1614Y1792D02*
X1621Y1792D01*
X1Y1791D02*
X8Y1791D01*
X256Y1791D02*
X263Y1791D01*
X1348Y1791D02*
X1355Y1791D01*
X1614Y1791D02*
X1621Y1791D01*
X1Y1790D02*
X8Y1790D01*
X256Y1790D02*
X263Y1790D01*
X1348Y1790D02*
X1355Y1790D01*
X1614Y1790D02*
X1621Y1790D01*
X1Y1789D02*
X8Y1789D01*
X256Y1789D02*
X263Y1789D01*
X1348Y1789D02*
X1355Y1789D01*
X1614Y1789D02*
X1621Y1789D01*
X1Y1788D02*
X8Y1788D01*
X256Y1788D02*
X263Y1788D01*
X1348Y1788D02*
X1355Y1788D01*
X1614Y1788D02*
X1621Y1788D01*
X1Y1787D02*
X8Y1787D01*
X256Y1787D02*
X263Y1787D01*
X1348Y1787D02*
X1355Y1787D01*
X1614Y1787D02*
X1621Y1787D01*
X1Y1786D02*
X8Y1786D01*
X256Y1786D02*
X263Y1786D01*
X1348Y1786D02*
X1355Y1786D01*
X1614Y1786D02*
X1621Y1786D01*
X1Y1785D02*
X8Y1785D01*
X256Y1785D02*
X263Y1785D01*
X1348Y1785D02*
X1355Y1785D01*
X1614Y1785D02*
X1621Y1785D01*
X1Y1784D02*
X8Y1784D01*
X256Y1784D02*
X263Y1784D01*
X1348Y1784D02*
X1355Y1784D01*
X1614Y1784D02*
X1621Y1784D01*
X1Y1783D02*
X8Y1783D01*
X256Y1783D02*
X263Y1783D01*
X1348Y1783D02*
X1355Y1783D01*
X1614Y1783D02*
X1621Y1783D01*
X1Y1782D02*
X8Y1782D01*
X256Y1782D02*
X263Y1782D01*
X1348Y1782D02*
X1355Y1782D01*
X1614Y1782D02*
X1621Y1782D01*
X1Y1781D02*
X8Y1781D01*
X256Y1781D02*
X263Y1781D01*
X1348Y1781D02*
X1355Y1781D01*
X1614Y1781D02*
X1621Y1781D01*
X1Y1780D02*
X8Y1780D01*
X256Y1780D02*
X263Y1780D01*
X1348Y1780D02*
X1355Y1780D01*
X1614Y1780D02*
X1621Y1780D01*
X1Y1779D02*
X8Y1779D01*
X256Y1779D02*
X263Y1779D01*
X1348Y1779D02*
X1355Y1779D01*
X1614Y1779D02*
X1621Y1779D01*
X1Y1778D02*
X8Y1778D01*
X256Y1778D02*
X263Y1778D01*
X1348Y1778D02*
X1355Y1778D01*
X1614Y1778D02*
X1621Y1778D01*
X1Y1777D02*
X8Y1777D01*
X256Y1777D02*
X263Y1777D01*
X1348Y1777D02*
X1355Y1777D01*
X1614Y1777D02*
X1621Y1777D01*
X1Y1776D02*
X8Y1776D01*
X256Y1776D02*
X263Y1776D01*
X1348Y1776D02*
X1355Y1776D01*
X1614Y1776D02*
X1621Y1776D01*
X1Y1775D02*
X8Y1775D01*
X256Y1775D02*
X263Y1775D01*
X1348Y1775D02*
X1355Y1775D01*
X1614Y1775D02*
X1621Y1775D01*
X1Y1774D02*
X8Y1774D01*
X256Y1774D02*
X263Y1774D01*
X1348Y1774D02*
X1355Y1774D01*
X1614Y1774D02*
X1621Y1774D01*
X1Y1773D02*
X8Y1773D01*
X256Y1773D02*
X263Y1773D01*
X1348Y1773D02*
X1355Y1773D01*
X1614Y1773D02*
X1621Y1773D01*
X1Y1772D02*
X8Y1772D01*
X256Y1772D02*
X263Y1772D01*
X1348Y1772D02*
X1355Y1772D01*
X1614Y1772D02*
X1621Y1772D01*
X1Y1771D02*
X8Y1771D01*
X256Y1771D02*
X263Y1771D01*
X1348Y1771D02*
X1355Y1771D01*
X1614Y1771D02*
X1621Y1771D01*
X1Y1770D02*
X8Y1770D01*
X256Y1770D02*
X263Y1770D01*
X1348Y1770D02*
X1355Y1770D01*
X1614Y1770D02*
X1621Y1770D01*
X1Y1769D02*
X8Y1769D01*
X256Y1769D02*
X263Y1769D01*
X1348Y1769D02*
X1355Y1769D01*
X1614Y1769D02*
X1621Y1769D01*
X1Y1768D02*
X8Y1768D01*
X256Y1768D02*
X263Y1768D01*
X1348Y1768D02*
X1355Y1768D01*
X1614Y1768D02*
X1621Y1768D01*
X1Y1767D02*
X8Y1767D01*
X256Y1767D02*
X263Y1767D01*
X1348Y1767D02*
X1355Y1767D01*
X1614Y1767D02*
X1621Y1767D01*
X1Y1766D02*
X8Y1766D01*
X256Y1766D02*
X263Y1766D01*
X1348Y1766D02*
X1355Y1766D01*
X1614Y1766D02*
X1621Y1766D01*
X1Y1765D02*
X8Y1765D01*
X256Y1765D02*
X263Y1765D01*
X1348Y1765D02*
X1355Y1765D01*
X1614Y1765D02*
X1621Y1765D01*
X1Y1764D02*
X8Y1764D01*
X256Y1764D02*
X263Y1764D01*
X1348Y1764D02*
X1355Y1764D01*
X1614Y1764D02*
X1621Y1764D01*
X1Y1763D02*
X8Y1763D01*
X256Y1763D02*
X263Y1763D01*
X1348Y1763D02*
X1355Y1763D01*
X1614Y1763D02*
X1621Y1763D01*
X1Y1762D02*
X8Y1762D01*
X256Y1762D02*
X263Y1762D01*
X1348Y1762D02*
X1355Y1762D01*
X1614Y1762D02*
X1621Y1762D01*
X1Y1761D02*
X8Y1761D01*
X256Y1761D02*
X263Y1761D01*
X1348Y1761D02*
X1355Y1761D01*
X1614Y1761D02*
X1621Y1761D01*
X1Y1760D02*
X8Y1760D01*
X256Y1760D02*
X263Y1760D01*
X1348Y1760D02*
X1355Y1760D01*
X1614Y1760D02*
X1621Y1760D01*
X1Y1759D02*
X8Y1759D01*
X256Y1759D02*
X263Y1759D01*
X1348Y1759D02*
X1355Y1759D01*
X1614Y1759D02*
X1621Y1759D01*
X1Y1758D02*
X8Y1758D01*
X256Y1758D02*
X263Y1758D01*
X1348Y1758D02*
X1355Y1758D01*
X1614Y1758D02*
X1621Y1758D01*
X1Y1757D02*
X8Y1757D01*
X256Y1757D02*
X263Y1757D01*
X1348Y1757D02*
X1355Y1757D01*
X1614Y1757D02*
X1621Y1757D01*
X1Y1756D02*
X8Y1756D01*
X256Y1756D02*
X263Y1756D01*
X1348Y1756D02*
X1355Y1756D01*
X1614Y1756D02*
X1621Y1756D01*
X1Y1755D02*
X8Y1755D01*
X256Y1755D02*
X263Y1755D01*
X1348Y1755D02*
X1355Y1755D01*
X1614Y1755D02*
X1621Y1755D01*
X1Y1754D02*
X8Y1754D01*
X256Y1754D02*
X263Y1754D01*
X1348Y1754D02*
X1355Y1754D01*
X1614Y1754D02*
X1621Y1754D01*
X1Y1753D02*
X8Y1753D01*
X256Y1753D02*
X263Y1753D01*
X1348Y1753D02*
X1355Y1753D01*
X1614Y1753D02*
X1621Y1753D01*
X1Y1752D02*
X8Y1752D01*
X256Y1752D02*
X263Y1752D01*
X1348Y1752D02*
X1355Y1752D01*
X1614Y1752D02*
X1621Y1752D01*
X1Y1751D02*
X8Y1751D01*
X256Y1751D02*
X263Y1751D01*
X1348Y1751D02*
X1355Y1751D01*
X1614Y1751D02*
X1621Y1751D01*
X1Y1750D02*
X8Y1750D01*
X256Y1750D02*
X263Y1750D01*
X1348Y1750D02*
X1355Y1750D01*
X1614Y1750D02*
X1621Y1750D01*
X1Y1749D02*
X8Y1749D01*
X256Y1749D02*
X263Y1749D01*
X1348Y1749D02*
X1355Y1749D01*
X1614Y1749D02*
X1621Y1749D01*
X1Y1748D02*
X8Y1748D01*
X256Y1748D02*
X263Y1748D01*
X1348Y1748D02*
X1355Y1748D01*
X1614Y1748D02*
X1621Y1748D01*
X1Y1747D02*
X8Y1747D01*
X256Y1747D02*
X263Y1747D01*
X1348Y1747D02*
X1355Y1747D01*
X1614Y1747D02*
X1621Y1747D01*
X1Y1746D02*
X8Y1746D01*
X256Y1746D02*
X263Y1746D01*
X1348Y1746D02*
X1355Y1746D01*
X1614Y1746D02*
X1621Y1746D01*
X1Y1745D02*
X8Y1745D01*
X256Y1745D02*
X263Y1745D01*
X1348Y1745D02*
X1355Y1745D01*
X1614Y1745D02*
X1621Y1745D01*
X1Y1744D02*
X8Y1744D01*
X256Y1744D02*
X263Y1744D01*
X1348Y1744D02*
X1355Y1744D01*
X1614Y1744D02*
X1621Y1744D01*
X1Y1743D02*
X8Y1743D01*
X256Y1743D02*
X263Y1743D01*
X1348Y1743D02*
X1355Y1743D01*
X1614Y1743D02*
X1621Y1743D01*
X1Y1742D02*
X8Y1742D01*
X256Y1742D02*
X263Y1742D01*
X1348Y1742D02*
X1355Y1742D01*
X1614Y1742D02*
X1621Y1742D01*
X1Y1741D02*
X8Y1741D01*
X256Y1741D02*
X263Y1741D01*
X1348Y1741D02*
X1355Y1741D01*
X1614Y1741D02*
X1621Y1741D01*
X1Y1740D02*
X8Y1740D01*
X256Y1740D02*
X263Y1740D01*
X1348Y1740D02*
X1355Y1740D01*
X1614Y1740D02*
X1621Y1740D01*
X1Y1739D02*
X8Y1739D01*
X256Y1739D02*
X263Y1739D01*
X1348Y1739D02*
X1355Y1739D01*
X1614Y1739D02*
X1621Y1739D01*
X1Y1738D02*
X8Y1738D01*
X256Y1738D02*
X263Y1738D01*
X1348Y1738D02*
X1355Y1738D01*
X1614Y1738D02*
X1621Y1738D01*
X1Y1737D02*
X8Y1737D01*
X256Y1737D02*
X263Y1737D01*
X1348Y1737D02*
X1355Y1737D01*
X1614Y1737D02*
X1621Y1737D01*
X1Y1736D02*
X8Y1736D01*
X256Y1736D02*
X263Y1736D01*
X1348Y1736D02*
X1355Y1736D01*
X1614Y1736D02*
X1621Y1736D01*
X1Y1735D02*
X8Y1735D01*
X256Y1735D02*
X263Y1735D01*
X1348Y1735D02*
X1355Y1735D01*
X1614Y1735D02*
X1621Y1735D01*
X1Y1734D02*
X8Y1734D01*
X256Y1734D02*
X263Y1734D01*
X1348Y1734D02*
X1355Y1734D01*
X1614Y1734D02*
X1621Y1734D01*
X1Y1733D02*
X8Y1733D01*
X256Y1733D02*
X263Y1733D01*
X1348Y1733D02*
X1355Y1733D01*
X1614Y1733D02*
X1621Y1733D01*
X1Y1732D02*
X8Y1732D01*
X256Y1732D02*
X263Y1732D01*
X1348Y1732D02*
X1355Y1732D01*
X1614Y1732D02*
X1621Y1732D01*
X1Y1731D02*
X8Y1731D01*
X256Y1731D02*
X263Y1731D01*
X1348Y1731D02*
X1355Y1731D01*
X1614Y1731D02*
X1621Y1731D01*
X1Y1730D02*
X8Y1730D01*
X256Y1730D02*
X263Y1730D01*
X1348Y1730D02*
X1355Y1730D01*
X1614Y1730D02*
X1621Y1730D01*
X1Y1729D02*
X8Y1729D01*
X256Y1729D02*
X263Y1729D01*
X1348Y1729D02*
X1355Y1729D01*
X1614Y1729D02*
X1621Y1729D01*
X1Y1728D02*
X8Y1728D01*
X256Y1728D02*
X263Y1728D01*
X1348Y1728D02*
X1355Y1728D01*
X1614Y1728D02*
X1621Y1728D01*
X1Y1727D02*
X8Y1727D01*
X256Y1727D02*
X263Y1727D01*
X1348Y1727D02*
X1355Y1727D01*
X1614Y1727D02*
X1621Y1727D01*
X1Y1726D02*
X8Y1726D01*
X256Y1726D02*
X263Y1726D01*
X1348Y1726D02*
X1355Y1726D01*
X1614Y1726D02*
X1621Y1726D01*
X1Y1725D02*
X8Y1725D01*
X256Y1725D02*
X263Y1725D01*
X1348Y1725D02*
X1355Y1725D01*
X1614Y1725D02*
X1621Y1725D01*
X1Y1724D02*
X8Y1724D01*
X256Y1724D02*
X263Y1724D01*
X1348Y1724D02*
X1355Y1724D01*
X1614Y1724D02*
X1621Y1724D01*
X1Y1723D02*
X8Y1723D01*
X256Y1723D02*
X263Y1723D01*
X1348Y1723D02*
X1355Y1723D01*
X1614Y1723D02*
X1621Y1723D01*
X1Y1722D02*
X8Y1722D01*
X256Y1722D02*
X263Y1722D01*
X1348Y1722D02*
X1355Y1722D01*
X1614Y1722D02*
X1621Y1722D01*
X1Y1721D02*
X8Y1721D01*
X256Y1721D02*
X263Y1721D01*
X1348Y1721D02*
X1355Y1721D01*
X1614Y1721D02*
X1621Y1721D01*
X1Y1720D02*
X8Y1720D01*
X256Y1720D02*
X263Y1720D01*
X1348Y1720D02*
X1355Y1720D01*
X1614Y1720D02*
X1621Y1720D01*
X1Y1719D02*
X8Y1719D01*
X256Y1719D02*
X263Y1719D01*
X1348Y1719D02*
X1355Y1719D01*
X1614Y1719D02*
X1621Y1719D01*
X1Y1718D02*
X8Y1718D01*
X256Y1718D02*
X263Y1718D01*
X1348Y1718D02*
X1355Y1718D01*
X1614Y1718D02*
X1621Y1718D01*
X1Y1717D02*
X8Y1717D01*
X256Y1717D02*
X263Y1717D01*
X1348Y1717D02*
X1355Y1717D01*
X1614Y1717D02*
X1621Y1717D01*
X1Y1716D02*
X8Y1716D01*
X256Y1716D02*
X263Y1716D01*
X1348Y1716D02*
X1355Y1716D01*
X1614Y1716D02*
X1621Y1716D01*
X1Y1715D02*
X8Y1715D01*
X256Y1715D02*
X263Y1715D01*
X1348Y1715D02*
X1355Y1715D01*
X1614Y1715D02*
X1621Y1715D01*
X1Y1714D02*
X8Y1714D01*
X256Y1714D02*
X263Y1714D01*
X1348Y1714D02*
X1355Y1714D01*
X1614Y1714D02*
X1621Y1714D01*
X1Y1713D02*
X8Y1713D01*
X256Y1713D02*
X263Y1713D01*
X1348Y1713D02*
X1355Y1713D01*
X1614Y1713D02*
X1621Y1713D01*
X1Y1712D02*
X8Y1712D01*
X256Y1712D02*
X263Y1712D01*
X1348Y1712D02*
X1355Y1712D01*
X1614Y1712D02*
X1621Y1712D01*
X1Y1711D02*
X8Y1711D01*
X256Y1711D02*
X263Y1711D01*
X1348Y1711D02*
X1355Y1711D01*
X1614Y1711D02*
X1621Y1711D01*
X1Y1710D02*
X8Y1710D01*
X256Y1710D02*
X263Y1710D01*
X1348Y1710D02*
X1355Y1710D01*
X1614Y1710D02*
X1621Y1710D01*
X1Y1709D02*
X8Y1709D01*
X256Y1709D02*
X263Y1709D01*
X1348Y1709D02*
X1355Y1709D01*
X1614Y1709D02*
X1621Y1709D01*
X1Y1708D02*
X8Y1708D01*
X256Y1708D02*
X263Y1708D01*
X1348Y1708D02*
X1355Y1708D01*
X1614Y1708D02*
X1621Y1708D01*
X1Y1707D02*
X8Y1707D01*
X256Y1707D02*
X263Y1707D01*
X1348Y1707D02*
X1355Y1707D01*
X1614Y1707D02*
X1621Y1707D01*
X1Y1706D02*
X8Y1706D01*
X256Y1706D02*
X263Y1706D01*
X1348Y1706D02*
X1355Y1706D01*
X1614Y1706D02*
X1621Y1706D01*
X1Y1705D02*
X8Y1705D01*
X256Y1705D02*
X263Y1705D01*
X1348Y1705D02*
X1355Y1705D01*
X1614Y1705D02*
X1621Y1705D01*
X1Y1704D02*
X8Y1704D01*
X256Y1704D02*
X263Y1704D01*
X1348Y1704D02*
X1355Y1704D01*
X1614Y1704D02*
X1621Y1704D01*
X1Y1703D02*
X8Y1703D01*
X256Y1703D02*
X263Y1703D01*
X1348Y1703D02*
X1355Y1703D01*
X1614Y1703D02*
X1621Y1703D01*
X1Y1702D02*
X8Y1702D01*
X256Y1702D02*
X263Y1702D01*
X1348Y1702D02*
X1355Y1702D01*
X1614Y1702D02*
X1621Y1702D01*
X1Y1701D02*
X8Y1701D01*
X256Y1701D02*
X263Y1701D01*
X1348Y1701D02*
X1355Y1701D01*
X1614Y1701D02*
X1621Y1701D01*
X1Y1700D02*
X8Y1700D01*
X256Y1700D02*
X263Y1700D01*
X1348Y1700D02*
X1355Y1700D01*
X1614Y1700D02*
X1621Y1700D01*
X1Y1699D02*
X8Y1699D01*
X256Y1699D02*
X263Y1699D01*
X1348Y1699D02*
X1355Y1699D01*
X1614Y1699D02*
X1621Y1699D01*
X1Y1698D02*
X8Y1698D01*
X256Y1698D02*
X263Y1698D01*
X1348Y1698D02*
X1355Y1698D01*
X1614Y1698D02*
X1621Y1698D01*
X1Y1697D02*
X8Y1697D01*
X256Y1697D02*
X263Y1697D01*
X1348Y1697D02*
X1355Y1697D01*
X1614Y1697D02*
X1621Y1697D01*
X1Y1696D02*
X8Y1696D01*
X256Y1696D02*
X263Y1696D01*
X1348Y1696D02*
X1355Y1696D01*
X1614Y1696D02*
X1621Y1696D01*
X1Y1695D02*
X8Y1695D01*
X256Y1695D02*
X263Y1695D01*
X1348Y1695D02*
X1355Y1695D01*
X1614Y1695D02*
X1621Y1695D01*
X1Y1694D02*
X8Y1694D01*
X256Y1694D02*
X263Y1694D01*
X1348Y1694D02*
X1355Y1694D01*
X1614Y1694D02*
X1621Y1694D01*
X1Y1693D02*
X8Y1693D01*
X256Y1693D02*
X263Y1693D01*
X1348Y1693D02*
X1355Y1693D01*
X1614Y1693D02*
X1621Y1693D01*
X1Y1692D02*
X8Y1692D01*
X256Y1692D02*
X263Y1692D01*
X1348Y1692D02*
X1355Y1692D01*
X1614Y1692D02*
X1621Y1692D01*
X1Y1691D02*
X8Y1691D01*
X256Y1691D02*
X263Y1691D01*
X1348Y1691D02*
X1355Y1691D01*
X1614Y1691D02*
X1621Y1691D01*
X1Y1690D02*
X8Y1690D01*
X256Y1690D02*
X263Y1690D01*
X1348Y1690D02*
X1355Y1690D01*
X1614Y1690D02*
X1621Y1690D01*
X1Y1689D02*
X8Y1689D01*
X256Y1689D02*
X263Y1689D01*
X1348Y1689D02*
X1355Y1689D01*
X1614Y1689D02*
X1621Y1689D01*
X1Y1688D02*
X8Y1688D01*
X256Y1688D02*
X263Y1688D01*
X1348Y1688D02*
X1355Y1688D01*
X1614Y1688D02*
X1621Y1688D01*
X1Y1687D02*
X8Y1687D01*
X256Y1687D02*
X263Y1687D01*
X1348Y1687D02*
X1355Y1687D01*
X1614Y1687D02*
X1621Y1687D01*
X1Y1686D02*
X8Y1686D01*
X256Y1686D02*
X263Y1686D01*
X1348Y1686D02*
X1355Y1686D01*
X1614Y1686D02*
X1621Y1686D01*
X1Y1685D02*
X8Y1685D01*
X256Y1685D02*
X263Y1685D01*
X1348Y1685D02*
X1355Y1685D01*
X1614Y1685D02*
X1621Y1685D01*
X1Y1684D02*
X8Y1684D01*
X256Y1684D02*
X263Y1684D01*
X1348Y1684D02*
X1355Y1684D01*
X1614Y1684D02*
X1621Y1684D01*
X1Y1683D02*
X8Y1683D01*
X256Y1683D02*
X263Y1683D01*
X1348Y1683D02*
X1355Y1683D01*
X1614Y1683D02*
X1621Y1683D01*
X1Y1682D02*
X8Y1682D01*
X256Y1682D02*
X263Y1682D01*
X1348Y1682D02*
X1355Y1682D01*
X1614Y1682D02*
X1621Y1682D01*
X1Y1681D02*
X8Y1681D01*
X256Y1681D02*
X263Y1681D01*
X1348Y1681D02*
X1355Y1681D01*
X1614Y1681D02*
X1621Y1681D01*
X1Y1680D02*
X8Y1680D01*
X256Y1680D02*
X263Y1680D01*
X1348Y1680D02*
X1355Y1680D01*
X1614Y1680D02*
X1621Y1680D01*
X1Y1679D02*
X8Y1679D01*
X256Y1679D02*
X263Y1679D01*
X1348Y1679D02*
X1355Y1679D01*
X1614Y1679D02*
X1621Y1679D01*
X1Y1678D02*
X8Y1678D01*
X256Y1678D02*
X263Y1678D01*
X1348Y1678D02*
X1355Y1678D01*
X1614Y1678D02*
X1621Y1678D01*
X1Y1677D02*
X8Y1677D01*
X256Y1677D02*
X263Y1677D01*
X1348Y1677D02*
X1355Y1677D01*
X1614Y1677D02*
X1621Y1677D01*
X1Y1676D02*
X8Y1676D01*
X256Y1676D02*
X263Y1676D01*
X1348Y1676D02*
X1355Y1676D01*
X1614Y1676D02*
X1621Y1676D01*
X1Y1675D02*
X8Y1675D01*
X256Y1675D02*
X263Y1675D01*
X1348Y1675D02*
X1355Y1675D01*
X1614Y1675D02*
X1621Y1675D01*
X1Y1674D02*
X8Y1674D01*
X256Y1674D02*
X263Y1674D01*
X1348Y1674D02*
X1355Y1674D01*
X1614Y1674D02*
X1621Y1674D01*
X1Y1673D02*
X8Y1673D01*
X256Y1673D02*
X263Y1673D01*
X1348Y1673D02*
X1355Y1673D01*
X1614Y1673D02*
X1621Y1673D01*
X1Y1672D02*
X8Y1672D01*
X256Y1672D02*
X263Y1672D01*
X1348Y1672D02*
X1355Y1672D01*
X1614Y1672D02*
X1621Y1672D01*
X1Y1671D02*
X8Y1671D01*
X256Y1671D02*
X263Y1671D01*
X1348Y1671D02*
X1355Y1671D01*
X1614Y1671D02*
X1621Y1671D01*
X1Y1670D02*
X8Y1670D01*
X256Y1670D02*
X263Y1670D01*
X1348Y1670D02*
X1355Y1670D01*
X1614Y1670D02*
X1621Y1670D01*
X1Y1669D02*
X8Y1669D01*
X256Y1669D02*
X263Y1669D01*
X1348Y1669D02*
X1355Y1669D01*
X1614Y1669D02*
X1621Y1669D01*
X1Y1668D02*
X8Y1668D01*
X256Y1668D02*
X263Y1668D01*
X1348Y1668D02*
X1355Y1668D01*
X1614Y1668D02*
X1621Y1668D01*
X1Y1667D02*
X8Y1667D01*
X256Y1667D02*
X263Y1667D01*
X1348Y1667D02*
X1355Y1667D01*
X1614Y1667D02*
X1621Y1667D01*
X1Y1666D02*
X8Y1666D01*
X256Y1666D02*
X263Y1666D01*
X1348Y1666D02*
X1355Y1666D01*
X1614Y1666D02*
X1621Y1666D01*
X1Y1665D02*
X8Y1665D01*
X256Y1665D02*
X263Y1665D01*
X1348Y1665D02*
X1355Y1665D01*
X1614Y1665D02*
X1621Y1665D01*
X1Y1664D02*
X8Y1664D01*
X256Y1664D02*
X263Y1664D01*
X1348Y1664D02*
X1355Y1664D01*
X1614Y1664D02*
X1621Y1664D01*
X1Y1663D02*
X8Y1663D01*
X256Y1663D02*
X263Y1663D01*
X1348Y1663D02*
X1355Y1663D01*
X1614Y1663D02*
X1621Y1663D01*
X1Y1662D02*
X8Y1662D01*
X256Y1662D02*
X263Y1662D01*
X1348Y1662D02*
X1355Y1662D01*
X1614Y1662D02*
X1621Y1662D01*
X1Y1661D02*
X8Y1661D01*
X256Y1661D02*
X263Y1661D01*
X1348Y1661D02*
X1355Y1661D01*
X1614Y1661D02*
X1621Y1661D01*
X1Y1660D02*
X8Y1660D01*
X256Y1660D02*
X263Y1660D01*
X1348Y1660D02*
X1355Y1660D01*
X1614Y1660D02*
X1621Y1660D01*
X1Y1659D02*
X8Y1659D01*
X256Y1659D02*
X263Y1659D01*
X1348Y1659D02*
X1355Y1659D01*
X1614Y1659D02*
X1621Y1659D01*
X1Y1658D02*
X8Y1658D01*
X256Y1658D02*
X263Y1658D01*
X1348Y1658D02*
X1355Y1658D01*
X1614Y1658D02*
X1621Y1658D01*
X1Y1657D02*
X8Y1657D01*
X256Y1657D02*
X263Y1657D01*
X1348Y1657D02*
X1355Y1657D01*
X1614Y1657D02*
X1621Y1657D01*
X1Y1656D02*
X8Y1656D01*
X256Y1656D02*
X263Y1656D01*
X1348Y1656D02*
X1355Y1656D01*
X1614Y1656D02*
X1621Y1656D01*
X1Y1655D02*
X8Y1655D01*
X256Y1655D02*
X263Y1655D01*
X1348Y1655D02*
X1355Y1655D01*
X1614Y1655D02*
X1621Y1655D01*
X1Y1654D02*
X8Y1654D01*
X256Y1654D02*
X263Y1654D01*
X1348Y1654D02*
X1355Y1654D01*
X1614Y1654D02*
X1621Y1654D01*
X1Y1653D02*
X8Y1653D01*
X256Y1653D02*
X263Y1653D01*
X1348Y1653D02*
X1355Y1653D01*
X1614Y1653D02*
X1621Y1653D01*
X1Y1652D02*
X8Y1652D01*
X256Y1652D02*
X263Y1652D01*
X1348Y1652D02*
X1355Y1652D01*
X1614Y1652D02*
X1621Y1652D01*
X1Y1651D02*
X8Y1651D01*
X256Y1651D02*
X263Y1651D01*
X1348Y1651D02*
X1355Y1651D01*
X1614Y1651D02*
X1621Y1651D01*
X1Y1650D02*
X8Y1650D01*
X256Y1650D02*
X263Y1650D01*
X1348Y1650D02*
X1355Y1650D01*
X1614Y1650D02*
X1621Y1650D01*
X1Y1649D02*
X8Y1649D01*
X256Y1649D02*
X263Y1649D01*
X1348Y1649D02*
X1355Y1649D01*
X1614Y1649D02*
X1621Y1649D01*
X1Y1648D02*
X8Y1648D01*
X256Y1648D02*
X263Y1648D01*
X1348Y1648D02*
X1355Y1648D01*
X1614Y1648D02*
X1621Y1648D01*
X1Y1647D02*
X8Y1647D01*
X256Y1647D02*
X263Y1647D01*
X1348Y1647D02*
X1355Y1647D01*
X1614Y1647D02*
X1621Y1647D01*
X1Y1646D02*
X8Y1646D01*
X256Y1646D02*
X263Y1646D01*
X1348Y1646D02*
X1355Y1646D01*
X1614Y1646D02*
X1621Y1646D01*
X1Y1645D02*
X8Y1645D01*
X256Y1645D02*
X263Y1645D01*
X1348Y1645D02*
X1355Y1645D01*
X1614Y1645D02*
X1621Y1645D01*
X1Y1644D02*
X8Y1644D01*
X256Y1644D02*
X263Y1644D01*
X1348Y1644D02*
X1355Y1644D01*
X1614Y1644D02*
X1621Y1644D01*
X1Y1643D02*
X8Y1643D01*
X256Y1643D02*
X263Y1643D01*
X1348Y1643D02*
X1355Y1643D01*
X1614Y1643D02*
X1621Y1643D01*
X1Y1642D02*
X8Y1642D01*
X256Y1642D02*
X263Y1642D01*
X1348Y1642D02*
X1355Y1642D01*
X1614Y1642D02*
X1621Y1642D01*
X1Y1641D02*
X8Y1641D01*
X256Y1641D02*
X263Y1641D01*
X1348Y1641D02*
X1355Y1641D01*
X1614Y1641D02*
X1621Y1641D01*
X1Y1640D02*
X8Y1640D01*
X256Y1640D02*
X263Y1640D01*
X1348Y1640D02*
X1355Y1640D01*
X1614Y1640D02*
X1621Y1640D01*
X1Y1639D02*
X8Y1639D01*
X256Y1639D02*
X263Y1639D01*
X1348Y1639D02*
X1355Y1639D01*
X1614Y1639D02*
X1621Y1639D01*
X1Y1638D02*
X8Y1638D01*
X256Y1638D02*
X263Y1638D01*
X1348Y1638D02*
X1355Y1638D01*
X1614Y1638D02*
X1621Y1638D01*
X1Y1637D02*
X8Y1637D01*
X256Y1637D02*
X263Y1637D01*
X1348Y1637D02*
X1355Y1637D01*
X1614Y1637D02*
X1621Y1637D01*
X1Y1636D02*
X8Y1636D01*
X256Y1636D02*
X263Y1636D01*
X1348Y1636D02*
X1355Y1636D01*
X1614Y1636D02*
X1621Y1636D01*
X1Y1635D02*
X8Y1635D01*
X256Y1635D02*
X263Y1635D01*
X1348Y1635D02*
X1355Y1635D01*
X1614Y1635D02*
X1621Y1635D01*
X1Y1634D02*
X8Y1634D01*
X256Y1634D02*
X263Y1634D01*
X1348Y1634D02*
X1355Y1634D01*
X1614Y1634D02*
X1621Y1634D01*
X1Y1633D02*
X8Y1633D01*
X256Y1633D02*
X263Y1633D01*
X1348Y1633D02*
X1355Y1633D01*
X1614Y1633D02*
X1621Y1633D01*
X1Y1632D02*
X8Y1632D01*
X256Y1632D02*
X263Y1632D01*
X1348Y1632D02*
X1355Y1632D01*
X1614Y1632D02*
X1621Y1632D01*
X1Y1631D02*
X8Y1631D01*
X256Y1631D02*
X263Y1631D01*
X1348Y1631D02*
X1355Y1631D01*
X1614Y1631D02*
X1621Y1631D01*
X1Y1630D02*
X8Y1630D01*
X256Y1630D02*
X263Y1630D01*
X1348Y1630D02*
X1355Y1630D01*
X1614Y1630D02*
X1621Y1630D01*
X1Y1629D02*
X8Y1629D01*
X256Y1629D02*
X263Y1629D01*
X1348Y1629D02*
X1355Y1629D01*
X1614Y1629D02*
X1621Y1629D01*
X1Y1628D02*
X8Y1628D01*
X256Y1628D02*
X263Y1628D01*
X1348Y1628D02*
X1355Y1628D01*
X1614Y1628D02*
X1621Y1628D01*
X1Y1627D02*
X8Y1627D01*
X256Y1627D02*
X263Y1627D01*
X1348Y1627D02*
X1355Y1627D01*
X1614Y1627D02*
X1621Y1627D01*
X1Y1626D02*
X8Y1626D01*
X256Y1626D02*
X263Y1626D01*
X1348Y1626D02*
X1355Y1626D01*
X1614Y1626D02*
X1621Y1626D01*
X1Y1625D02*
X8Y1625D01*
X256Y1625D02*
X263Y1625D01*
X1348Y1625D02*
X1355Y1625D01*
X1614Y1625D02*
X1621Y1625D01*
X1Y1624D02*
X8Y1624D01*
X256Y1624D02*
X263Y1624D01*
X1348Y1624D02*
X1355Y1624D01*
X1614Y1624D02*
X1621Y1624D01*
X1Y1623D02*
X8Y1623D01*
X256Y1623D02*
X263Y1623D01*
X1348Y1623D02*
X1355Y1623D01*
X1614Y1623D02*
X1621Y1623D01*
X1Y1622D02*
X8Y1622D01*
X256Y1622D02*
X263Y1622D01*
X1348Y1622D02*
X1355Y1622D01*
X1614Y1622D02*
X1621Y1622D01*
X1Y1621D02*
X8Y1621D01*
X256Y1621D02*
X263Y1621D01*
X1348Y1621D02*
X1355Y1621D01*
X1614Y1621D02*
X1621Y1621D01*
X1Y1620D02*
X8Y1620D01*
X256Y1620D02*
X263Y1620D01*
X1348Y1620D02*
X1355Y1620D01*
X1614Y1620D02*
X1621Y1620D01*
X1Y1619D02*
X8Y1619D01*
X256Y1619D02*
X263Y1619D01*
X1348Y1619D02*
X1355Y1619D01*
X1614Y1619D02*
X1621Y1619D01*
X1Y1618D02*
X8Y1618D01*
X256Y1618D02*
X263Y1618D01*
X1348Y1618D02*
X1355Y1618D01*
X1614Y1618D02*
X1621Y1618D01*
X1Y1617D02*
X8Y1617D01*
X256Y1617D02*
X263Y1617D01*
X1348Y1617D02*
X1355Y1617D01*
X1614Y1617D02*
X1621Y1617D01*
X1Y1616D02*
X8Y1616D01*
X256Y1616D02*
X263Y1616D01*
X1348Y1616D02*
X1355Y1616D01*
X1614Y1616D02*
X1621Y1616D01*
X1Y1615D02*
X8Y1615D01*
X256Y1615D02*
X263Y1615D01*
X1348Y1615D02*
X1355Y1615D01*
X1614Y1615D02*
X1621Y1615D01*
X1Y1614D02*
X8Y1614D01*
X256Y1614D02*
X263Y1614D01*
X1348Y1614D02*
X1355Y1614D01*
X1614Y1614D02*
X1621Y1614D01*
X1Y1613D02*
X8Y1613D01*
X256Y1613D02*
X263Y1613D01*
X1348Y1613D02*
X1355Y1613D01*
X1614Y1613D02*
X1621Y1613D01*
X1Y1612D02*
X8Y1612D01*
X256Y1612D02*
X263Y1612D01*
X1348Y1612D02*
X1355Y1612D01*
X1614Y1612D02*
X1621Y1612D01*
X1Y1611D02*
X8Y1611D01*
X256Y1611D02*
X263Y1611D01*
X1348Y1611D02*
X1355Y1611D01*
X1614Y1611D02*
X1621Y1611D01*
X1Y1610D02*
X8Y1610D01*
X256Y1610D02*
X263Y1610D01*
X1348Y1610D02*
X1355Y1610D01*
X1614Y1610D02*
X1621Y1610D01*
X1Y1609D02*
X8Y1609D01*
X256Y1609D02*
X263Y1609D01*
X1348Y1609D02*
X1355Y1609D01*
X1614Y1609D02*
X1621Y1609D01*
X1Y1608D02*
X8Y1608D01*
X256Y1608D02*
X263Y1608D01*
X1348Y1608D02*
X1355Y1608D01*
X1614Y1608D02*
X1621Y1608D01*
X1Y1607D02*
X8Y1607D01*
X256Y1607D02*
X263Y1607D01*
X1348Y1607D02*
X1355Y1607D01*
X1614Y1607D02*
X1621Y1607D01*
X1Y1606D02*
X8Y1606D01*
X256Y1606D02*
X263Y1606D01*
X1348Y1606D02*
X1355Y1606D01*
X1614Y1606D02*
X1621Y1606D01*
X1Y1605D02*
X8Y1605D01*
X256Y1605D02*
X263Y1605D01*
X1348Y1605D02*
X1355Y1605D01*
X1614Y1605D02*
X1621Y1605D01*
X1Y1604D02*
X8Y1604D01*
X256Y1604D02*
X263Y1604D01*
X1348Y1604D02*
X1355Y1604D01*
X1614Y1604D02*
X1621Y1604D01*
X1Y1603D02*
X8Y1603D01*
X256Y1603D02*
X263Y1603D01*
X1348Y1603D02*
X1355Y1603D01*
X1614Y1603D02*
X1621Y1603D01*
X1Y1602D02*
X8Y1602D01*
X256Y1602D02*
X263Y1602D01*
X1348Y1602D02*
X1355Y1602D01*
X1614Y1602D02*
X1621Y1602D01*
X1Y1601D02*
X8Y1601D01*
X256Y1601D02*
X263Y1601D01*
X1348Y1601D02*
X1355Y1601D01*
X1614Y1601D02*
X1621Y1601D01*
X1Y1600D02*
X8Y1600D01*
X256Y1600D02*
X263Y1600D01*
X1348Y1600D02*
X1355Y1600D01*
X1614Y1600D02*
X1621Y1600D01*
X1Y1599D02*
X8Y1599D01*
X256Y1599D02*
X263Y1599D01*
X1348Y1599D02*
X1355Y1599D01*
X1614Y1599D02*
X1621Y1599D01*
X1Y1598D02*
X8Y1598D01*
X256Y1598D02*
X263Y1598D01*
X1348Y1598D02*
X1355Y1598D01*
X1614Y1598D02*
X1621Y1598D01*
X1Y1597D02*
X8Y1597D01*
X256Y1597D02*
X263Y1597D01*
X1348Y1597D02*
X1355Y1597D01*
X1614Y1597D02*
X1621Y1597D01*
X1Y1596D02*
X8Y1596D01*
X256Y1596D02*
X263Y1596D01*
X1348Y1596D02*
X1355Y1596D01*
X1614Y1596D02*
X1621Y1596D01*
X1Y1595D02*
X8Y1595D01*
X256Y1595D02*
X263Y1595D01*
X1348Y1595D02*
X1355Y1595D01*
X1614Y1595D02*
X1621Y1595D01*
X1Y1594D02*
X8Y1594D01*
X256Y1594D02*
X263Y1594D01*
X1348Y1594D02*
X1355Y1594D01*
X1614Y1594D02*
X1621Y1594D01*
X1Y1593D02*
X8Y1593D01*
X256Y1593D02*
X263Y1593D01*
X1348Y1593D02*
X1355Y1593D01*
X1614Y1593D02*
X1621Y1593D01*
X1Y1592D02*
X8Y1592D01*
X256Y1592D02*
X263Y1592D01*
X1348Y1592D02*
X1355Y1592D01*
X1614Y1592D02*
X1621Y1592D01*
X1Y1591D02*
X8Y1591D01*
X256Y1591D02*
X263Y1591D01*
X1348Y1591D02*
X1355Y1591D01*
X1614Y1591D02*
X1621Y1591D01*
X1Y1590D02*
X8Y1590D01*
X256Y1590D02*
X263Y1590D01*
X1348Y1590D02*
X1355Y1590D01*
X1614Y1590D02*
X1621Y1590D01*
X1Y1589D02*
X8Y1589D01*
X256Y1589D02*
X263Y1589D01*
X1348Y1589D02*
X1355Y1589D01*
X1614Y1589D02*
X1621Y1589D01*
X1Y1588D02*
X8Y1588D01*
X256Y1588D02*
X263Y1588D01*
X1348Y1588D02*
X1355Y1588D01*
X1614Y1588D02*
X1621Y1588D01*
X1Y1587D02*
X8Y1587D01*
X256Y1587D02*
X263Y1587D01*
X1348Y1587D02*
X1355Y1587D01*
X1614Y1587D02*
X1621Y1587D01*
X1Y1586D02*
X8Y1586D01*
X256Y1586D02*
X263Y1586D01*
X1348Y1586D02*
X1355Y1586D01*
X1614Y1586D02*
X1621Y1586D01*
X1Y1585D02*
X8Y1585D01*
X256Y1585D02*
X263Y1585D01*
X1348Y1585D02*
X1355Y1585D01*
X1614Y1585D02*
X1621Y1585D01*
X1Y1584D02*
X8Y1584D01*
X256Y1584D02*
X263Y1584D01*
X1348Y1584D02*
X1355Y1584D01*
X1614Y1584D02*
X1621Y1584D01*
X1Y1583D02*
X8Y1583D01*
X256Y1583D02*
X263Y1583D01*
X1348Y1583D02*
X1355Y1583D01*
X1614Y1583D02*
X1621Y1583D01*
X1Y1582D02*
X8Y1582D01*
X256Y1582D02*
X263Y1582D01*
X1348Y1582D02*
X1355Y1582D01*
X1614Y1582D02*
X1621Y1582D01*
X1Y1581D02*
X8Y1581D01*
X256Y1581D02*
X263Y1581D01*
X1348Y1581D02*
X1355Y1581D01*
X1614Y1581D02*
X1621Y1581D01*
X1Y1580D02*
X8Y1580D01*
X256Y1580D02*
X263Y1580D01*
X1348Y1580D02*
X1355Y1580D01*
X1614Y1580D02*
X1621Y1580D01*
X1Y1579D02*
X8Y1579D01*
X256Y1579D02*
X263Y1579D01*
X1348Y1579D02*
X1355Y1579D01*
X1614Y1579D02*
X1621Y1579D01*
X1Y1578D02*
X8Y1578D01*
X256Y1578D02*
X263Y1578D01*
X1348Y1578D02*
X1355Y1578D01*
X1614Y1578D02*
X1621Y1578D01*
X1Y1577D02*
X8Y1577D01*
X256Y1577D02*
X263Y1577D01*
X1348Y1577D02*
X1355Y1577D01*
X1614Y1577D02*
X1621Y1577D01*
X1Y1576D02*
X8Y1576D01*
X256Y1576D02*
X263Y1576D01*
X1348Y1576D02*
X1355Y1576D01*
X1614Y1576D02*
X1621Y1576D01*
X1Y1575D02*
X8Y1575D01*
X256Y1575D02*
X263Y1575D01*
X1348Y1575D02*
X1355Y1575D01*
X1614Y1575D02*
X1621Y1575D01*
X1Y1574D02*
X8Y1574D01*
X256Y1574D02*
X263Y1574D01*
X1348Y1574D02*
X1355Y1574D01*
X1614Y1574D02*
X1621Y1574D01*
X1Y1573D02*
X8Y1573D01*
X256Y1573D02*
X263Y1573D01*
X1348Y1573D02*
X1355Y1573D01*
X1614Y1573D02*
X1621Y1573D01*
X1Y1572D02*
X8Y1572D01*
X256Y1572D02*
X263Y1572D01*
X1348Y1572D02*
X1355Y1572D01*
X1614Y1572D02*
X1621Y1572D01*
X1Y1571D02*
X8Y1571D01*
X256Y1571D02*
X263Y1571D01*
X1348Y1571D02*
X1355Y1571D01*
X1614Y1571D02*
X1621Y1571D01*
X1Y1570D02*
X8Y1570D01*
X256Y1570D02*
X263Y1570D01*
X1348Y1570D02*
X1355Y1570D01*
X1614Y1570D02*
X1621Y1570D01*
X1Y1569D02*
X8Y1569D01*
X256Y1569D02*
X263Y1569D01*
X1348Y1569D02*
X1355Y1569D01*
X1614Y1569D02*
X1621Y1569D01*
X1Y1568D02*
X8Y1568D01*
X256Y1568D02*
X263Y1568D01*
X1348Y1568D02*
X1355Y1568D01*
X1614Y1568D02*
X1621Y1568D01*
X1Y1567D02*
X8Y1567D01*
X256Y1567D02*
X263Y1567D01*
X1348Y1567D02*
X1355Y1567D01*
X1614Y1567D02*
X1621Y1567D01*
X1Y1566D02*
X8Y1566D01*
X256Y1566D02*
X263Y1566D01*
X1348Y1566D02*
X1355Y1566D01*
X1614Y1566D02*
X1621Y1566D01*
X1Y1565D02*
X8Y1565D01*
X256Y1565D02*
X263Y1565D01*
X1348Y1565D02*
X1355Y1565D01*
X1614Y1565D02*
X1621Y1565D01*
X1Y1564D02*
X8Y1564D01*
X256Y1564D02*
X263Y1564D01*
X1348Y1564D02*
X1355Y1564D01*
X1614Y1564D02*
X1621Y1564D01*
X1Y1563D02*
X8Y1563D01*
X256Y1563D02*
X263Y1563D01*
X1348Y1563D02*
X1355Y1563D01*
X1614Y1563D02*
X1621Y1563D01*
X1Y1562D02*
X8Y1562D01*
X256Y1562D02*
X263Y1562D01*
X1348Y1562D02*
X1355Y1562D01*
X1614Y1562D02*
X1621Y1562D01*
X1Y1561D02*
X8Y1561D01*
X256Y1561D02*
X263Y1561D01*
X1348Y1561D02*
X1355Y1561D01*
X1614Y1561D02*
X1621Y1561D01*
X1Y1560D02*
X8Y1560D01*
X256Y1560D02*
X263Y1560D01*
X1348Y1560D02*
X1355Y1560D01*
X1614Y1560D02*
X1621Y1560D01*
X1Y1559D02*
X8Y1559D01*
X256Y1559D02*
X263Y1559D01*
X1348Y1559D02*
X1355Y1559D01*
X1614Y1559D02*
X1621Y1559D01*
X1Y1558D02*
X8Y1558D01*
X256Y1558D02*
X263Y1558D01*
X1348Y1558D02*
X1355Y1558D01*
X1614Y1558D02*
X1621Y1558D01*
X1Y1557D02*
X8Y1557D01*
X256Y1557D02*
X263Y1557D01*
X1348Y1557D02*
X1355Y1557D01*
X1614Y1557D02*
X1621Y1557D01*
X1Y1556D02*
X8Y1556D01*
X256Y1556D02*
X263Y1556D01*
X1348Y1556D02*
X1355Y1556D01*
X1614Y1556D02*
X1621Y1556D01*
X1Y1555D02*
X8Y1555D01*
X256Y1555D02*
X263Y1555D01*
X1348Y1555D02*
X1355Y1555D01*
X1614Y1555D02*
X1621Y1555D01*
X1Y1554D02*
X8Y1554D01*
X256Y1554D02*
X263Y1554D01*
X1348Y1554D02*
X1355Y1554D01*
X1614Y1554D02*
X1621Y1554D01*
X1Y1553D02*
X8Y1553D01*
X256Y1553D02*
X263Y1553D01*
X1348Y1553D02*
X1355Y1553D01*
X1614Y1553D02*
X1621Y1553D01*
X1Y1552D02*
X8Y1552D01*
X256Y1552D02*
X263Y1552D01*
X1348Y1552D02*
X1355Y1552D01*
X1614Y1552D02*
X1621Y1552D01*
X1Y1551D02*
X8Y1551D01*
X256Y1551D02*
X263Y1551D01*
X1348Y1551D02*
X1355Y1551D01*
X1614Y1551D02*
X1621Y1551D01*
X1Y1550D02*
X8Y1550D01*
X256Y1550D02*
X263Y1550D01*
X1348Y1550D02*
X1355Y1550D01*
X1614Y1550D02*
X1621Y1550D01*
X1Y1549D02*
X8Y1549D01*
X256Y1549D02*
X263Y1549D01*
X1348Y1549D02*
X1355Y1549D01*
X1614Y1549D02*
X1621Y1549D01*
X1Y1548D02*
X8Y1548D01*
X256Y1548D02*
X263Y1548D01*
X1348Y1548D02*
X1355Y1548D01*
X1614Y1548D02*
X1621Y1548D01*
X1Y1547D02*
X8Y1547D01*
X256Y1547D02*
X263Y1547D01*
X1348Y1547D02*
X1355Y1547D01*
X1614Y1547D02*
X1621Y1547D01*
X1Y1546D02*
X8Y1546D01*
X256Y1546D02*
X263Y1546D01*
X1348Y1546D02*
X1355Y1546D01*
X1614Y1546D02*
X1621Y1546D01*
X1Y1545D02*
X8Y1545D01*
X256Y1545D02*
X263Y1545D01*
X1348Y1545D02*
X1355Y1545D01*
X1614Y1545D02*
X1621Y1545D01*
X1Y1544D02*
X8Y1544D01*
X256Y1544D02*
X263Y1544D01*
X1348Y1544D02*
X1355Y1544D01*
X1614Y1544D02*
X1621Y1544D01*
X1Y1543D02*
X8Y1543D01*
X256Y1543D02*
X263Y1543D01*
X1348Y1543D02*
X1355Y1543D01*
X1614Y1543D02*
X1621Y1543D01*
X1Y1542D02*
X8Y1542D01*
X256Y1542D02*
X263Y1542D01*
X1348Y1542D02*
X1355Y1542D01*
X1614Y1542D02*
X1621Y1542D01*
X1Y1541D02*
X8Y1541D01*
X256Y1541D02*
X263Y1541D01*
X1348Y1541D02*
X1355Y1541D01*
X1614Y1541D02*
X1621Y1541D01*
X1Y1540D02*
X8Y1540D01*
X256Y1540D02*
X263Y1540D01*
X1348Y1540D02*
X1355Y1540D01*
X1614Y1540D02*
X1621Y1540D01*
X1Y1539D02*
X8Y1539D01*
X256Y1539D02*
X263Y1539D01*
X1348Y1539D02*
X1355Y1539D01*
X1614Y1539D02*
X1621Y1539D01*
X1Y1538D02*
X8Y1538D01*
X256Y1538D02*
X263Y1538D01*
X1348Y1538D02*
X1355Y1538D01*
X1614Y1538D02*
X1621Y1538D01*
X1Y1537D02*
X8Y1537D01*
X256Y1537D02*
X263Y1537D01*
X1348Y1537D02*
X1355Y1537D01*
X1614Y1537D02*
X1621Y1537D01*
X1Y1536D02*
X8Y1536D01*
X256Y1536D02*
X263Y1536D01*
X1348Y1536D02*
X1355Y1536D01*
X1614Y1536D02*
X1621Y1536D01*
X1Y1535D02*
X8Y1535D01*
X256Y1535D02*
X263Y1535D01*
X1348Y1535D02*
X1355Y1535D01*
X1614Y1535D02*
X1621Y1535D01*
X1Y1534D02*
X8Y1534D01*
X256Y1534D02*
X263Y1534D01*
X1348Y1534D02*
X1355Y1534D01*
X1614Y1534D02*
X1621Y1534D01*
X1Y1533D02*
X8Y1533D01*
X256Y1533D02*
X263Y1533D01*
X1348Y1533D02*
X1355Y1533D01*
X1614Y1533D02*
X1621Y1533D01*
X1Y1532D02*
X8Y1532D01*
X256Y1532D02*
X263Y1532D01*
X1348Y1532D02*
X1355Y1532D01*
X1614Y1532D02*
X1621Y1532D01*
X1Y1531D02*
X8Y1531D01*
X256Y1531D02*
X263Y1531D01*
X1348Y1531D02*
X1355Y1531D01*
X1614Y1531D02*
X1621Y1531D01*
X1Y1530D02*
X8Y1530D01*
X256Y1530D02*
X263Y1530D01*
X1348Y1530D02*
X1355Y1530D01*
X1614Y1530D02*
X1621Y1530D01*
X1Y1529D02*
X8Y1529D01*
X256Y1529D02*
X263Y1529D01*
X1348Y1529D02*
X1355Y1529D01*
X1614Y1529D02*
X1621Y1529D01*
X1Y1528D02*
X8Y1528D01*
X256Y1528D02*
X263Y1528D01*
X1348Y1528D02*
X1355Y1528D01*
X1614Y1528D02*
X1621Y1528D01*
X1Y1527D02*
X8Y1527D01*
X256Y1527D02*
X263Y1527D01*
X1348Y1527D02*
X1355Y1527D01*
X1614Y1527D02*
X1621Y1527D01*
X1Y1526D02*
X8Y1526D01*
X256Y1526D02*
X263Y1526D01*
X1348Y1526D02*
X1355Y1526D01*
X1614Y1526D02*
X1621Y1526D01*
X1Y1525D02*
X8Y1525D01*
X256Y1525D02*
X263Y1525D01*
X1348Y1525D02*
X1355Y1525D01*
X1614Y1525D02*
X1621Y1525D01*
X1Y1524D02*
X8Y1524D01*
X256Y1524D02*
X263Y1524D01*
X1348Y1524D02*
X1355Y1524D01*
X1614Y1524D02*
X1621Y1524D01*
X1Y1523D02*
X8Y1523D01*
X256Y1523D02*
X263Y1523D01*
X1348Y1523D02*
X1355Y1523D01*
X1614Y1523D02*
X1621Y1523D01*
X1Y1522D02*
X8Y1522D01*
X256Y1522D02*
X263Y1522D01*
X1348Y1522D02*
X1355Y1522D01*
X1614Y1522D02*
X1621Y1522D01*
X1Y1521D02*
X8Y1521D01*
X256Y1521D02*
X263Y1521D01*
X1348Y1521D02*
X1355Y1521D01*
X1614Y1521D02*
X1621Y1521D01*
X1Y1520D02*
X8Y1520D01*
X256Y1520D02*
X263Y1520D01*
X1348Y1520D02*
X1355Y1520D01*
X1614Y1520D02*
X1621Y1520D01*
X1Y1519D02*
X8Y1519D01*
X256Y1519D02*
X263Y1519D01*
X1348Y1519D02*
X1355Y1519D01*
X1614Y1519D02*
X1621Y1519D01*
X1Y1518D02*
X8Y1518D01*
X256Y1518D02*
X263Y1518D01*
X1348Y1518D02*
X1355Y1518D01*
X1614Y1518D02*
X1621Y1518D01*
X1Y1517D02*
X8Y1517D01*
X256Y1517D02*
X263Y1517D01*
X1348Y1517D02*
X1355Y1517D01*
X1614Y1517D02*
X1621Y1517D01*
X1Y1516D02*
X8Y1516D01*
X256Y1516D02*
X263Y1516D01*
X1348Y1516D02*
X1355Y1516D01*
X1614Y1516D02*
X1621Y1516D01*
X1Y1515D02*
X8Y1515D01*
X256Y1515D02*
X263Y1515D01*
X1348Y1515D02*
X1355Y1515D01*
X1614Y1515D02*
X1621Y1515D01*
X1Y1514D02*
X8Y1514D01*
X256Y1514D02*
X263Y1514D01*
X1348Y1514D02*
X1355Y1514D01*
X1614Y1514D02*
X1621Y1514D01*
X1Y1513D02*
X8Y1513D01*
X256Y1513D02*
X263Y1513D01*
X1348Y1513D02*
X1355Y1513D01*
X1614Y1513D02*
X1621Y1513D01*
X1Y1512D02*
X8Y1512D01*
X256Y1512D02*
X263Y1512D01*
X1348Y1512D02*
X1355Y1512D01*
X1614Y1512D02*
X1621Y1512D01*
X1Y1511D02*
X8Y1511D01*
X256Y1511D02*
X263Y1511D01*
X1348Y1511D02*
X1355Y1511D01*
X1614Y1511D02*
X1621Y1511D01*
X1Y1510D02*
X8Y1510D01*
X256Y1510D02*
X263Y1510D01*
X1348Y1510D02*
X1355Y1510D01*
X1614Y1510D02*
X1621Y1510D01*
X1Y1509D02*
X8Y1509D01*
X256Y1509D02*
X263Y1509D01*
X1348Y1509D02*
X1355Y1509D01*
X1614Y1509D02*
X1621Y1509D01*
X1Y1508D02*
X8Y1508D01*
X256Y1508D02*
X263Y1508D01*
X1348Y1508D02*
X1355Y1508D01*
X1614Y1508D02*
X1621Y1508D01*
X1Y1507D02*
X8Y1507D01*
X256Y1507D02*
X263Y1507D01*
X1348Y1507D02*
X1355Y1507D01*
X1614Y1507D02*
X1621Y1507D01*
X1Y1506D02*
X8Y1506D01*
X256Y1506D02*
X263Y1506D01*
X1348Y1506D02*
X1355Y1506D01*
X1614Y1506D02*
X1621Y1506D01*
X1Y1505D02*
X8Y1505D01*
X256Y1505D02*
X263Y1505D01*
X1348Y1505D02*
X1355Y1505D01*
X1614Y1505D02*
X1621Y1505D01*
X1Y1504D02*
X8Y1504D01*
X256Y1504D02*
X263Y1504D01*
X1348Y1504D02*
X1355Y1504D01*
X1614Y1504D02*
X1621Y1504D01*
X1Y1503D02*
X8Y1503D01*
X256Y1503D02*
X263Y1503D01*
X1348Y1503D02*
X1355Y1503D01*
X1614Y1503D02*
X1621Y1503D01*
X1Y1502D02*
X8Y1502D01*
X256Y1502D02*
X263Y1502D01*
X1348Y1502D02*
X1355Y1502D01*
X1614Y1502D02*
X1621Y1502D01*
X1Y1501D02*
X8Y1501D01*
X256Y1501D02*
X263Y1501D01*
X1348Y1501D02*
X1355Y1501D01*
X1614Y1501D02*
X1621Y1501D01*
X1Y1500D02*
X8Y1500D01*
X256Y1500D02*
X263Y1500D01*
X1348Y1500D02*
X1355Y1500D01*
X1614Y1500D02*
X1621Y1500D01*
X1Y1499D02*
X8Y1499D01*
X256Y1499D02*
X263Y1499D01*
X1348Y1499D02*
X1355Y1499D01*
X1614Y1499D02*
X1621Y1499D01*
X1Y1498D02*
X8Y1498D01*
X256Y1498D02*
X263Y1498D01*
X1348Y1498D02*
X1355Y1498D01*
X1614Y1498D02*
X1621Y1498D01*
X1Y1497D02*
X8Y1497D01*
X256Y1497D02*
X263Y1497D01*
X1348Y1497D02*
X1355Y1497D01*
X1614Y1497D02*
X1621Y1497D01*
X1Y1496D02*
X8Y1496D01*
X256Y1496D02*
X263Y1496D01*
X1348Y1496D02*
X1355Y1496D01*
X1614Y1496D02*
X1621Y1496D01*
X1Y1495D02*
X8Y1495D01*
X256Y1495D02*
X263Y1495D01*
X1348Y1495D02*
X1355Y1495D01*
X1614Y1495D02*
X1621Y1495D01*
X1Y1494D02*
X8Y1494D01*
X256Y1494D02*
X263Y1494D01*
X1348Y1494D02*
X1355Y1494D01*
X1614Y1494D02*
X1621Y1494D01*
X1Y1493D02*
X8Y1493D01*
X256Y1493D02*
X263Y1493D01*
X1348Y1493D02*
X1355Y1493D01*
X1614Y1493D02*
X1621Y1493D01*
X1Y1492D02*
X8Y1492D01*
X256Y1492D02*
X263Y1492D01*
X1348Y1492D02*
X1355Y1492D01*
X1614Y1492D02*
X1621Y1492D01*
X1Y1491D02*
X8Y1491D01*
X256Y1491D02*
X263Y1491D01*
X1348Y1491D02*
X1355Y1491D01*
X1614Y1491D02*
X1621Y1491D01*
X1Y1490D02*
X8Y1490D01*
X256Y1490D02*
X263Y1490D01*
X1348Y1490D02*
X1355Y1490D01*
X1614Y1490D02*
X1621Y1490D01*
X1Y1489D02*
X8Y1489D01*
X256Y1489D02*
X263Y1489D01*
X1348Y1489D02*
X1355Y1489D01*
X1614Y1489D02*
X1621Y1489D01*
X1Y1488D02*
X8Y1488D01*
X256Y1488D02*
X263Y1488D01*
X1348Y1488D02*
X1355Y1488D01*
X1614Y1488D02*
X1621Y1488D01*
X1Y1487D02*
X8Y1487D01*
X256Y1487D02*
X263Y1487D01*
X1348Y1487D02*
X1355Y1487D01*
X1614Y1487D02*
X1621Y1487D01*
X1Y1486D02*
X8Y1486D01*
X256Y1486D02*
X263Y1486D01*
X1348Y1486D02*
X1355Y1486D01*
X1614Y1486D02*
X1621Y1486D01*
X1Y1485D02*
X8Y1485D01*
X256Y1485D02*
X263Y1485D01*
X1348Y1485D02*
X1355Y1485D01*
X1614Y1485D02*
X1621Y1485D01*
X1Y1484D02*
X8Y1484D01*
X256Y1484D02*
X263Y1484D01*
X1348Y1484D02*
X1355Y1484D01*
X1614Y1484D02*
X1621Y1484D01*
X1Y1483D02*
X8Y1483D01*
X256Y1483D02*
X263Y1483D01*
X1348Y1483D02*
X1355Y1483D01*
X1614Y1483D02*
X1621Y1483D01*
X1Y1482D02*
X8Y1482D01*
X256Y1482D02*
X263Y1482D01*
X1348Y1482D02*
X1355Y1482D01*
X1614Y1482D02*
X1621Y1482D01*
X1Y1481D02*
X8Y1481D01*
X256Y1481D02*
X263Y1481D01*
X1348Y1481D02*
X1355Y1481D01*
X1614Y1481D02*
X1621Y1481D01*
X1Y1480D02*
X8Y1480D01*
X256Y1480D02*
X263Y1480D01*
X1348Y1480D02*
X1355Y1480D01*
X1614Y1480D02*
X1621Y1480D01*
X1Y1479D02*
X8Y1479D01*
X256Y1479D02*
X263Y1479D01*
X1348Y1479D02*
X1355Y1479D01*
X1614Y1479D02*
X1621Y1479D01*
X1Y1478D02*
X8Y1478D01*
X256Y1478D02*
X263Y1478D01*
X1348Y1478D02*
X1355Y1478D01*
X1614Y1478D02*
X1621Y1478D01*
X1Y1477D02*
X8Y1477D01*
X256Y1477D02*
X263Y1477D01*
X1348Y1477D02*
X1355Y1477D01*
X1614Y1477D02*
X1621Y1477D01*
X1Y1476D02*
X8Y1476D01*
X256Y1476D02*
X263Y1476D01*
X1348Y1476D02*
X1355Y1476D01*
X1614Y1476D02*
X1621Y1476D01*
X1Y1475D02*
X8Y1475D01*
X256Y1475D02*
X263Y1475D01*
X1348Y1475D02*
X1355Y1475D01*
X1614Y1475D02*
X1621Y1475D01*
X1Y1474D02*
X8Y1474D01*
X256Y1474D02*
X263Y1474D01*
X1348Y1474D02*
X1355Y1474D01*
X1614Y1474D02*
X1621Y1474D01*
X1Y1473D02*
X8Y1473D01*
X256Y1473D02*
X263Y1473D01*
X1348Y1473D02*
X1355Y1473D01*
X1614Y1473D02*
X1621Y1473D01*
X1Y1472D02*
X8Y1472D01*
X256Y1472D02*
X263Y1472D01*
X1348Y1472D02*
X1355Y1472D01*
X1614Y1472D02*
X1621Y1472D01*
X1Y1471D02*
X8Y1471D01*
X256Y1471D02*
X263Y1471D01*
X1348Y1471D02*
X1355Y1471D01*
X1614Y1471D02*
X1621Y1471D01*
X1Y1470D02*
X8Y1470D01*
X256Y1470D02*
X263Y1470D01*
X1348Y1470D02*
X1355Y1470D01*
X1614Y1470D02*
X1621Y1470D01*
X1Y1469D02*
X8Y1469D01*
X256Y1469D02*
X263Y1469D01*
X1348Y1469D02*
X1355Y1469D01*
X1614Y1469D02*
X1621Y1469D01*
X1Y1468D02*
X8Y1468D01*
X256Y1468D02*
X263Y1468D01*
X1348Y1468D02*
X1355Y1468D01*
X1614Y1468D02*
X1621Y1468D01*
X1Y1467D02*
X8Y1467D01*
X256Y1467D02*
X263Y1467D01*
X1348Y1467D02*
X1355Y1467D01*
X1614Y1467D02*
X1621Y1467D01*
X1Y1466D02*
X8Y1466D01*
X256Y1466D02*
X263Y1466D01*
X1348Y1466D02*
X1355Y1466D01*
X1614Y1466D02*
X1621Y1466D01*
X1Y1465D02*
X8Y1465D01*
X256Y1465D02*
X263Y1465D01*
X1348Y1465D02*
X1355Y1465D01*
X1614Y1465D02*
X1621Y1465D01*
X1Y1464D02*
X8Y1464D01*
X256Y1464D02*
X263Y1464D01*
X1348Y1464D02*
X1355Y1464D01*
X1614Y1464D02*
X1621Y1464D01*
X1Y1463D02*
X8Y1463D01*
X256Y1463D02*
X263Y1463D01*
X1348Y1463D02*
X1355Y1463D01*
X1614Y1463D02*
X1621Y1463D01*
X1Y1462D02*
X8Y1462D01*
X256Y1462D02*
X263Y1462D01*
X1348Y1462D02*
X1355Y1462D01*
X1614Y1462D02*
X1621Y1462D01*
X1Y1461D02*
X8Y1461D01*
X256Y1461D02*
X263Y1461D01*
X1348Y1461D02*
X1355Y1461D01*
X1614Y1461D02*
X1621Y1461D01*
X1Y1460D02*
X8Y1460D01*
X256Y1460D02*
X263Y1460D01*
X1348Y1460D02*
X1355Y1460D01*
X1614Y1460D02*
X1621Y1460D01*
X1Y1459D02*
X8Y1459D01*
X256Y1459D02*
X263Y1459D01*
X1348Y1459D02*
X1355Y1459D01*
X1614Y1459D02*
X1621Y1459D01*
X1Y1458D02*
X8Y1458D01*
X256Y1458D02*
X263Y1458D01*
X1348Y1458D02*
X1355Y1458D01*
X1614Y1458D02*
X1621Y1458D01*
X1Y1457D02*
X8Y1457D01*
X256Y1457D02*
X263Y1457D01*
X1348Y1457D02*
X1355Y1457D01*
X1614Y1457D02*
X1621Y1457D01*
X1Y1456D02*
X8Y1456D01*
X256Y1456D02*
X263Y1456D01*
X1348Y1456D02*
X1355Y1456D01*
X1614Y1456D02*
X1621Y1456D01*
X1Y1455D02*
X8Y1455D01*
X256Y1455D02*
X263Y1455D01*
X1348Y1455D02*
X1355Y1455D01*
X1614Y1455D02*
X1621Y1455D01*
X1Y1454D02*
X8Y1454D01*
X256Y1454D02*
X263Y1454D01*
X1348Y1454D02*
X1355Y1454D01*
X1614Y1454D02*
X1621Y1454D01*
X1Y1453D02*
X8Y1453D01*
X256Y1453D02*
X263Y1453D01*
X1348Y1453D02*
X1355Y1453D01*
X1614Y1453D02*
X1621Y1453D01*
X1Y1452D02*
X8Y1452D01*
X256Y1452D02*
X263Y1452D01*
X1348Y1452D02*
X1355Y1452D01*
X1614Y1452D02*
X1621Y1452D01*
X1Y1451D02*
X8Y1451D01*
X256Y1451D02*
X263Y1451D01*
X1348Y1451D02*
X1355Y1451D01*
X1614Y1451D02*
X1621Y1451D01*
X1Y1450D02*
X8Y1450D01*
X256Y1450D02*
X263Y1450D01*
X1348Y1450D02*
X1355Y1450D01*
X1614Y1450D02*
X1621Y1450D01*
X1Y1449D02*
X8Y1449D01*
X256Y1449D02*
X263Y1449D01*
X1348Y1449D02*
X1355Y1449D01*
X1614Y1449D02*
X1621Y1449D01*
X1Y1448D02*
X8Y1448D01*
X256Y1448D02*
X263Y1448D01*
X1348Y1448D02*
X1355Y1448D01*
X1614Y1448D02*
X1621Y1448D01*
X1Y1447D02*
X8Y1447D01*
X256Y1447D02*
X263Y1447D01*
X1348Y1447D02*
X1355Y1447D01*
X1614Y1447D02*
X1621Y1447D01*
X1Y1446D02*
X8Y1446D01*
X256Y1446D02*
X263Y1446D01*
X1348Y1446D02*
X1355Y1446D01*
X1614Y1446D02*
X1621Y1446D01*
X1Y1445D02*
X8Y1445D01*
X256Y1445D02*
X263Y1445D01*
X1348Y1445D02*
X1355Y1445D01*
X1614Y1445D02*
X1621Y1445D01*
X1Y1444D02*
X8Y1444D01*
X256Y1444D02*
X263Y1444D01*
X1348Y1444D02*
X1355Y1444D01*
X1614Y1444D02*
X1621Y1444D01*
X1Y1443D02*
X8Y1443D01*
X256Y1443D02*
X263Y1443D01*
X1348Y1443D02*
X1355Y1443D01*
X1614Y1443D02*
X1621Y1443D01*
X1Y1442D02*
X8Y1442D01*
X256Y1442D02*
X263Y1442D01*
X1348Y1442D02*
X1355Y1442D01*
X1614Y1442D02*
X1621Y1442D01*
X1Y1441D02*
X8Y1441D01*
X256Y1441D02*
X263Y1441D01*
X1348Y1441D02*
X1355Y1441D01*
X1614Y1441D02*
X1621Y1441D01*
X1Y1440D02*
X8Y1440D01*
X256Y1440D02*
X263Y1440D01*
X1348Y1440D02*
X1355Y1440D01*
X1614Y1440D02*
X1621Y1440D01*
X1Y1439D02*
X8Y1439D01*
X256Y1439D02*
X263Y1439D01*
X1348Y1439D02*
X1355Y1439D01*
X1614Y1439D02*
X1621Y1439D01*
X1Y1438D02*
X8Y1438D01*
X256Y1438D02*
X263Y1438D01*
X1348Y1438D02*
X1355Y1438D01*
X1614Y1438D02*
X1621Y1438D01*
X1Y1437D02*
X8Y1437D01*
X256Y1437D02*
X263Y1437D01*
X1348Y1437D02*
X1355Y1437D01*
X1614Y1437D02*
X1621Y1437D01*
X1Y1436D02*
X8Y1436D01*
X256Y1436D02*
X263Y1436D01*
X1348Y1436D02*
X1355Y1436D01*
X1614Y1436D02*
X1621Y1436D01*
X1Y1435D02*
X8Y1435D01*
X256Y1435D02*
X263Y1435D01*
X1348Y1435D02*
X1355Y1435D01*
X1614Y1435D02*
X1621Y1435D01*
X1Y1434D02*
X8Y1434D01*
X256Y1434D02*
X263Y1434D01*
X1348Y1434D02*
X1355Y1434D01*
X1614Y1434D02*
X1621Y1434D01*
X1Y1433D02*
X8Y1433D01*
X256Y1433D02*
X263Y1433D01*
X1348Y1433D02*
X1355Y1433D01*
X1614Y1433D02*
X1621Y1433D01*
X1Y1432D02*
X8Y1432D01*
X256Y1432D02*
X263Y1432D01*
X1348Y1432D02*
X1355Y1432D01*
X1614Y1432D02*
X1621Y1432D01*
X1Y1431D02*
X8Y1431D01*
X256Y1431D02*
X263Y1431D01*
X1348Y1431D02*
X1355Y1431D01*
X1614Y1431D02*
X1621Y1431D01*
X1Y1430D02*
X8Y1430D01*
X256Y1430D02*
X263Y1430D01*
X1348Y1430D02*
X1355Y1430D01*
X1614Y1430D02*
X1621Y1430D01*
X1Y1429D02*
X8Y1429D01*
X256Y1429D02*
X263Y1429D01*
X1348Y1429D02*
X1355Y1429D01*
X1614Y1429D02*
X1621Y1429D01*
X1Y1428D02*
X8Y1428D01*
X256Y1428D02*
X263Y1428D01*
X1348Y1428D02*
X1355Y1428D01*
X1614Y1428D02*
X1621Y1428D01*
X1Y1427D02*
X8Y1427D01*
X256Y1427D02*
X263Y1427D01*
X1348Y1427D02*
X1355Y1427D01*
X1614Y1427D02*
X1621Y1427D01*
X1Y1426D02*
X8Y1426D01*
X256Y1426D02*
X263Y1426D01*
X1348Y1426D02*
X1355Y1426D01*
X1614Y1426D02*
X1621Y1426D01*
X1Y1425D02*
X8Y1425D01*
X256Y1425D02*
X263Y1425D01*
X1348Y1425D02*
X1355Y1425D01*
X1614Y1425D02*
X1621Y1425D01*
X1Y1424D02*
X8Y1424D01*
X256Y1424D02*
X263Y1424D01*
X1348Y1424D02*
X1355Y1424D01*
X1614Y1424D02*
X1621Y1424D01*
X1Y1423D02*
X8Y1423D01*
X256Y1423D02*
X263Y1423D01*
X1348Y1423D02*
X1355Y1423D01*
X1614Y1423D02*
X1621Y1423D01*
X1Y1422D02*
X8Y1422D01*
X256Y1422D02*
X263Y1422D01*
X1348Y1422D02*
X1355Y1422D01*
X1614Y1422D02*
X1621Y1422D01*
X1Y1421D02*
X8Y1421D01*
X256Y1421D02*
X263Y1421D01*
X1348Y1421D02*
X1355Y1421D01*
X1614Y1421D02*
X1621Y1421D01*
X1Y1420D02*
X8Y1420D01*
X256Y1420D02*
X263Y1420D01*
X1348Y1420D02*
X1355Y1420D01*
X1614Y1420D02*
X1621Y1420D01*
X1Y1419D02*
X8Y1419D01*
X256Y1419D02*
X263Y1419D01*
X1348Y1419D02*
X1355Y1419D01*
X1614Y1419D02*
X1621Y1419D01*
X1Y1418D02*
X8Y1418D01*
X256Y1418D02*
X263Y1418D01*
X1348Y1418D02*
X1355Y1418D01*
X1614Y1418D02*
X1621Y1418D01*
X1Y1417D02*
X8Y1417D01*
X256Y1417D02*
X263Y1417D01*
X1348Y1417D02*
X1355Y1417D01*
X1614Y1417D02*
X1621Y1417D01*
X1Y1416D02*
X8Y1416D01*
X256Y1416D02*
X263Y1416D01*
X1348Y1416D02*
X1355Y1416D01*
X1614Y1416D02*
X1621Y1416D01*
X1Y1415D02*
X8Y1415D01*
X256Y1415D02*
X263Y1415D01*
X1348Y1415D02*
X1355Y1415D01*
X1614Y1415D02*
X1621Y1415D01*
X1Y1414D02*
X8Y1414D01*
X256Y1414D02*
X263Y1414D01*
X1348Y1414D02*
X1355Y1414D01*
X1614Y1414D02*
X1621Y1414D01*
X1Y1413D02*
X8Y1413D01*
X256Y1413D02*
X263Y1413D01*
X1348Y1413D02*
X1355Y1413D01*
X1614Y1413D02*
X1621Y1413D01*
X1Y1412D02*
X8Y1412D01*
X256Y1412D02*
X263Y1412D01*
X1348Y1412D02*
X1355Y1412D01*
X1614Y1412D02*
X1621Y1412D01*
X1Y1411D02*
X8Y1411D01*
X256Y1411D02*
X263Y1411D01*
X1348Y1411D02*
X1355Y1411D01*
X1614Y1411D02*
X1621Y1411D01*
X1Y1410D02*
X8Y1410D01*
X256Y1410D02*
X263Y1410D01*
X1348Y1410D02*
X1355Y1410D01*
X1614Y1410D02*
X1621Y1410D01*
X1Y1409D02*
X8Y1409D01*
X256Y1409D02*
X263Y1409D01*
X1348Y1409D02*
X1355Y1409D01*
X1614Y1409D02*
X1621Y1409D01*
X1Y1408D02*
X8Y1408D01*
X256Y1408D02*
X263Y1408D01*
X1348Y1408D02*
X1355Y1408D01*
X1614Y1408D02*
X1621Y1408D01*
X1Y1407D02*
X8Y1407D01*
X256Y1407D02*
X263Y1407D01*
X1348Y1407D02*
X1355Y1407D01*
X1614Y1407D02*
X1621Y1407D01*
X1Y1406D02*
X8Y1406D01*
X256Y1406D02*
X263Y1406D01*
X1348Y1406D02*
X1355Y1406D01*
X1614Y1406D02*
X1621Y1406D01*
X1Y1405D02*
X8Y1405D01*
X256Y1405D02*
X263Y1405D01*
X1348Y1405D02*
X1355Y1405D01*
X1614Y1405D02*
X1621Y1405D01*
X1Y1404D02*
X8Y1404D01*
X256Y1404D02*
X263Y1404D01*
X1348Y1404D02*
X1355Y1404D01*
X1614Y1404D02*
X1621Y1404D01*
X1Y1403D02*
X8Y1403D01*
X256Y1403D02*
X263Y1403D01*
X1348Y1403D02*
X1355Y1403D01*
X1614Y1403D02*
X1621Y1403D01*
X1Y1402D02*
X8Y1402D01*
X256Y1402D02*
X263Y1402D01*
X1348Y1402D02*
X1355Y1402D01*
X1614Y1402D02*
X1621Y1402D01*
X1Y1401D02*
X8Y1401D01*
X256Y1401D02*
X263Y1401D01*
X1348Y1401D02*
X1355Y1401D01*
X1614Y1401D02*
X1621Y1401D01*
X1Y1400D02*
X8Y1400D01*
X256Y1400D02*
X263Y1400D01*
X1348Y1400D02*
X1355Y1400D01*
X1614Y1400D02*
X1621Y1400D01*
X1Y1399D02*
X8Y1399D01*
X256Y1399D02*
X263Y1399D01*
X1348Y1399D02*
X1355Y1399D01*
X1614Y1399D02*
X1621Y1399D01*
X1Y1398D02*
X8Y1398D01*
X256Y1398D02*
X263Y1398D01*
X1348Y1398D02*
X1355Y1398D01*
X1614Y1398D02*
X1621Y1398D01*
X1Y1397D02*
X8Y1397D01*
X256Y1397D02*
X263Y1397D01*
X1348Y1397D02*
X1355Y1397D01*
X1614Y1397D02*
X1621Y1397D01*
X1Y1396D02*
X8Y1396D01*
X256Y1396D02*
X263Y1396D01*
X1348Y1396D02*
X1355Y1396D01*
X1614Y1396D02*
X1621Y1396D01*
X1Y1395D02*
X8Y1395D01*
X256Y1395D02*
X263Y1395D01*
X1348Y1395D02*
X1355Y1395D01*
X1614Y1395D02*
X1621Y1395D01*
X1Y1394D02*
X8Y1394D01*
X256Y1394D02*
X263Y1394D01*
X1348Y1394D02*
X1355Y1394D01*
X1614Y1394D02*
X1621Y1394D01*
X1Y1393D02*
X8Y1393D01*
X256Y1393D02*
X263Y1393D01*
X1348Y1393D02*
X1355Y1393D01*
X1614Y1393D02*
X1621Y1393D01*
X1Y1392D02*
X8Y1392D01*
X256Y1392D02*
X263Y1392D01*
X1348Y1392D02*
X1355Y1392D01*
X1614Y1392D02*
X1621Y1392D01*
X1Y1391D02*
X8Y1391D01*
X256Y1391D02*
X263Y1391D01*
X1348Y1391D02*
X1355Y1391D01*
X1614Y1391D02*
X1621Y1391D01*
X1Y1390D02*
X8Y1390D01*
X256Y1390D02*
X263Y1390D01*
X1348Y1390D02*
X1355Y1390D01*
X1614Y1390D02*
X1621Y1390D01*
X1Y1389D02*
X8Y1389D01*
X256Y1389D02*
X263Y1389D01*
X1348Y1389D02*
X1355Y1389D01*
X1614Y1389D02*
X1621Y1389D01*
X1Y1388D02*
X8Y1388D01*
X256Y1388D02*
X263Y1388D01*
X1348Y1388D02*
X1355Y1388D01*
X1614Y1388D02*
X1621Y1388D01*
X1Y1387D02*
X8Y1387D01*
X256Y1387D02*
X263Y1387D01*
X1348Y1387D02*
X1355Y1387D01*
X1614Y1387D02*
X1621Y1387D01*
X1Y1386D02*
X8Y1386D01*
X256Y1386D02*
X263Y1386D01*
X1348Y1386D02*
X1355Y1386D01*
X1614Y1386D02*
X1621Y1386D01*
X1Y1385D02*
X8Y1385D01*
X256Y1385D02*
X263Y1385D01*
X1348Y1385D02*
X1355Y1385D01*
X1614Y1385D02*
X1621Y1385D01*
X1Y1384D02*
X8Y1384D01*
X256Y1384D02*
X263Y1384D01*
X1348Y1384D02*
X1355Y1384D01*
X1614Y1384D02*
X1621Y1384D01*
X1Y1383D02*
X8Y1383D01*
X256Y1383D02*
X263Y1383D01*
X1348Y1383D02*
X1355Y1383D01*
X1614Y1383D02*
X1621Y1383D01*
X1Y1382D02*
X8Y1382D01*
X256Y1382D02*
X263Y1382D01*
X1348Y1382D02*
X1355Y1382D01*
X1614Y1382D02*
X1621Y1382D01*
X1Y1381D02*
X8Y1381D01*
X256Y1381D02*
X263Y1381D01*
X1348Y1381D02*
X1355Y1381D01*
X1614Y1381D02*
X1621Y1381D01*
X1Y1380D02*
X8Y1380D01*
X256Y1380D02*
X263Y1380D01*
X1348Y1380D02*
X1355Y1380D01*
X1614Y1380D02*
X1621Y1380D01*
X1Y1379D02*
X8Y1379D01*
X256Y1379D02*
X263Y1379D01*
X1348Y1379D02*
X1355Y1379D01*
X1614Y1379D02*
X1621Y1379D01*
X1Y1378D02*
X8Y1378D01*
X256Y1378D02*
X263Y1378D01*
X1348Y1378D02*
X1355Y1378D01*
X1614Y1378D02*
X1621Y1378D01*
X1Y1377D02*
X8Y1377D01*
X256Y1377D02*
X263Y1377D01*
X1348Y1377D02*
X1355Y1377D01*
X1614Y1377D02*
X1621Y1377D01*
X1Y1376D02*
X8Y1376D01*
X256Y1376D02*
X263Y1376D01*
X1348Y1376D02*
X1355Y1376D01*
X1614Y1376D02*
X1621Y1376D01*
X1Y1375D02*
X8Y1375D01*
X256Y1375D02*
X263Y1375D01*
X1348Y1375D02*
X1355Y1375D01*
X1614Y1375D02*
X1621Y1375D01*
X1Y1374D02*
X8Y1374D01*
X256Y1374D02*
X263Y1374D01*
X1348Y1374D02*
X1355Y1374D01*
X1614Y1374D02*
X1621Y1374D01*
X1Y1373D02*
X8Y1373D01*
X256Y1373D02*
X263Y1373D01*
X1348Y1373D02*
X1355Y1373D01*
X1614Y1373D02*
X1621Y1373D01*
X1Y1372D02*
X8Y1372D01*
X256Y1372D02*
X263Y1372D01*
X1348Y1372D02*
X1355Y1372D01*
X1614Y1372D02*
X1621Y1372D01*
X1Y1371D02*
X8Y1371D01*
X256Y1371D02*
X263Y1371D01*
X1348Y1371D02*
X1355Y1371D01*
X1614Y1371D02*
X1621Y1371D01*
X1Y1370D02*
X8Y1370D01*
X256Y1370D02*
X263Y1370D01*
X1348Y1370D02*
X1355Y1370D01*
X1614Y1370D02*
X1621Y1370D01*
X1Y1369D02*
X8Y1369D01*
X256Y1369D02*
X263Y1369D01*
X1348Y1369D02*
X1355Y1369D01*
X1614Y1369D02*
X1621Y1369D01*
X1Y1368D02*
X8Y1368D01*
X256Y1368D02*
X263Y1368D01*
X1348Y1368D02*
X1355Y1368D01*
X1614Y1368D02*
X1621Y1368D01*
X1Y1367D02*
X8Y1367D01*
X256Y1367D02*
X263Y1367D01*
X1348Y1367D02*
X1355Y1367D01*
X1614Y1367D02*
X1621Y1367D01*
X1Y1366D02*
X8Y1366D01*
X256Y1366D02*
X263Y1366D01*
X1348Y1366D02*
X1355Y1366D01*
X1614Y1366D02*
X1621Y1366D01*
X1Y1365D02*
X8Y1365D01*
X256Y1365D02*
X263Y1365D01*
X1348Y1365D02*
X1355Y1365D01*
X1614Y1365D02*
X1621Y1365D01*
X1Y1364D02*
X8Y1364D01*
X256Y1364D02*
X263Y1364D01*
X1348Y1364D02*
X1355Y1364D01*
X1614Y1364D02*
X1621Y1364D01*
X1Y1363D02*
X8Y1363D01*
X256Y1363D02*
X263Y1363D01*
X1348Y1363D02*
X1355Y1363D01*
X1614Y1363D02*
X1621Y1363D01*
X1Y1362D02*
X8Y1362D01*
X256Y1362D02*
X263Y1362D01*
X1348Y1362D02*
X1355Y1362D01*
X1614Y1362D02*
X1621Y1362D01*
X1Y1361D02*
X8Y1361D01*
X256Y1361D02*
X263Y1361D01*
X1348Y1361D02*
X1355Y1361D01*
X1614Y1361D02*
X1621Y1361D01*
X1Y1360D02*
X8Y1360D01*
X256Y1360D02*
X263Y1360D01*
X1348Y1360D02*
X1355Y1360D01*
X1614Y1360D02*
X1621Y1360D01*
X1Y1359D02*
X8Y1359D01*
X256Y1359D02*
X263Y1359D01*
X1348Y1359D02*
X1355Y1359D01*
X1614Y1359D02*
X1621Y1359D01*
X1Y1358D02*
X8Y1358D01*
X256Y1358D02*
X263Y1358D01*
X1348Y1358D02*
X1355Y1358D01*
X1614Y1358D02*
X1621Y1358D01*
X1Y1357D02*
X8Y1357D01*
X256Y1357D02*
X263Y1357D01*
X1348Y1357D02*
X1355Y1357D01*
X1614Y1357D02*
X1621Y1357D01*
X1Y1356D02*
X8Y1356D01*
X256Y1356D02*
X263Y1356D01*
X1348Y1356D02*
X1355Y1356D01*
X1614Y1356D02*
X1621Y1356D01*
X1Y1355D02*
X8Y1355D01*
X256Y1355D02*
X263Y1355D01*
X1348Y1355D02*
X1355Y1355D01*
X1614Y1355D02*
X1621Y1355D01*
X1Y1354D02*
X8Y1354D01*
X256Y1354D02*
X263Y1354D01*
X1348Y1354D02*
X1355Y1354D01*
X1614Y1354D02*
X1621Y1354D01*
X1Y1353D02*
X8Y1353D01*
X256Y1353D02*
X263Y1353D01*
X1348Y1353D02*
X1355Y1353D01*
X1614Y1353D02*
X1621Y1353D01*
X1Y1352D02*
X8Y1352D01*
X256Y1352D02*
X263Y1352D01*
X1348Y1352D02*
X1355Y1352D01*
X1614Y1352D02*
X1621Y1352D01*
X1Y1351D02*
X8Y1351D01*
X256Y1351D02*
X263Y1351D01*
X1348Y1351D02*
X1355Y1351D01*
X1614Y1351D02*
X1621Y1351D01*
X1Y1350D02*
X8Y1350D01*
X256Y1350D02*
X263Y1350D01*
X1348Y1350D02*
X1355Y1350D01*
X1614Y1350D02*
X1621Y1350D01*
X1Y1349D02*
X8Y1349D01*
X256Y1349D02*
X263Y1349D01*
X1348Y1349D02*
X1355Y1349D01*
X1614Y1349D02*
X1621Y1349D01*
X1Y1348D02*
X8Y1348D01*
X256Y1348D02*
X263Y1348D01*
X1348Y1348D02*
X1355Y1348D01*
X1614Y1348D02*
X1621Y1348D01*
X1Y1347D02*
X8Y1347D01*
X256Y1347D02*
X263Y1347D01*
X1348Y1347D02*
X1355Y1347D01*
X1614Y1347D02*
X1621Y1347D01*
X1Y1346D02*
X8Y1346D01*
X256Y1346D02*
X263Y1346D01*
X1348Y1346D02*
X1355Y1346D01*
X1614Y1346D02*
X1621Y1346D01*
X1Y1345D02*
X8Y1345D01*
X256Y1345D02*
X263Y1345D01*
X1348Y1345D02*
X1355Y1345D01*
X1614Y1345D02*
X1621Y1345D01*
X1Y1344D02*
X8Y1344D01*
X256Y1344D02*
X263Y1344D01*
X1348Y1344D02*
X1355Y1344D01*
X1614Y1344D02*
X1621Y1344D01*
X1Y1343D02*
X8Y1343D01*
X256Y1343D02*
X263Y1343D01*
X1348Y1343D02*
X1355Y1343D01*
X1614Y1343D02*
X1621Y1343D01*
X1Y1342D02*
X8Y1342D01*
X256Y1342D02*
X263Y1342D01*
X1348Y1342D02*
X1355Y1342D01*
X1614Y1342D02*
X1621Y1342D01*
X1Y1341D02*
X8Y1341D01*
X256Y1341D02*
X263Y1341D01*
X1348Y1341D02*
X1355Y1341D01*
X1614Y1341D02*
X1621Y1341D01*
X1Y1340D02*
X8Y1340D01*
X256Y1340D02*
X263Y1340D01*
X1348Y1340D02*
X1355Y1340D01*
X1614Y1340D02*
X1621Y1340D01*
X1Y1339D02*
X8Y1339D01*
X256Y1339D02*
X263Y1339D01*
X1348Y1339D02*
X1355Y1339D01*
X1614Y1339D02*
X1621Y1339D01*
X1Y1338D02*
X8Y1338D01*
X256Y1338D02*
X263Y1338D01*
X1348Y1338D02*
X1355Y1338D01*
X1614Y1338D02*
X1621Y1338D01*
X1Y1337D02*
X8Y1337D01*
X256Y1337D02*
X263Y1337D01*
X1348Y1337D02*
X1355Y1337D01*
X1614Y1337D02*
X1621Y1337D01*
X1Y1336D02*
X8Y1336D01*
X256Y1336D02*
X263Y1336D01*
X1348Y1336D02*
X1355Y1336D01*
X1614Y1336D02*
X1621Y1336D01*
X1Y1335D02*
X8Y1335D01*
X256Y1335D02*
X263Y1335D01*
X1348Y1335D02*
X1355Y1335D01*
X1614Y1335D02*
X1621Y1335D01*
X1Y1334D02*
X8Y1334D01*
X256Y1334D02*
X263Y1334D01*
X1348Y1334D02*
X1355Y1334D01*
X1614Y1334D02*
X1621Y1334D01*
X1Y1333D02*
X8Y1333D01*
X256Y1333D02*
X263Y1333D01*
X1348Y1333D02*
X1355Y1333D01*
X1614Y1333D02*
X1621Y1333D01*
X1Y1332D02*
X8Y1332D01*
X256Y1332D02*
X263Y1332D01*
X1348Y1332D02*
X1355Y1332D01*
X1614Y1332D02*
X1621Y1332D01*
X1Y1331D02*
X8Y1331D01*
X256Y1331D02*
X263Y1331D01*
X1348Y1331D02*
X1355Y1331D01*
X1614Y1331D02*
X1621Y1331D01*
X1Y1330D02*
X8Y1330D01*
X256Y1330D02*
X263Y1330D01*
X1348Y1330D02*
X1355Y1330D01*
X1614Y1330D02*
X1621Y1330D01*
X1Y1329D02*
X8Y1329D01*
X256Y1329D02*
X263Y1329D01*
X1348Y1329D02*
X1355Y1329D01*
X1614Y1329D02*
X1621Y1329D01*
X1Y1328D02*
X8Y1328D01*
X256Y1328D02*
X263Y1328D01*
X1348Y1328D02*
X1355Y1328D01*
X1614Y1328D02*
X1621Y1328D01*
X1Y1327D02*
X8Y1327D01*
X256Y1327D02*
X263Y1327D01*
X1348Y1327D02*
X1355Y1327D01*
X1614Y1327D02*
X1621Y1327D01*
X1Y1326D02*
X8Y1326D01*
X256Y1326D02*
X263Y1326D01*
X1348Y1326D02*
X1355Y1326D01*
X1614Y1326D02*
X1621Y1326D01*
X1Y1325D02*
X8Y1325D01*
X256Y1325D02*
X263Y1325D01*
X1348Y1325D02*
X1355Y1325D01*
X1614Y1325D02*
X1621Y1325D01*
X1Y1324D02*
X8Y1324D01*
X256Y1324D02*
X263Y1324D01*
X1348Y1324D02*
X1355Y1324D01*
X1614Y1324D02*
X1621Y1324D01*
X1Y1323D02*
X8Y1323D01*
X256Y1323D02*
X263Y1323D01*
X1348Y1323D02*
X1355Y1323D01*
X1614Y1323D02*
X1621Y1323D01*
X1Y1322D02*
X8Y1322D01*
X256Y1322D02*
X263Y1322D01*
X1348Y1322D02*
X1355Y1322D01*
X1614Y1322D02*
X1621Y1322D01*
X1Y1321D02*
X8Y1321D01*
X256Y1321D02*
X263Y1321D01*
X1348Y1321D02*
X1355Y1321D01*
X1614Y1321D02*
X1621Y1321D01*
X1Y1320D02*
X8Y1320D01*
X256Y1320D02*
X263Y1320D01*
X1348Y1320D02*
X1355Y1320D01*
X1614Y1320D02*
X1621Y1320D01*
X1Y1319D02*
X8Y1319D01*
X256Y1319D02*
X263Y1319D01*
X1348Y1319D02*
X1355Y1319D01*
X1614Y1319D02*
X1621Y1319D01*
X1Y1318D02*
X8Y1318D01*
X256Y1318D02*
X263Y1318D01*
X1348Y1318D02*
X1355Y1318D01*
X1614Y1318D02*
X1621Y1318D01*
X1Y1317D02*
X8Y1317D01*
X256Y1317D02*
X263Y1317D01*
X1348Y1317D02*
X1355Y1317D01*
X1614Y1317D02*
X1621Y1317D01*
X1Y1316D02*
X8Y1316D01*
X256Y1316D02*
X263Y1316D01*
X1348Y1316D02*
X1355Y1316D01*
X1614Y1316D02*
X1621Y1316D01*
X1Y1315D02*
X8Y1315D01*
X256Y1315D02*
X263Y1315D01*
X1348Y1315D02*
X1355Y1315D01*
X1614Y1315D02*
X1621Y1315D01*
X1Y1314D02*
X8Y1314D01*
X256Y1314D02*
X263Y1314D01*
X1348Y1314D02*
X1355Y1314D01*
X1614Y1314D02*
X1621Y1314D01*
X1Y1313D02*
X8Y1313D01*
X256Y1313D02*
X263Y1313D01*
X1348Y1313D02*
X1355Y1313D01*
X1614Y1313D02*
X1621Y1313D01*
X1Y1312D02*
X8Y1312D01*
X256Y1312D02*
X263Y1312D01*
X1348Y1312D02*
X1355Y1312D01*
X1614Y1312D02*
X1621Y1312D01*
X1Y1311D02*
X8Y1311D01*
X256Y1311D02*
X263Y1311D01*
X1348Y1311D02*
X1355Y1311D01*
X1614Y1311D02*
X1621Y1311D01*
X1Y1310D02*
X8Y1310D01*
X256Y1310D02*
X263Y1310D01*
X1348Y1310D02*
X1355Y1310D01*
X1614Y1310D02*
X1621Y1310D01*
X1Y1309D02*
X8Y1309D01*
X256Y1309D02*
X263Y1309D01*
X1348Y1309D02*
X1355Y1309D01*
X1614Y1309D02*
X1621Y1309D01*
X1Y1308D02*
X8Y1308D01*
X256Y1308D02*
X263Y1308D01*
X1348Y1308D02*
X1355Y1308D01*
X1614Y1308D02*
X1621Y1308D01*
X1Y1307D02*
X8Y1307D01*
X256Y1307D02*
X263Y1307D01*
X1348Y1307D02*
X1355Y1307D01*
X1614Y1307D02*
X1621Y1307D01*
X1Y1306D02*
X8Y1306D01*
X256Y1306D02*
X263Y1306D01*
X1348Y1306D02*
X1355Y1306D01*
X1614Y1306D02*
X1621Y1306D01*
X1Y1305D02*
X8Y1305D01*
X256Y1305D02*
X263Y1305D01*
X1348Y1305D02*
X1355Y1305D01*
X1614Y1305D02*
X1621Y1305D01*
X1Y1304D02*
X8Y1304D01*
X256Y1304D02*
X263Y1304D01*
X1348Y1304D02*
X1355Y1304D01*
X1614Y1304D02*
X1621Y1304D01*
X1Y1303D02*
X8Y1303D01*
X256Y1303D02*
X263Y1303D01*
X1348Y1303D02*
X1355Y1303D01*
X1614Y1303D02*
X1621Y1303D01*
X1Y1302D02*
X8Y1302D01*
X256Y1302D02*
X263Y1302D01*
X1348Y1302D02*
X1355Y1302D01*
X1614Y1302D02*
X1621Y1302D01*
X1Y1301D02*
X8Y1301D01*
X256Y1301D02*
X263Y1301D01*
X1348Y1301D02*
X1355Y1301D01*
X1614Y1301D02*
X1621Y1301D01*
X1Y1300D02*
X8Y1300D01*
X256Y1300D02*
X263Y1300D01*
X1348Y1300D02*
X1355Y1300D01*
X1614Y1300D02*
X1621Y1300D01*
X1Y1299D02*
X8Y1299D01*
X256Y1299D02*
X263Y1299D01*
X1348Y1299D02*
X1355Y1299D01*
X1614Y1299D02*
X1621Y1299D01*
X1Y1298D02*
X8Y1298D01*
X256Y1298D02*
X263Y1298D01*
X1348Y1298D02*
X1355Y1298D01*
X1614Y1298D02*
X1621Y1298D01*
X1Y1297D02*
X8Y1297D01*
X256Y1297D02*
X263Y1297D01*
X1348Y1297D02*
X1355Y1297D01*
X1614Y1297D02*
X1621Y1297D01*
X1Y1296D02*
X8Y1296D01*
X256Y1296D02*
X263Y1296D01*
X1348Y1296D02*
X1355Y1296D01*
X1614Y1296D02*
X1621Y1296D01*
X1Y1295D02*
X8Y1295D01*
X256Y1295D02*
X263Y1295D01*
X1348Y1295D02*
X1355Y1295D01*
X1614Y1295D02*
X1621Y1295D01*
X1Y1294D02*
X8Y1294D01*
X256Y1294D02*
X263Y1294D01*
X1348Y1294D02*
X1355Y1294D01*
X1614Y1294D02*
X1621Y1294D01*
X1Y1293D02*
X8Y1293D01*
X256Y1293D02*
X263Y1293D01*
X1348Y1293D02*
X1355Y1293D01*
X1614Y1293D02*
X1621Y1293D01*
X1Y1292D02*
X8Y1292D01*
X256Y1292D02*
X263Y1292D01*
X1348Y1292D02*
X1355Y1292D01*
X1614Y1292D02*
X1621Y1292D01*
X1Y1291D02*
X8Y1291D01*
X256Y1291D02*
X263Y1291D01*
X1348Y1291D02*
X1355Y1291D01*
X1614Y1291D02*
X1621Y1291D01*
X1Y1290D02*
X8Y1290D01*
X256Y1290D02*
X263Y1290D01*
X1348Y1290D02*
X1355Y1290D01*
X1614Y1290D02*
X1621Y1290D01*
X1Y1289D02*
X8Y1289D01*
X256Y1289D02*
X263Y1289D01*
X1348Y1289D02*
X1355Y1289D01*
X1614Y1289D02*
X1621Y1289D01*
X1Y1288D02*
X8Y1288D01*
X256Y1288D02*
X263Y1288D01*
X1348Y1288D02*
X1355Y1288D01*
X1614Y1288D02*
X1621Y1288D01*
X1Y1287D02*
X8Y1287D01*
X256Y1287D02*
X263Y1287D01*
X1348Y1287D02*
X1355Y1287D01*
X1614Y1287D02*
X1621Y1287D01*
X1Y1286D02*
X8Y1286D01*
X256Y1286D02*
X263Y1286D01*
X1348Y1286D02*
X1355Y1286D01*
X1614Y1286D02*
X1621Y1286D01*
X1Y1285D02*
X8Y1285D01*
X256Y1285D02*
X263Y1285D01*
X1348Y1285D02*
X1355Y1285D01*
X1614Y1285D02*
X1621Y1285D01*
X1Y1284D02*
X8Y1284D01*
X256Y1284D02*
X263Y1284D01*
X1348Y1284D02*
X1355Y1284D01*
X1614Y1284D02*
X1621Y1284D01*
X1Y1283D02*
X8Y1283D01*
X256Y1283D02*
X263Y1283D01*
X1348Y1283D02*
X1355Y1283D01*
X1614Y1283D02*
X1621Y1283D01*
X1Y1282D02*
X8Y1282D01*
X256Y1282D02*
X263Y1282D01*
X1348Y1282D02*
X1355Y1282D01*
X1614Y1282D02*
X1621Y1282D01*
X1Y1281D02*
X8Y1281D01*
X256Y1281D02*
X263Y1281D01*
X1348Y1281D02*
X1355Y1281D01*
X1614Y1281D02*
X1621Y1281D01*
X1Y1280D02*
X8Y1280D01*
X256Y1280D02*
X263Y1280D01*
X1348Y1280D02*
X1355Y1280D01*
X1614Y1280D02*
X1621Y1280D01*
X1Y1279D02*
X8Y1279D01*
X256Y1279D02*
X263Y1279D01*
X1348Y1279D02*
X1355Y1279D01*
X1614Y1279D02*
X1621Y1279D01*
X1Y1278D02*
X8Y1278D01*
X256Y1278D02*
X263Y1278D01*
X1348Y1278D02*
X1355Y1278D01*
X1614Y1278D02*
X1621Y1278D01*
X1Y1277D02*
X8Y1277D01*
X256Y1277D02*
X263Y1277D01*
X1348Y1277D02*
X1355Y1277D01*
X1614Y1277D02*
X1621Y1277D01*
X1Y1276D02*
X8Y1276D01*
X256Y1276D02*
X263Y1276D01*
X1348Y1276D02*
X1355Y1276D01*
X1614Y1276D02*
X1621Y1276D01*
X1Y1275D02*
X8Y1275D01*
X256Y1275D02*
X263Y1275D01*
X1348Y1275D02*
X1355Y1275D01*
X1614Y1275D02*
X1621Y1275D01*
X1Y1274D02*
X8Y1274D01*
X256Y1274D02*
X263Y1274D01*
X1348Y1274D02*
X1355Y1274D01*
X1614Y1274D02*
X1621Y1274D01*
X1Y1273D02*
X8Y1273D01*
X256Y1273D02*
X263Y1273D01*
X1348Y1273D02*
X1355Y1273D01*
X1614Y1273D02*
X1621Y1273D01*
X1Y1272D02*
X8Y1272D01*
X256Y1272D02*
X263Y1272D01*
X1348Y1272D02*
X1355Y1272D01*
X1614Y1272D02*
X1621Y1272D01*
X1Y1271D02*
X8Y1271D01*
X256Y1271D02*
X263Y1271D01*
X1348Y1271D02*
X1355Y1271D01*
X1614Y1271D02*
X1621Y1271D01*
X1Y1270D02*
X8Y1270D01*
X256Y1270D02*
X263Y1270D01*
X1348Y1270D02*
X1355Y1270D01*
X1614Y1270D02*
X1621Y1270D01*
X1Y1269D02*
X8Y1269D01*
X256Y1269D02*
X263Y1269D01*
X1348Y1269D02*
X1355Y1269D01*
X1614Y1269D02*
X1621Y1269D01*
X1Y1268D02*
X8Y1268D01*
X256Y1268D02*
X263Y1268D01*
X1348Y1268D02*
X1355Y1268D01*
X1614Y1268D02*
X1621Y1268D01*
X1Y1267D02*
X8Y1267D01*
X256Y1267D02*
X263Y1267D01*
X1348Y1267D02*
X1355Y1267D01*
X1614Y1267D02*
X1621Y1267D01*
X1Y1266D02*
X8Y1266D01*
X256Y1266D02*
X263Y1266D01*
X1348Y1266D02*
X1355Y1266D01*
X1614Y1266D02*
X1621Y1266D01*
X1Y1265D02*
X8Y1265D01*
X256Y1265D02*
X263Y1265D01*
X1348Y1265D02*
X1355Y1265D01*
X1614Y1265D02*
X1621Y1265D01*
X1Y1264D02*
X8Y1264D01*
X256Y1264D02*
X263Y1264D01*
X1348Y1264D02*
X1355Y1264D01*
X1614Y1264D02*
X1621Y1264D01*
X1Y1263D02*
X8Y1263D01*
X256Y1263D02*
X263Y1263D01*
X1348Y1263D02*
X1355Y1263D01*
X1614Y1263D02*
X1621Y1263D01*
X1Y1262D02*
X8Y1262D01*
X256Y1262D02*
X263Y1262D01*
X1348Y1262D02*
X1355Y1262D01*
X1614Y1262D02*
X1621Y1262D01*
X1Y1261D02*
X8Y1261D01*
X256Y1261D02*
X263Y1261D01*
X1348Y1261D02*
X1355Y1261D01*
X1614Y1261D02*
X1621Y1261D01*
X1Y1260D02*
X8Y1260D01*
X256Y1260D02*
X263Y1260D01*
X1348Y1260D02*
X1355Y1260D01*
X1614Y1260D02*
X1621Y1260D01*
X1Y1259D02*
X8Y1259D01*
X256Y1259D02*
X263Y1259D01*
X1348Y1259D02*
X1355Y1259D01*
X1614Y1259D02*
X1621Y1259D01*
X1Y1258D02*
X8Y1258D01*
X256Y1258D02*
X263Y1258D01*
X1348Y1258D02*
X1355Y1258D01*
X1614Y1258D02*
X1621Y1258D01*
X1Y1257D02*
X8Y1257D01*
X256Y1257D02*
X263Y1257D01*
X1348Y1257D02*
X1355Y1257D01*
X1614Y1257D02*
X1621Y1257D01*
X1Y1256D02*
X8Y1256D01*
X256Y1256D02*
X263Y1256D01*
X1348Y1256D02*
X1355Y1256D01*
X1614Y1256D02*
X1621Y1256D01*
X1Y1255D02*
X8Y1255D01*
X256Y1255D02*
X263Y1255D01*
X1348Y1255D02*
X1355Y1255D01*
X1614Y1255D02*
X1621Y1255D01*
X1Y1254D02*
X8Y1254D01*
X256Y1254D02*
X263Y1254D01*
X1348Y1254D02*
X1355Y1254D01*
X1614Y1254D02*
X1621Y1254D01*
X1Y1253D02*
X8Y1253D01*
X256Y1253D02*
X263Y1253D01*
X1348Y1253D02*
X1355Y1253D01*
X1614Y1253D02*
X1621Y1253D01*
X1Y1252D02*
X8Y1252D01*
X256Y1252D02*
X263Y1252D01*
X1348Y1252D02*
X1355Y1252D01*
X1614Y1252D02*
X1621Y1252D01*
X1Y1251D02*
X8Y1251D01*
X256Y1251D02*
X263Y1251D01*
X1348Y1251D02*
X1355Y1251D01*
X1614Y1251D02*
X1621Y1251D01*
X1Y1250D02*
X8Y1250D01*
X256Y1250D02*
X263Y1250D01*
X1348Y1250D02*
X1355Y1250D01*
X1614Y1250D02*
X1621Y1250D01*
X1Y1249D02*
X8Y1249D01*
X256Y1249D02*
X263Y1249D01*
X1348Y1249D02*
X1355Y1249D01*
X1614Y1249D02*
X1621Y1249D01*
X1Y1248D02*
X8Y1248D01*
X256Y1248D02*
X263Y1248D01*
X1348Y1248D02*
X1355Y1248D01*
X1614Y1248D02*
X1621Y1248D01*
X1Y1247D02*
X8Y1247D01*
X256Y1247D02*
X263Y1247D01*
X1348Y1247D02*
X1355Y1247D01*
X1614Y1247D02*
X1621Y1247D01*
X1Y1246D02*
X8Y1246D01*
X256Y1246D02*
X263Y1246D01*
X1348Y1246D02*
X1355Y1246D01*
X1614Y1246D02*
X1621Y1246D01*
X1Y1245D02*
X8Y1245D01*
X256Y1245D02*
X263Y1245D01*
X1348Y1245D02*
X1355Y1245D01*
X1614Y1245D02*
X1621Y1245D01*
X1Y1244D02*
X8Y1244D01*
X256Y1244D02*
X263Y1244D01*
X1348Y1244D02*
X1355Y1244D01*
X1614Y1244D02*
X1621Y1244D01*
X1Y1243D02*
X8Y1243D01*
X256Y1243D02*
X263Y1243D01*
X1348Y1243D02*
X1355Y1243D01*
X1614Y1243D02*
X1621Y1243D01*
X1Y1242D02*
X8Y1242D01*
X256Y1242D02*
X263Y1242D01*
X1348Y1242D02*
X1355Y1242D01*
X1614Y1242D02*
X1621Y1242D01*
X1Y1241D02*
X8Y1241D01*
X256Y1241D02*
X263Y1241D01*
X1348Y1241D02*
X1355Y1241D01*
X1614Y1241D02*
X1621Y1241D01*
X1Y1240D02*
X8Y1240D01*
X256Y1240D02*
X263Y1240D01*
X1348Y1240D02*
X1355Y1240D01*
X1614Y1240D02*
X1621Y1240D01*
X1Y1239D02*
X8Y1239D01*
X256Y1239D02*
X263Y1239D01*
X1348Y1239D02*
X1355Y1239D01*
X1614Y1239D02*
X1621Y1239D01*
X1Y1238D02*
X8Y1238D01*
X256Y1238D02*
X263Y1238D01*
X1348Y1238D02*
X1355Y1238D01*
X1614Y1238D02*
X1621Y1238D01*
X1Y1237D02*
X8Y1237D01*
X256Y1237D02*
X263Y1237D01*
X1348Y1237D02*
X1355Y1237D01*
X1614Y1237D02*
X1621Y1237D01*
X1Y1236D02*
X8Y1236D01*
X256Y1236D02*
X263Y1236D01*
X1348Y1236D02*
X1355Y1236D01*
X1614Y1236D02*
X1621Y1236D01*
X1Y1235D02*
X8Y1235D01*
X256Y1235D02*
X263Y1235D01*
X1348Y1235D02*
X1355Y1235D01*
X1614Y1235D02*
X1621Y1235D01*
X1Y1234D02*
X8Y1234D01*
X256Y1234D02*
X263Y1234D01*
X1348Y1234D02*
X1355Y1234D01*
X1614Y1234D02*
X1621Y1234D01*
X1Y1233D02*
X8Y1233D01*
X256Y1233D02*
X263Y1233D01*
X1348Y1233D02*
X1355Y1233D01*
X1614Y1233D02*
X1621Y1233D01*
X1Y1232D02*
X8Y1232D01*
X256Y1232D02*
X263Y1232D01*
X1348Y1232D02*
X1355Y1232D01*
X1614Y1232D02*
X1621Y1232D01*
X1Y1231D02*
X8Y1231D01*
X256Y1231D02*
X263Y1231D01*
X1348Y1231D02*
X1355Y1231D01*
X1614Y1231D02*
X1621Y1231D01*
X1Y1230D02*
X8Y1230D01*
X256Y1230D02*
X263Y1230D01*
X1348Y1230D02*
X1355Y1230D01*
X1614Y1230D02*
X1621Y1230D01*
X1Y1229D02*
X8Y1229D01*
X256Y1229D02*
X263Y1229D01*
X1348Y1229D02*
X1355Y1229D01*
X1614Y1229D02*
X1621Y1229D01*
X1Y1228D02*
X8Y1228D01*
X256Y1228D02*
X263Y1228D01*
X1348Y1228D02*
X1355Y1228D01*
X1614Y1228D02*
X1621Y1228D01*
X1Y1227D02*
X8Y1227D01*
X256Y1227D02*
X263Y1227D01*
X1348Y1227D02*
X1355Y1227D01*
X1614Y1227D02*
X1621Y1227D01*
X1Y1226D02*
X8Y1226D01*
X256Y1226D02*
X263Y1226D01*
X1348Y1226D02*
X1355Y1226D01*
X1614Y1226D02*
X1621Y1226D01*
X1Y1225D02*
X8Y1225D01*
X256Y1225D02*
X263Y1225D01*
X1348Y1225D02*
X1355Y1225D01*
X1614Y1225D02*
X1621Y1225D01*
X1Y1224D02*
X8Y1224D01*
X256Y1224D02*
X263Y1224D01*
X1348Y1224D02*
X1355Y1224D01*
X1614Y1224D02*
X1621Y1224D01*
X1Y1223D02*
X8Y1223D01*
X256Y1223D02*
X263Y1223D01*
X1348Y1223D02*
X1355Y1223D01*
X1614Y1223D02*
X1621Y1223D01*
X1Y1222D02*
X8Y1222D01*
X256Y1222D02*
X263Y1222D01*
X1348Y1222D02*
X1355Y1222D01*
X1614Y1222D02*
X1621Y1222D01*
X1Y1221D02*
X8Y1221D01*
X256Y1221D02*
X263Y1221D01*
X1348Y1221D02*
X1355Y1221D01*
X1614Y1221D02*
X1621Y1221D01*
X1Y1220D02*
X8Y1220D01*
X256Y1220D02*
X263Y1220D01*
X1348Y1220D02*
X1354Y1220D01*
X1614Y1220D02*
X1621Y1220D01*
X1Y1219D02*
X8Y1219D01*
X256Y1219D02*
X263Y1219D01*
X1347Y1219D02*
X1354Y1219D01*
X1614Y1219D02*
X1621Y1219D01*
X1Y1218D02*
X8Y1218D01*
X256Y1218D02*
X263Y1218D01*
X1347Y1218D02*
X1354Y1218D01*
X1614Y1218D02*
X1621Y1218D01*
X1Y1217D02*
X8Y1217D01*
X256Y1217D02*
X263Y1217D01*
X1347Y1217D02*
X1354Y1217D01*
X1614Y1217D02*
X1621Y1217D01*
X1Y1216D02*
X8Y1216D01*
X256Y1216D02*
X263Y1216D01*
X1347Y1216D02*
X1354Y1216D01*
X1614Y1216D02*
X1621Y1216D01*
X1Y1215D02*
X8Y1215D01*
X256Y1215D02*
X263Y1215D01*
X1347Y1215D02*
X1354Y1215D01*
X1614Y1215D02*
X1621Y1215D01*
X1Y1214D02*
X8Y1214D01*
X257Y1214D02*
X264Y1214D01*
X1347Y1214D02*
X1354Y1214D01*
X1614Y1214D02*
X1621Y1214D01*
X1Y1213D02*
X8Y1213D01*
X257Y1213D02*
X264Y1213D01*
X1347Y1213D02*
X1354Y1213D01*
X1614Y1213D02*
X1621Y1213D01*
X1Y1212D02*
X8Y1212D01*
X257Y1212D02*
X264Y1212D01*
X1347Y1212D02*
X1354Y1212D01*
X1614Y1212D02*
X1621Y1212D01*
X1Y1211D02*
X8Y1211D01*
X257Y1211D02*
X264Y1211D01*
X1346Y1211D02*
X1353Y1211D01*
X1614Y1211D02*
X1621Y1211D01*
X1Y1210D02*
X8Y1210D01*
X257Y1210D02*
X264Y1210D01*
X1346Y1210D02*
X1353Y1210D01*
X1614Y1210D02*
X1621Y1210D01*
X1Y1209D02*
X8Y1209D01*
X257Y1209D02*
X264Y1209D01*
X1346Y1209D02*
X1353Y1209D01*
X1614Y1209D02*
X1621Y1209D01*
X1Y1208D02*
X8Y1208D01*
X258Y1208D02*
X265Y1208D01*
X1346Y1208D02*
X1353Y1208D01*
X1614Y1208D02*
X1621Y1208D01*
X1Y1207D02*
X8Y1207D01*
X258Y1207D02*
X265Y1207D01*
X1346Y1207D02*
X1353Y1207D01*
X1614Y1207D02*
X1621Y1207D01*
X1Y1206D02*
X8Y1206D01*
X258Y1206D02*
X265Y1206D01*
X1345Y1206D02*
X1353Y1206D01*
X1614Y1206D02*
X1621Y1206D01*
X1Y1205D02*
X8Y1205D01*
X258Y1205D02*
X265Y1205D01*
X1345Y1205D02*
X1352Y1205D01*
X1614Y1205D02*
X1621Y1205D01*
X1Y1204D02*
X8Y1204D01*
X258Y1204D02*
X266Y1204D01*
X1345Y1204D02*
X1352Y1204D01*
X1614Y1204D02*
X1621Y1204D01*
X1Y1203D02*
X8Y1203D01*
X259Y1203D02*
X266Y1203D01*
X1345Y1203D02*
X1352Y1203D01*
X1614Y1203D02*
X1621Y1203D01*
X1Y1202D02*
X8Y1202D01*
X259Y1202D02*
X266Y1202D01*
X1344Y1202D02*
X1352Y1202D01*
X1614Y1202D02*
X1621Y1202D01*
X1Y1201D02*
X8Y1201D01*
X259Y1201D02*
X266Y1201D01*
X1344Y1201D02*
X1351Y1201D01*
X1614Y1201D02*
X1621Y1201D01*
X1Y1200D02*
X8Y1200D01*
X259Y1200D02*
X267Y1200D01*
X1344Y1200D02*
X1351Y1200D01*
X1614Y1200D02*
X1621Y1200D01*
X1Y1199D02*
X8Y1199D01*
X260Y1199D02*
X267Y1199D01*
X1344Y1199D02*
X1351Y1199D01*
X1614Y1199D02*
X1621Y1199D01*
X1Y1198D02*
X8Y1198D01*
X260Y1198D02*
X267Y1198D01*
X1343Y1198D02*
X1350Y1198D01*
X1614Y1198D02*
X1621Y1198D01*
X1Y1197D02*
X8Y1197D01*
X260Y1197D02*
X268Y1197D01*
X1343Y1197D02*
X1350Y1197D01*
X1614Y1197D02*
X1621Y1197D01*
X1Y1196D02*
X8Y1196D01*
X261Y1196D02*
X268Y1196D01*
X1343Y1196D02*
X1350Y1196D01*
X1614Y1196D02*
X1621Y1196D01*
X1Y1195D02*
X8Y1195D01*
X261Y1195D02*
X268Y1195D01*
X1342Y1195D02*
X1350Y1195D01*
X1614Y1195D02*
X1621Y1195D01*
X1Y1194D02*
X8Y1194D01*
X261Y1194D02*
X269Y1194D01*
X1342Y1194D02*
X1349Y1194D01*
X1614Y1194D02*
X1621Y1194D01*
X1Y1193D02*
X8Y1193D01*
X262Y1193D02*
X269Y1193D01*
X1341Y1193D02*
X1349Y1193D01*
X1614Y1193D02*
X1621Y1193D01*
X1Y1192D02*
X8Y1192D01*
X262Y1192D02*
X269Y1192D01*
X1341Y1192D02*
X1348Y1192D01*
X1614Y1192D02*
X1621Y1192D01*
X1Y1191D02*
X8Y1191D01*
X262Y1191D02*
X270Y1191D01*
X1341Y1191D02*
X1348Y1191D01*
X1614Y1191D02*
X1621Y1191D01*
X1Y1190D02*
X8Y1190D01*
X263Y1190D02*
X270Y1190D01*
X1340Y1190D02*
X1348Y1190D01*
X1614Y1190D02*
X1621Y1190D01*
X1Y1189D02*
X8Y1189D01*
X263Y1189D02*
X271Y1189D01*
X1340Y1189D02*
X1347Y1189D01*
X1614Y1189D02*
X1621Y1189D01*
X1Y1188D02*
X8Y1188D01*
X264Y1188D02*
X271Y1188D01*
X1339Y1188D02*
X1347Y1188D01*
X1614Y1188D02*
X1621Y1188D01*
X1Y1187D02*
X8Y1187D01*
X264Y1187D02*
X272Y1187D01*
X1339Y1187D02*
X1346Y1187D01*
X1614Y1187D02*
X1621Y1187D01*
X1Y1186D02*
X8Y1186D01*
X264Y1186D02*
X272Y1186D01*
X1338Y1186D02*
X1346Y1186D01*
X1614Y1186D02*
X1621Y1186D01*
X1Y1185D02*
X8Y1185D01*
X265Y1185D02*
X273Y1185D01*
X1338Y1185D02*
X1346Y1185D01*
X1614Y1185D02*
X1621Y1185D01*
X1Y1184D02*
X8Y1184D01*
X265Y1184D02*
X273Y1184D01*
X1337Y1184D02*
X1345Y1184D01*
X1614Y1184D02*
X1621Y1184D01*
X1Y1183D02*
X8Y1183D01*
X266Y1183D02*
X274Y1183D01*
X1337Y1183D02*
X1345Y1183D01*
X1614Y1183D02*
X1621Y1183D01*
X1Y1182D02*
X8Y1182D01*
X266Y1182D02*
X274Y1182D01*
X1336Y1182D02*
X1344Y1182D01*
X1614Y1182D02*
X1621Y1182D01*
X1Y1181D02*
X8Y1181D01*
X267Y1181D02*
X275Y1181D01*
X1336Y1181D02*
X1344Y1181D01*
X1614Y1181D02*
X1621Y1181D01*
X1Y1180D02*
X8Y1180D01*
X267Y1180D02*
X275Y1180D01*
X1335Y1180D02*
X1343Y1180D01*
X1614Y1180D02*
X1621Y1180D01*
X1Y1179D02*
X8Y1179D01*
X268Y1179D02*
X276Y1179D01*
X1334Y1179D02*
X1343Y1179D01*
X1614Y1179D02*
X1621Y1179D01*
X1Y1178D02*
X8Y1178D01*
X268Y1178D02*
X277Y1178D01*
X1334Y1178D02*
X1342Y1178D01*
X1614Y1178D02*
X1621Y1178D01*
X1Y1177D02*
X8Y1177D01*
X269Y1177D02*
X277Y1177D01*
X1333Y1177D02*
X1342Y1177D01*
X1614Y1177D02*
X1621Y1177D01*
X1Y1176D02*
X8Y1176D01*
X270Y1176D02*
X278Y1176D01*
X1333Y1176D02*
X1341Y1176D01*
X1614Y1176D02*
X1621Y1176D01*
X1Y1175D02*
X8Y1175D01*
X270Y1175D02*
X279Y1175D01*
X1332Y1175D02*
X1340Y1175D01*
X1614Y1175D02*
X1621Y1175D01*
X1Y1174D02*
X8Y1174D01*
X271Y1174D02*
X279Y1174D01*
X1331Y1174D02*
X1340Y1174D01*
X1614Y1174D02*
X1621Y1174D01*
X1Y1173D02*
X8Y1173D01*
X271Y1173D02*
X280Y1173D01*
X1330Y1173D02*
X1339Y1173D01*
X1614Y1173D02*
X1621Y1173D01*
X1Y1172D02*
X8Y1172D01*
X272Y1172D02*
X281Y1172D01*
X1330Y1172D02*
X1339Y1172D01*
X1614Y1172D02*
X1621Y1172D01*
X1Y1171D02*
X8Y1171D01*
X273Y1171D02*
X281Y1171D01*
X1329Y1171D02*
X1338Y1171D01*
X1614Y1171D02*
X1621Y1171D01*
X1Y1170D02*
X8Y1170D01*
X273Y1170D02*
X282Y1170D01*
X1328Y1170D02*
X1337Y1170D01*
X1614Y1170D02*
X1621Y1170D01*
X1Y1169D02*
X8Y1169D01*
X274Y1169D02*
X283Y1169D01*
X1328Y1169D02*
X1336Y1169D01*
X1614Y1169D02*
X1621Y1169D01*
X1Y1168D02*
X8Y1168D01*
X275Y1168D02*
X284Y1168D01*
X1327Y1168D02*
X1336Y1168D01*
X1614Y1168D02*
X1621Y1168D01*
X1Y1167D02*
X8Y1167D01*
X275Y1167D02*
X285Y1167D01*
X1326Y1167D02*
X1335Y1167D01*
X1614Y1167D02*
X1621Y1167D01*
X1Y1166D02*
X8Y1166D01*
X276Y1166D02*
X286Y1166D01*
X1325Y1166D02*
X1334Y1166D01*
X1614Y1166D02*
X1621Y1166D01*
X1Y1165D02*
X8Y1165D01*
X277Y1165D02*
X287Y1165D01*
X1324Y1165D02*
X1334Y1165D01*
X1614Y1165D02*
X1621Y1165D01*
X1Y1164D02*
X8Y1164D01*
X278Y1164D02*
X287Y1164D01*
X1323Y1164D02*
X1333Y1164D01*
X1614Y1164D02*
X1621Y1164D01*
X1Y1163D02*
X8Y1163D01*
X279Y1163D02*
X288Y1163D01*
X1322Y1163D02*
X1332Y1163D01*
X1614Y1163D02*
X1621Y1163D01*
X1Y1162D02*
X8Y1162D01*
X279Y1162D02*
X289Y1162D01*
X1321Y1162D02*
X1331Y1162D01*
X1614Y1162D02*
X1621Y1162D01*
X1Y1161D02*
X8Y1161D01*
X280Y1161D02*
X290Y1161D01*
X1320Y1161D02*
X1330Y1161D01*
X1614Y1161D02*
X1621Y1161D01*
X1Y1160D02*
X8Y1160D01*
X281Y1160D02*
X291Y1160D01*
X1319Y1160D02*
X1329Y1160D01*
X1614Y1160D02*
X1621Y1160D01*
X1Y1159D02*
X8Y1159D01*
X282Y1159D02*
X292Y1159D01*
X1318Y1159D02*
X1328Y1159D01*
X1614Y1159D02*
X1621Y1159D01*
X1Y1158D02*
X8Y1158D01*
X283Y1158D02*
X294Y1158D01*
X1317Y1158D02*
X1328Y1158D01*
X1614Y1158D02*
X1621Y1158D01*
X1Y1157D02*
X8Y1157D01*
X284Y1157D02*
X295Y1157D01*
X1316Y1157D02*
X1327Y1157D01*
X1614Y1157D02*
X1621Y1157D01*
X1Y1156D02*
X8Y1156D01*
X285Y1156D02*
X296Y1156D01*
X1315Y1156D02*
X1326Y1156D01*
X1614Y1156D02*
X1621Y1156D01*
X1Y1155D02*
X8Y1155D01*
X286Y1155D02*
X297Y1155D01*
X1314Y1155D02*
X1325Y1155D01*
X1614Y1155D02*
X1621Y1155D01*
X1Y1154D02*
X8Y1154D01*
X287Y1154D02*
X298Y1154D01*
X1312Y1154D02*
X1324Y1154D01*
X1614Y1154D02*
X1621Y1154D01*
X1Y1153D02*
X8Y1153D01*
X288Y1153D02*
X300Y1153D01*
X1311Y1153D02*
X1322Y1153D01*
X1614Y1153D02*
X1621Y1153D01*
X1Y1152D02*
X8Y1152D01*
X289Y1152D02*
X301Y1152D01*
X1310Y1152D02*
X1321Y1152D01*
X1614Y1152D02*
X1621Y1152D01*
X1Y1151D02*
X8Y1151D01*
X290Y1151D02*
X302Y1151D01*
X1308Y1151D02*
X1320Y1151D01*
X1614Y1151D02*
X1621Y1151D01*
X1Y1150D02*
X8Y1150D01*
X291Y1150D02*
X304Y1150D01*
X1307Y1150D02*
X1319Y1150D01*
X1614Y1150D02*
X1621Y1150D01*
X1Y1149D02*
X8Y1149D01*
X293Y1149D02*
X305Y1149D01*
X1305Y1149D02*
X1318Y1149D01*
X1614Y1149D02*
X1621Y1149D01*
X1Y1148D02*
X8Y1148D01*
X294Y1148D02*
X307Y1148D01*
X1304Y1148D02*
X1317Y1148D01*
X1614Y1148D02*
X1621Y1148D01*
X1Y1147D02*
X8Y1147D01*
X295Y1147D02*
X309Y1147D01*
X1302Y1147D02*
X1315Y1147D01*
X1614Y1147D02*
X1621Y1147D01*
X1Y1146D02*
X8Y1146D01*
X297Y1146D02*
X310Y1146D01*
X1300Y1146D02*
X1314Y1146D01*
X1614Y1146D02*
X1621Y1146D01*
X1Y1145D02*
X8Y1145D01*
X298Y1145D02*
X312Y1145D01*
X1298Y1145D02*
X1313Y1145D01*
X1614Y1145D02*
X1621Y1145D01*
X1Y1144D02*
X8Y1144D01*
X299Y1144D02*
X314Y1144D01*
X1296Y1144D02*
X1311Y1144D01*
X1614Y1144D02*
X1621Y1144D01*
X1Y1143D02*
X8Y1143D01*
X301Y1143D02*
X316Y1143D01*
X1294Y1143D02*
X1310Y1143D01*
X1614Y1143D02*
X1621Y1143D01*
X1Y1142D02*
X8Y1142D01*
X302Y1142D02*
X319Y1142D01*
X1292Y1142D02*
X1308Y1142D01*
X1614Y1142D02*
X1621Y1142D01*
X1Y1141D02*
X8Y1141D01*
X304Y1141D02*
X321Y1141D01*
X1290Y1141D02*
X1306Y1141D01*
X1614Y1141D02*
X1621Y1141D01*
X1Y1140D02*
X8Y1140D01*
X306Y1140D02*
X323Y1140D01*
X1287Y1140D02*
X1305Y1140D01*
X1614Y1140D02*
X1621Y1140D01*
X1Y1139D02*
X8Y1139D01*
X308Y1139D02*
X326Y1139D01*
X1284Y1139D02*
X1303Y1139D01*
X1614Y1139D02*
X1621Y1139D01*
X1Y1138D02*
X8Y1138D01*
X309Y1138D02*
X329Y1138D01*
X1281Y1138D02*
X1301Y1138D01*
X1614Y1138D02*
X1621Y1138D01*
X1Y1137D02*
X8Y1137D01*
X311Y1137D02*
X333Y1137D01*
X1277Y1137D02*
X1299Y1137D01*
X1614Y1137D02*
X1621Y1137D01*
X1Y1136D02*
X8Y1136D01*
X314Y1136D02*
X338Y1136D01*
X1272Y1136D02*
X1297Y1136D01*
X1614Y1136D02*
X1621Y1136D01*
X1Y1135D02*
X8Y1135D01*
X316Y1135D02*
X346Y1135D01*
X1265Y1135D02*
X1295Y1135D01*
X1614Y1135D02*
X1621Y1135D01*
X1Y1134D02*
X8Y1134D01*
X318Y1134D02*
X1292Y1134D01*
X1614Y1134D02*
X1621Y1134D01*
X1Y1133D02*
X8Y1133D01*
X321Y1133D02*
X1290Y1133D01*
X1614Y1133D02*
X1621Y1133D01*
X1Y1132D02*
X8Y1132D01*
X323Y1132D02*
X1287Y1132D01*
X1614Y1132D02*
X1621Y1132D01*
X1Y1131D02*
X8Y1131D01*
X327Y1131D02*
X1284Y1131D01*
X1614Y1131D02*
X1621Y1131D01*
X1Y1130D02*
X8Y1130D01*
X330Y1130D02*
X1280Y1130D01*
X1614Y1130D02*
X1621Y1130D01*
X1Y1129D02*
X8Y1129D01*
X334Y1129D02*
X1277Y1129D01*
X1614Y1129D02*
X1621Y1129D01*
X1Y1128D02*
X8Y1128D01*
X339Y1128D02*
X1271Y1128D01*
X1614Y1128D02*
X1621Y1128D01*
X1Y1127D02*
X8Y1127D01*
X347Y1127D02*
X1264Y1127D01*
X1614Y1127D02*
X1621Y1127D01*
X1Y1126D02*
X8Y1126D01*
X1614Y1126D02*
X1621Y1126D01*
X1Y1125D02*
X8Y1125D01*
X1614Y1125D02*
X1621Y1125D01*
X1Y1124D02*
X8Y1124D01*
X1614Y1124D02*
X1621Y1124D01*
X1Y1123D02*
X8Y1123D01*
X1614Y1123D02*
X1621Y1123D01*
X1Y1122D02*
X8Y1122D01*
X1614Y1122D02*
X1621Y1122D01*
X1Y1121D02*
X8Y1121D01*
X1614Y1121D02*
X1621Y1121D01*
X1Y1120D02*
X8Y1120D01*
X1614Y1120D02*
X1621Y1120D01*
X1Y1119D02*
X8Y1119D01*
X1614Y1119D02*
X1621Y1119D01*
X1Y1118D02*
X8Y1118D01*
X1614Y1118D02*
X1621Y1118D01*
X1Y1117D02*
X8Y1117D01*
X1614Y1117D02*
X1621Y1117D01*
X1Y1116D02*
X8Y1116D01*
X1614Y1116D02*
X1621Y1116D01*
X1Y1115D02*
X8Y1115D01*
X1614Y1115D02*
X1621Y1115D01*
X1Y1114D02*
X8Y1114D01*
X1614Y1114D02*
X1621Y1114D01*
X1Y1113D02*
X8Y1113D01*
X1614Y1113D02*
X1621Y1113D01*
X1Y1112D02*
X8Y1112D01*
X1614Y1112D02*
X1621Y1112D01*
X1Y1111D02*
X8Y1111D01*
X1614Y1111D02*
X1621Y1111D01*
X1Y1110D02*
X8Y1110D01*
X1614Y1110D02*
X1621Y1110D01*
X1Y1109D02*
X8Y1109D01*
X1614Y1109D02*
X1621Y1109D01*
X1Y1108D02*
X8Y1108D01*
X1614Y1108D02*
X1621Y1108D01*
X1Y1107D02*
X8Y1107D01*
X1614Y1107D02*
X1621Y1107D01*
X1Y1106D02*
X8Y1106D01*
X1614Y1106D02*
X1621Y1106D01*
X1Y1105D02*
X8Y1105D01*
X1614Y1105D02*
X1621Y1105D01*
X1Y1104D02*
X8Y1104D01*
X1614Y1104D02*
X1621Y1104D01*
X1Y1103D02*
X8Y1103D01*
X1614Y1103D02*
X1621Y1103D01*
X1Y1102D02*
X8Y1102D01*
X1614Y1102D02*
X1621Y1102D01*
X1Y1101D02*
X8Y1101D01*
X1614Y1101D02*
X1621Y1101D01*
X1Y1100D02*
X8Y1100D01*
X1614Y1100D02*
X1621Y1100D01*
X1Y1099D02*
X8Y1099D01*
X1614Y1099D02*
X1621Y1099D01*
X1Y1098D02*
X8Y1098D01*
X1614Y1098D02*
X1621Y1098D01*
X1Y1097D02*
X8Y1097D01*
X1614Y1097D02*
X1621Y1097D01*
X1Y1096D02*
X8Y1096D01*
X1614Y1096D02*
X1621Y1096D01*
X1Y1095D02*
X8Y1095D01*
X1614Y1095D02*
X1621Y1095D01*
X1Y1094D02*
X8Y1094D01*
X1614Y1094D02*
X1621Y1094D01*
X1Y1093D02*
X8Y1093D01*
X1614Y1093D02*
X1621Y1093D01*
X1Y1092D02*
X8Y1092D01*
X1614Y1092D02*
X1621Y1092D01*
X1Y1091D02*
X8Y1091D01*
X1614Y1091D02*
X1621Y1091D01*
X1Y1090D02*
X8Y1090D01*
X1614Y1090D02*
X1621Y1090D01*
X1Y1089D02*
X8Y1089D01*
X1614Y1089D02*
X1621Y1089D01*
X1Y1088D02*
X8Y1088D01*
X1614Y1088D02*
X1621Y1088D01*
X1Y1087D02*
X8Y1087D01*
X1614Y1087D02*
X1621Y1087D01*
X1Y1086D02*
X8Y1086D01*
X1614Y1086D02*
X1621Y1086D01*
X1Y1085D02*
X8Y1085D01*
X1614Y1085D02*
X1621Y1085D01*
X1Y1084D02*
X8Y1084D01*
X1614Y1084D02*
X1621Y1084D01*
X1Y1083D02*
X8Y1083D01*
X1614Y1083D02*
X1621Y1083D01*
X1Y1082D02*
X8Y1082D01*
X1614Y1082D02*
X1621Y1082D01*
X1Y1081D02*
X8Y1081D01*
X1614Y1081D02*
X1621Y1081D01*
X1Y1080D02*
X8Y1080D01*
X1614Y1080D02*
X1621Y1080D01*
X1Y1079D02*
X8Y1079D01*
X1614Y1079D02*
X1621Y1079D01*
X1Y1078D02*
X8Y1078D01*
X1614Y1078D02*
X1621Y1078D01*
X1Y1077D02*
X8Y1077D01*
X1614Y1077D02*
X1621Y1077D01*
X1Y1076D02*
X8Y1076D01*
X1614Y1076D02*
X1621Y1076D01*
X1Y1075D02*
X8Y1075D01*
X1614Y1075D02*
X1621Y1075D01*
X1Y1074D02*
X8Y1074D01*
X1614Y1074D02*
X1621Y1074D01*
X1Y1073D02*
X8Y1073D01*
X1614Y1073D02*
X1621Y1073D01*
X1Y1072D02*
X8Y1072D01*
X1614Y1072D02*
X1621Y1072D01*
X1Y1071D02*
X8Y1071D01*
X1614Y1071D02*
X1621Y1071D01*
X1Y1070D02*
X8Y1070D01*
X1614Y1070D02*
X1621Y1070D01*
X1Y1069D02*
X8Y1069D01*
X1614Y1069D02*
X1621Y1069D01*
X1Y1068D02*
X8Y1068D01*
X1614Y1068D02*
X1621Y1068D01*
X1Y1067D02*
X8Y1067D01*
X1614Y1067D02*
X1621Y1067D01*
X1Y1066D02*
X8Y1066D01*
X1614Y1066D02*
X1621Y1066D01*
X1Y1065D02*
X8Y1065D01*
X1614Y1065D02*
X1621Y1065D01*
X1Y1064D02*
X8Y1064D01*
X1614Y1064D02*
X1621Y1064D01*
X1Y1063D02*
X8Y1063D01*
X1614Y1063D02*
X1621Y1063D01*
X1Y1062D02*
X8Y1062D01*
X1614Y1062D02*
X1621Y1062D01*
X1Y1061D02*
X8Y1061D01*
X1614Y1061D02*
X1621Y1061D01*
X1Y1060D02*
X8Y1060D01*
X1614Y1060D02*
X1621Y1060D01*
X1Y1059D02*
X8Y1059D01*
X1614Y1059D02*
X1621Y1059D01*
X1Y1058D02*
X8Y1058D01*
X1614Y1058D02*
X1621Y1058D01*
X1Y1057D02*
X8Y1057D01*
X1614Y1057D02*
X1621Y1057D01*
X1Y1056D02*
X8Y1056D01*
X1614Y1056D02*
X1621Y1056D01*
X1Y1055D02*
X8Y1055D01*
X1614Y1055D02*
X1621Y1055D01*
X1Y1054D02*
X8Y1054D01*
X1614Y1054D02*
X1621Y1054D01*
X1Y1053D02*
X8Y1053D01*
X1614Y1053D02*
X1621Y1053D01*
X1Y1052D02*
X8Y1052D01*
X1614Y1052D02*
X1621Y1052D01*
X1Y1051D02*
X8Y1051D01*
X1614Y1051D02*
X1621Y1051D01*
X1Y1050D02*
X8Y1050D01*
X1614Y1050D02*
X1621Y1050D01*
X1Y1049D02*
X8Y1049D01*
X1614Y1049D02*
X1621Y1049D01*
X1Y1048D02*
X8Y1048D01*
X1614Y1048D02*
X1621Y1048D01*
X1Y1047D02*
X8Y1047D01*
X1614Y1047D02*
X1621Y1047D01*
X1Y1046D02*
X8Y1046D01*
X1614Y1046D02*
X1621Y1046D01*
X1Y1045D02*
X8Y1045D01*
X1614Y1045D02*
X1621Y1045D01*
X1Y1044D02*
X8Y1044D01*
X1614Y1044D02*
X1621Y1044D01*
X1Y1043D02*
X8Y1043D01*
X1614Y1043D02*
X1621Y1043D01*
X1Y1042D02*
X8Y1042D01*
X1614Y1042D02*
X1621Y1042D01*
X1Y1041D02*
X8Y1041D01*
X1614Y1041D02*
X1621Y1041D01*
X1Y1040D02*
X8Y1040D01*
X1614Y1040D02*
X1621Y1040D01*
X1Y1039D02*
X8Y1039D01*
X1614Y1039D02*
X1621Y1039D01*
X1Y1038D02*
X8Y1038D01*
X1614Y1038D02*
X1621Y1038D01*
X1Y1037D02*
X8Y1037D01*
X1614Y1037D02*
X1621Y1037D01*
X1Y1036D02*
X8Y1036D01*
X1614Y1036D02*
X1621Y1036D01*
X1Y1035D02*
X8Y1035D01*
X1614Y1035D02*
X1621Y1035D01*
X1Y1034D02*
X8Y1034D01*
X1614Y1034D02*
X1621Y1034D01*
X1Y1033D02*
X8Y1033D01*
X1614Y1033D02*
X1621Y1033D01*
X1Y1032D02*
X8Y1032D01*
X1614Y1032D02*
X1621Y1032D01*
X1Y1031D02*
X8Y1031D01*
X1614Y1031D02*
X1621Y1031D01*
X1Y1030D02*
X8Y1030D01*
X1614Y1030D02*
X1621Y1030D01*
X1Y1029D02*
X8Y1029D01*
X1614Y1029D02*
X1621Y1029D01*
X1Y1028D02*
X8Y1028D01*
X1614Y1028D02*
X1621Y1028D01*
X1Y1027D02*
X8Y1027D01*
X1614Y1027D02*
X1621Y1027D01*
X1Y1026D02*
X8Y1026D01*
X1614Y1026D02*
X1621Y1026D01*
X1Y1025D02*
X8Y1025D01*
X1614Y1025D02*
X1621Y1025D01*
X1Y1024D02*
X8Y1024D01*
X1614Y1024D02*
X1621Y1024D01*
X1Y1023D02*
X8Y1023D01*
X1614Y1023D02*
X1621Y1023D01*
X1Y1022D02*
X8Y1022D01*
X1614Y1022D02*
X1621Y1022D01*
X1Y1021D02*
X8Y1021D01*
X1614Y1021D02*
X1621Y1021D01*
X1Y1020D02*
X8Y1020D01*
X1614Y1020D02*
X1621Y1020D01*
X1Y1019D02*
X8Y1019D01*
X1614Y1019D02*
X1621Y1019D01*
X1Y1018D02*
X8Y1018D01*
X1614Y1018D02*
X1621Y1018D01*
X1Y1017D02*
X8Y1017D01*
X1614Y1017D02*
X1621Y1017D01*
X1Y1016D02*
X8Y1016D01*
X1614Y1016D02*
X1621Y1016D01*
X1Y1015D02*
X8Y1015D01*
X1614Y1015D02*
X1621Y1015D01*
X1Y1014D02*
X8Y1014D01*
X1614Y1014D02*
X1621Y1014D01*
X1Y1013D02*
X8Y1013D01*
X1614Y1013D02*
X1621Y1013D01*
X1Y1012D02*
X8Y1012D01*
X1614Y1012D02*
X1621Y1012D01*
X1Y1011D02*
X8Y1011D01*
X1614Y1011D02*
X1621Y1011D01*
X1Y1010D02*
X8Y1010D01*
X1614Y1010D02*
X1621Y1010D01*
X1Y1009D02*
X8Y1009D01*
X1614Y1009D02*
X1621Y1009D01*
X1Y1008D02*
X8Y1008D01*
X1614Y1008D02*
X1621Y1008D01*
X1Y1007D02*
X8Y1007D01*
X1614Y1007D02*
X1621Y1007D01*
X1Y1006D02*
X8Y1006D01*
X1614Y1006D02*
X1621Y1006D01*
X1Y1005D02*
X8Y1005D01*
X1614Y1005D02*
X1621Y1005D01*
X1Y1004D02*
X8Y1004D01*
X1614Y1004D02*
X1621Y1004D01*
X1Y1003D02*
X8Y1003D01*
X1614Y1003D02*
X1621Y1003D01*
X1Y1002D02*
X8Y1002D01*
X1614Y1002D02*
X1621Y1002D01*
X1Y1001D02*
X8Y1001D01*
X1614Y1001D02*
X1621Y1001D01*
X1Y1000D02*
X8Y1000D01*
X1614Y1000D02*
X1621Y1000D01*
X1Y999D02*
X8Y999D01*
X1614Y999D02*
X1621Y999D01*
X1Y998D02*
X8Y998D01*
X1614Y998D02*
X1621Y998D01*
X1Y997D02*
X8Y997D01*
X1614Y997D02*
X1621Y997D01*
X1Y996D02*
X8Y996D01*
X1614Y996D02*
X1621Y996D01*
X1Y995D02*
X8Y995D01*
X1614Y995D02*
X1621Y995D01*
X1Y994D02*
X8Y994D01*
X1614Y994D02*
X1621Y994D01*
X1Y993D02*
X8Y993D01*
X1614Y993D02*
X1621Y993D01*
X1Y992D02*
X8Y992D01*
X1614Y992D02*
X1621Y992D01*
X1Y991D02*
X8Y991D01*
X1614Y991D02*
X1621Y991D01*
X1Y990D02*
X8Y990D01*
X1614Y990D02*
X1621Y990D01*
X1Y989D02*
X8Y989D01*
X1614Y989D02*
X1621Y989D01*
X1Y988D02*
X8Y988D01*
X1614Y988D02*
X1621Y988D01*
X1Y987D02*
X8Y987D01*
X1614Y987D02*
X1621Y987D01*
X1Y986D02*
X8Y986D01*
X1614Y986D02*
X1621Y986D01*
X1Y985D02*
X8Y985D01*
X1614Y985D02*
X1621Y985D01*
X1Y984D02*
X8Y984D01*
X1614Y984D02*
X1621Y984D01*
X1Y983D02*
X8Y983D01*
X1614Y983D02*
X1621Y983D01*
X1Y982D02*
X8Y982D01*
X1614Y982D02*
X1621Y982D01*
X1Y981D02*
X8Y981D01*
X1614Y981D02*
X1621Y981D01*
X1Y980D02*
X8Y980D01*
X1614Y980D02*
X1621Y980D01*
X1Y979D02*
X8Y979D01*
X1614Y979D02*
X1621Y979D01*
X1Y978D02*
X8Y978D01*
X1614Y978D02*
X1621Y978D01*
X1Y977D02*
X8Y977D01*
X1614Y977D02*
X1621Y977D01*
X1Y976D02*
X8Y976D01*
X1614Y976D02*
X1621Y976D01*
X1Y975D02*
X8Y975D01*
X1614Y975D02*
X1621Y975D01*
X1Y974D02*
X8Y974D01*
X1614Y974D02*
X1621Y974D01*
X1Y973D02*
X8Y973D01*
X1614Y973D02*
X1621Y973D01*
X1Y972D02*
X8Y972D01*
X1614Y972D02*
X1621Y972D01*
X1Y971D02*
X8Y971D01*
X1614Y971D02*
X1621Y971D01*
X1Y970D02*
X8Y970D01*
X1614Y970D02*
X1621Y970D01*
X1Y969D02*
X8Y969D01*
X1614Y969D02*
X1621Y969D01*
X1Y968D02*
X8Y968D01*
X1614Y968D02*
X1621Y968D01*
X1Y967D02*
X8Y967D01*
X1614Y967D02*
X1621Y967D01*
X1Y966D02*
X8Y966D01*
X1614Y966D02*
X1621Y966D01*
X1Y965D02*
X8Y965D01*
X1614Y965D02*
X1621Y965D01*
X1Y964D02*
X8Y964D01*
X1614Y964D02*
X1621Y964D01*
X1Y963D02*
X8Y963D01*
X1614Y963D02*
X1621Y963D01*
X1Y962D02*
X8Y962D01*
X1614Y962D02*
X1621Y962D01*
X1Y961D02*
X8Y961D01*
X1614Y961D02*
X1621Y961D01*
X1Y960D02*
X8Y960D01*
X1614Y960D02*
X1621Y960D01*
X1Y959D02*
X8Y959D01*
X1614Y959D02*
X1621Y959D01*
X1Y958D02*
X8Y958D01*
X1614Y958D02*
X1621Y958D01*
X1Y957D02*
X8Y957D01*
X1614Y957D02*
X1621Y957D01*
X1Y956D02*
X8Y956D01*
X1614Y956D02*
X1621Y956D01*
X1Y955D02*
X8Y955D01*
X1614Y955D02*
X1621Y955D01*
X1Y954D02*
X8Y954D01*
X1614Y954D02*
X1621Y954D01*
X1Y953D02*
X8Y953D01*
X1614Y953D02*
X1621Y953D01*
X1Y952D02*
X8Y952D01*
X1614Y952D02*
X1621Y952D01*
X1Y951D02*
X8Y951D01*
X1614Y951D02*
X1621Y951D01*
X1Y950D02*
X8Y950D01*
X1614Y950D02*
X1621Y950D01*
X1Y949D02*
X8Y949D01*
X1614Y949D02*
X1621Y949D01*
X1Y948D02*
X8Y948D01*
X1614Y948D02*
X1621Y948D01*
X1Y947D02*
X8Y947D01*
X1614Y947D02*
X1621Y947D01*
X1Y946D02*
X8Y946D01*
X1614Y946D02*
X1621Y946D01*
X1Y945D02*
X8Y945D01*
X1614Y945D02*
X1621Y945D01*
X1Y944D02*
X8Y944D01*
X1614Y944D02*
X1621Y944D01*
X1Y943D02*
X8Y943D01*
X1614Y943D02*
X1621Y943D01*
X1Y942D02*
X8Y942D01*
X1614Y942D02*
X1621Y942D01*
X1Y941D02*
X8Y941D01*
X1614Y941D02*
X1621Y941D01*
X1Y940D02*
X8Y940D01*
X1614Y940D02*
X1621Y940D01*
X1Y939D02*
X8Y939D01*
X1614Y939D02*
X1621Y939D01*
X1Y938D02*
X8Y938D01*
X1614Y938D02*
X1621Y938D01*
X1Y937D02*
X8Y937D01*
X1614Y937D02*
X1621Y937D01*
X1Y936D02*
X8Y936D01*
X1614Y936D02*
X1621Y936D01*
X1Y935D02*
X8Y935D01*
X1614Y935D02*
X1621Y935D01*
X1Y934D02*
X8Y934D01*
X1614Y934D02*
X1621Y934D01*
X1Y933D02*
X8Y933D01*
X1614Y933D02*
X1621Y933D01*
X1Y932D02*
X8Y932D01*
X1614Y932D02*
X1621Y932D01*
X1Y931D02*
X8Y931D01*
X1614Y931D02*
X1621Y931D01*
X1Y930D02*
X8Y930D01*
X1614Y930D02*
X1621Y930D01*
X1Y929D02*
X8Y929D01*
X1614Y929D02*
X1621Y929D01*
X1Y928D02*
X8Y928D01*
X1614Y928D02*
X1621Y928D01*
X1Y927D02*
X8Y927D01*
X1614Y927D02*
X1621Y927D01*
X1Y926D02*
X8Y926D01*
X1614Y926D02*
X1621Y926D01*
X1Y925D02*
X8Y925D01*
X1614Y925D02*
X1621Y925D01*
X1Y924D02*
X8Y924D01*
X1614Y924D02*
X1621Y924D01*
X1Y923D02*
X8Y923D01*
X1614Y923D02*
X1621Y923D01*
X1Y922D02*
X8Y922D01*
X1614Y922D02*
X1621Y922D01*
X1Y921D02*
X8Y921D01*
X1614Y921D02*
X1621Y921D01*
X1Y920D02*
X8Y920D01*
X1614Y920D02*
X1621Y920D01*
X1Y919D02*
X8Y919D01*
X1614Y919D02*
X1621Y919D01*
X1Y918D02*
X8Y918D01*
X1614Y918D02*
X1621Y918D01*
X1Y917D02*
X8Y917D01*
X1614Y917D02*
X1621Y917D01*
X1Y916D02*
X8Y916D01*
X1614Y916D02*
X1621Y916D01*
X1Y915D02*
X8Y915D01*
X1614Y915D02*
X1621Y915D01*
X1Y914D02*
X8Y914D01*
X1614Y914D02*
X1621Y914D01*
X1Y913D02*
X8Y913D01*
X1614Y913D02*
X1621Y913D01*
X1Y912D02*
X8Y912D01*
X1614Y912D02*
X1621Y912D01*
X1Y911D02*
X8Y911D01*
X1614Y911D02*
X1621Y911D01*
X1Y910D02*
X8Y910D01*
X1614Y910D02*
X1621Y910D01*
X1Y909D02*
X8Y909D01*
X1614Y909D02*
X1621Y909D01*
X1Y908D02*
X8Y908D01*
X1614Y908D02*
X1621Y908D01*
X1Y907D02*
X8Y907D01*
X1614Y907D02*
X1621Y907D01*
X1Y906D02*
X8Y906D01*
X1614Y906D02*
X1621Y906D01*
X1Y905D02*
X8Y905D01*
X1614Y905D02*
X1621Y905D01*
X1Y904D02*
X8Y904D01*
X1614Y904D02*
X1621Y904D01*
X1Y903D02*
X8Y903D01*
X1614Y903D02*
X1621Y903D01*
X1Y902D02*
X8Y902D01*
X1614Y902D02*
X1621Y902D01*
X1Y901D02*
X8Y901D01*
X1614Y901D02*
X1621Y901D01*
X1Y900D02*
X8Y900D01*
X1614Y900D02*
X1621Y900D01*
X1Y899D02*
X8Y899D01*
X1614Y899D02*
X1621Y899D01*
X1Y898D02*
X8Y898D01*
X1614Y898D02*
X1621Y898D01*
X1Y897D02*
X8Y897D01*
X1614Y897D02*
X1621Y897D01*
X1Y896D02*
X8Y896D01*
X1614Y896D02*
X1621Y896D01*
X1Y895D02*
X8Y895D01*
X1614Y895D02*
X1621Y895D01*
X1Y894D02*
X8Y894D01*
X1614Y894D02*
X1621Y894D01*
X1Y893D02*
X8Y893D01*
X1614Y893D02*
X1621Y893D01*
X1Y892D02*
X8Y892D01*
X1614Y892D02*
X1621Y892D01*
X1Y891D02*
X8Y891D01*
X1614Y891D02*
X1621Y891D01*
X1Y890D02*
X8Y890D01*
X1614Y890D02*
X1621Y890D01*
X1Y889D02*
X8Y889D01*
X1614Y889D02*
X1621Y889D01*
X1Y888D02*
X8Y888D01*
X1614Y888D02*
X1621Y888D01*
X1Y887D02*
X8Y887D01*
X1614Y887D02*
X1621Y887D01*
X1Y886D02*
X8Y886D01*
X1614Y886D02*
X1621Y886D01*
X1Y885D02*
X8Y885D01*
X1614Y885D02*
X1621Y885D01*
X1Y884D02*
X8Y884D01*
X1614Y884D02*
X1621Y884D01*
X1Y883D02*
X8Y883D01*
X1614Y883D02*
X1621Y883D01*
X1Y882D02*
X8Y882D01*
X1614Y882D02*
X1621Y882D01*
X1Y881D02*
X8Y881D01*
X1614Y881D02*
X1621Y881D01*
X1Y880D02*
X8Y880D01*
X1614Y880D02*
X1621Y880D01*
X1Y879D02*
X8Y879D01*
X1614Y879D02*
X1621Y879D01*
X1Y878D02*
X8Y878D01*
X1614Y878D02*
X1621Y878D01*
X1Y877D02*
X8Y877D01*
X1614Y877D02*
X1621Y877D01*
X1Y876D02*
X8Y876D01*
X1614Y876D02*
X1621Y876D01*
X1Y875D02*
X8Y875D01*
X1614Y875D02*
X1621Y875D01*
X1Y874D02*
X8Y874D01*
X1614Y874D02*
X1621Y874D01*
X1Y873D02*
X8Y873D01*
X1614Y873D02*
X1621Y873D01*
X1Y872D02*
X8Y872D01*
X1614Y872D02*
X1621Y872D01*
X1Y871D02*
X8Y871D01*
X1614Y871D02*
X1621Y871D01*
X1Y870D02*
X8Y870D01*
X1614Y870D02*
X1621Y870D01*
X1Y869D02*
X8Y869D01*
X1614Y869D02*
X1621Y869D01*
X1Y868D02*
X8Y868D01*
X1614Y868D02*
X1621Y868D01*
X1Y867D02*
X8Y867D01*
X1614Y867D02*
X1621Y867D01*
X1Y866D02*
X8Y866D01*
X1614Y866D02*
X1621Y866D01*
X1Y865D02*
X8Y865D01*
X1614Y865D02*
X1621Y865D01*
X1Y864D02*
X8Y864D01*
X1614Y864D02*
X1621Y864D01*
X1Y863D02*
X8Y863D01*
X1614Y863D02*
X1621Y863D01*
X1Y862D02*
X8Y862D01*
X1614Y862D02*
X1621Y862D01*
X1Y861D02*
X8Y861D01*
X1614Y861D02*
X1621Y861D01*
X1Y860D02*
X8Y860D01*
X1614Y860D02*
X1621Y860D01*
X1Y859D02*
X8Y859D01*
X1614Y859D02*
X1621Y859D01*
X1Y858D02*
X8Y858D01*
X1614Y858D02*
X1621Y858D01*
X1Y857D02*
X8Y857D01*
X1614Y857D02*
X1621Y857D01*
X1Y856D02*
X8Y856D01*
X1614Y856D02*
X1621Y856D01*
X1Y855D02*
X8Y855D01*
X1614Y855D02*
X1621Y855D01*
X1Y854D02*
X8Y854D01*
X1614Y854D02*
X1621Y854D01*
X1Y853D02*
X8Y853D01*
X1614Y853D02*
X1621Y853D01*
X1Y852D02*
X8Y852D01*
X1614Y852D02*
X1621Y852D01*
X1Y851D02*
X8Y851D01*
X1614Y851D02*
X1621Y851D01*
X1Y850D02*
X8Y850D01*
X1614Y850D02*
X1621Y850D01*
X1Y849D02*
X8Y849D01*
X1614Y849D02*
X1621Y849D01*
X1Y848D02*
X8Y848D01*
X1614Y848D02*
X1621Y848D01*
X1Y847D02*
X8Y847D01*
X1614Y847D02*
X1621Y847D01*
X1Y846D02*
X8Y846D01*
X1614Y846D02*
X1621Y846D01*
X1Y845D02*
X8Y845D01*
X1614Y845D02*
X1621Y845D01*
X1Y844D02*
X8Y844D01*
X1614Y844D02*
X1621Y844D01*
X1Y843D02*
X8Y843D01*
X1614Y843D02*
X1621Y843D01*
X1Y842D02*
X8Y842D01*
X1614Y842D02*
X1621Y842D01*
X1Y841D02*
X8Y841D01*
X1614Y841D02*
X1621Y841D01*
X1Y840D02*
X8Y840D01*
X1614Y840D02*
X1621Y840D01*
X1Y839D02*
X8Y839D01*
X1614Y839D02*
X1621Y839D01*
X1Y838D02*
X8Y838D01*
X1614Y838D02*
X1621Y838D01*
X1Y837D02*
X8Y837D01*
X1614Y837D02*
X1621Y837D01*
X1Y836D02*
X8Y836D01*
X1614Y836D02*
X1621Y836D01*
X1Y835D02*
X8Y835D01*
X1614Y835D02*
X1621Y835D01*
X1Y834D02*
X8Y834D01*
X1614Y834D02*
X1621Y834D01*
X1Y833D02*
X8Y833D01*
X1614Y833D02*
X1621Y833D01*
X1Y832D02*
X8Y832D01*
X1614Y832D02*
X1621Y832D01*
X1Y831D02*
X8Y831D01*
X1614Y831D02*
X1621Y831D01*
X1Y830D02*
X8Y830D01*
X1614Y830D02*
X1621Y830D01*
X1Y829D02*
X8Y829D01*
X1614Y829D02*
X1621Y829D01*
X1Y828D02*
X8Y828D01*
X1614Y828D02*
X1621Y828D01*
X1Y827D02*
X8Y827D01*
X1614Y827D02*
X1621Y827D01*
X1Y826D02*
X8Y826D01*
X1614Y826D02*
X1621Y826D01*
X1Y825D02*
X8Y825D01*
X1614Y825D02*
X1621Y825D01*
X1Y824D02*
X8Y824D01*
X1614Y824D02*
X1621Y824D01*
X1Y823D02*
X8Y823D01*
X1459Y823D02*
X1479Y823D01*
X1505Y823D02*
X1523Y823D01*
X1614Y823D02*
X1621Y823D01*
X1Y822D02*
X8Y822D01*
X1457Y822D02*
X1482Y822D01*
X1504Y822D02*
X1523Y822D01*
X1614Y822D02*
X1621Y822D01*
X1Y821D02*
X8Y821D01*
X1455Y821D02*
X1483Y821D01*
X1504Y821D02*
X1523Y821D01*
X1614Y821D02*
X1621Y821D01*
X1Y820D02*
X8Y820D01*
X1455Y820D02*
X1484Y820D01*
X1503Y820D02*
X1523Y820D01*
X1614Y820D02*
X1621Y820D01*
X1Y819D02*
X8Y819D01*
X1454Y819D02*
X1485Y819D01*
X1503Y819D02*
X1523Y819D01*
X1614Y819D02*
X1621Y819D01*
X1Y818D02*
X8Y818D01*
X1453Y818D02*
X1486Y818D01*
X1504Y818D02*
X1523Y818D01*
X1614Y818D02*
X1621Y818D01*
X1Y817D02*
X8Y817D01*
X1453Y817D02*
X1486Y817D01*
X1505Y817D02*
X1523Y817D01*
X1614Y817D02*
X1621Y817D01*
X1Y816D02*
X8Y816D01*
X1453Y816D02*
X1459Y816D01*
X1479Y816D02*
X1486Y816D01*
X1517Y816D02*
X1523Y816D01*
X1614Y816D02*
X1621Y816D01*
X1Y815D02*
X8Y815D01*
X1453Y815D02*
X1459Y815D01*
X1480Y815D02*
X1487Y815D01*
X1517Y815D02*
X1523Y815D01*
X1614Y815D02*
X1621Y815D01*
X1Y814D02*
X8Y814D01*
X1453Y814D02*
X1460Y814D01*
X1481Y814D02*
X1487Y814D01*
X1517Y814D02*
X1523Y814D01*
X1614Y814D02*
X1621Y814D01*
X1Y813D02*
X8Y813D01*
X1453Y813D02*
X1461Y813D01*
X1481Y813D02*
X1486Y813D01*
X1517Y813D02*
X1523Y813D01*
X1614Y813D02*
X1621Y813D01*
X1Y812D02*
X8Y812D01*
X1454Y812D02*
X1461Y812D01*
X1481Y812D02*
X1486Y812D01*
X1517Y812D02*
X1523Y812D01*
X1614Y812D02*
X1621Y812D01*
X1Y811D02*
X8Y811D01*
X1454Y811D02*
X1462Y811D01*
X1482Y811D02*
X1485Y811D01*
X1517Y811D02*
X1523Y811D01*
X1614Y811D02*
X1621Y811D01*
X1Y810D02*
X8Y810D01*
X1455Y810D02*
X1463Y810D01*
X1517Y810D02*
X1523Y810D01*
X1614Y810D02*
X1621Y810D01*
X1Y809D02*
X8Y809D01*
X1456Y809D02*
X1464Y809D01*
X1517Y809D02*
X1523Y809D01*
X1614Y809D02*
X1621Y809D01*
X1Y808D02*
X8Y808D01*
X1457Y808D02*
X1465Y808D01*
X1517Y808D02*
X1523Y808D01*
X1614Y808D02*
X1621Y808D01*
X1Y807D02*
X8Y807D01*
X1457Y807D02*
X1465Y807D01*
X1517Y807D02*
X1523Y807D01*
X1614Y807D02*
X1621Y807D01*
X1Y806D02*
X8Y806D01*
X1458Y806D02*
X1466Y806D01*
X1517Y806D02*
X1523Y806D01*
X1614Y806D02*
X1621Y806D01*
X1Y805D02*
X8Y805D01*
X1459Y805D02*
X1467Y805D01*
X1517Y805D02*
X1523Y805D01*
X1614Y805D02*
X1621Y805D01*
X1Y804D02*
X8Y804D01*
X1460Y804D02*
X1468Y804D01*
X1517Y804D02*
X1523Y804D01*
X1614Y804D02*
X1621Y804D01*
X1Y803D02*
X8Y803D01*
X1460Y803D02*
X1468Y803D01*
X1517Y803D02*
X1523Y803D01*
X1614Y803D02*
X1621Y803D01*
X1Y802D02*
X8Y802D01*
X1461Y802D02*
X1469Y802D01*
X1517Y802D02*
X1523Y802D01*
X1614Y802D02*
X1621Y802D01*
X1Y801D02*
X8Y801D01*
X1462Y801D02*
X1470Y801D01*
X1517Y801D02*
X1523Y801D01*
X1614Y801D02*
X1621Y801D01*
X1Y800D02*
X8Y800D01*
X1463Y800D02*
X1471Y800D01*
X1517Y800D02*
X1523Y800D01*
X1614Y800D02*
X1621Y800D01*
X1Y799D02*
X8Y799D01*
X1464Y799D02*
X1472Y799D01*
X1517Y799D02*
X1523Y799D01*
X1614Y799D02*
X1621Y799D01*
X1Y798D02*
X8Y798D01*
X1464Y798D02*
X1472Y798D01*
X1517Y798D02*
X1523Y798D01*
X1614Y798D02*
X1621Y798D01*
X1Y797D02*
X8Y797D01*
X1465Y797D02*
X1473Y797D01*
X1517Y797D02*
X1523Y797D01*
X1614Y797D02*
X1621Y797D01*
X1Y796D02*
X8Y796D01*
X1466Y796D02*
X1474Y796D01*
X1517Y796D02*
X1523Y796D01*
X1614Y796D02*
X1621Y796D01*
X1Y795D02*
X8Y795D01*
X1467Y795D02*
X1475Y795D01*
X1517Y795D02*
X1523Y795D01*
X1614Y795D02*
X1621Y795D01*
X1Y794D02*
X8Y794D01*
X1467Y794D02*
X1475Y794D01*
X1517Y794D02*
X1523Y794D01*
X1614Y794D02*
X1621Y794D01*
X1Y793D02*
X8Y793D01*
X1468Y793D02*
X1476Y793D01*
X1517Y793D02*
X1523Y793D01*
X1532Y793D02*
X1536Y793D01*
X1614Y793D02*
X1621Y793D01*
X1Y792D02*
X8Y792D01*
X1469Y792D02*
X1477Y792D01*
X1517Y792D02*
X1523Y792D01*
X1531Y792D02*
X1536Y792D01*
X1614Y792D02*
X1621Y792D01*
X1Y791D02*
X8Y791D01*
X1470Y791D02*
X1478Y791D01*
X1517Y791D02*
X1523Y791D01*
X1531Y791D02*
X1537Y791D01*
X1614Y791D02*
X1621Y791D01*
X1Y790D02*
X8Y790D01*
X1471Y790D02*
X1479Y790D01*
X1517Y790D02*
X1523Y790D01*
X1531Y790D02*
X1537Y790D01*
X1614Y790D02*
X1621Y790D01*
X1Y789D02*
X8Y789D01*
X1471Y789D02*
X1479Y789D01*
X1517Y789D02*
X1523Y789D01*
X1531Y789D02*
X1537Y789D01*
X1614Y789D02*
X1621Y789D01*
X1Y788D02*
X8Y788D01*
X1472Y788D02*
X1480Y788D01*
X1517Y788D02*
X1523Y788D01*
X1531Y788D02*
X1537Y788D01*
X1614Y788D02*
X1621Y788D01*
X1Y787D02*
X8Y787D01*
X1473Y787D02*
X1481Y787D01*
X1517Y787D02*
X1523Y787D01*
X1531Y787D02*
X1537Y787D01*
X1614Y787D02*
X1621Y787D01*
X1Y786D02*
X8Y786D01*
X1474Y786D02*
X1482Y786D01*
X1517Y786D02*
X1523Y786D01*
X1531Y786D02*
X1537Y786D01*
X1614Y786D02*
X1621Y786D01*
X1Y785D02*
X8Y785D01*
X1474Y785D02*
X1483Y785D01*
X1517Y785D02*
X1523Y785D01*
X1531Y785D02*
X1537Y785D01*
X1614Y785D02*
X1621Y785D01*
X1Y784D02*
X8Y784D01*
X1475Y784D02*
X1483Y784D01*
X1517Y784D02*
X1523Y784D01*
X1531Y784D02*
X1537Y784D01*
X1614Y784D02*
X1621Y784D01*
X1Y783D02*
X8Y783D01*
X1476Y783D02*
X1484Y783D01*
X1517Y783D02*
X1523Y783D01*
X1531Y783D02*
X1537Y783D01*
X1614Y783D02*
X1621Y783D01*
X1Y782D02*
X8Y782D01*
X1456Y782D02*
X1456Y782D01*
X1477Y782D02*
X1485Y782D01*
X1517Y782D02*
X1523Y782D01*
X1531Y782D02*
X1537Y782D01*
X1614Y782D02*
X1621Y782D01*
X1Y781D02*
X8Y781D01*
X1454Y781D02*
X1458Y781D01*
X1478Y781D02*
X1485Y781D01*
X1517Y781D02*
X1523Y781D01*
X1531Y781D02*
X1537Y781D01*
X1614Y781D02*
X1621Y781D01*
X1Y780D02*
X8Y780D01*
X1453Y780D02*
X1459Y780D01*
X1478Y780D02*
X1486Y780D01*
X1517Y780D02*
X1523Y780D01*
X1531Y780D02*
X1537Y780D01*
X1614Y780D02*
X1621Y780D01*
X1Y779D02*
X8Y779D01*
X1453Y779D02*
X1459Y779D01*
X1479Y779D02*
X1486Y779D01*
X1517Y779D02*
X1523Y779D01*
X1531Y779D02*
X1537Y779D01*
X1614Y779D02*
X1621Y779D01*
X1Y778D02*
X8Y778D01*
X1453Y778D02*
X1459Y778D01*
X1480Y778D02*
X1487Y778D01*
X1517Y778D02*
X1523Y778D01*
X1531Y778D02*
X1537Y778D01*
X1614Y778D02*
X1621Y778D01*
X1Y777D02*
X8Y777D01*
X1453Y777D02*
X1460Y777D01*
X1480Y777D02*
X1487Y777D01*
X1517Y777D02*
X1523Y777D01*
X1531Y777D02*
X1537Y777D01*
X1614Y777D02*
X1621Y777D01*
X1Y776D02*
X8Y776D01*
X1453Y776D02*
X1487Y776D01*
X1506Y776D02*
X1537Y776D01*
X1614Y776D02*
X1621Y776D01*
X1Y775D02*
X8Y775D01*
X1454Y775D02*
X1486Y775D01*
X1504Y775D02*
X1537Y775D01*
X1614Y775D02*
X1621Y775D01*
X1Y774D02*
X8Y774D01*
X1454Y774D02*
X1486Y774D01*
X1504Y774D02*
X1537Y774D01*
X1614Y774D02*
X1621Y774D01*
X1Y773D02*
X8Y773D01*
X1455Y773D02*
X1485Y773D01*
X1503Y773D02*
X1537Y773D01*
X1614Y773D02*
X1621Y773D01*
X1Y772D02*
X8Y772D01*
X1456Y772D02*
X1485Y772D01*
X1503Y772D02*
X1537Y772D01*
X1614Y772D02*
X1621Y772D01*
X1Y771D02*
X8Y771D01*
X1457Y771D02*
X1484Y771D01*
X1504Y771D02*
X1536Y771D01*
X1614Y771D02*
X1621Y771D01*
X1Y770D02*
X8Y770D01*
X1459Y770D02*
X1482Y770D01*
X1505Y770D02*
X1536Y770D01*
X1614Y770D02*
X1621Y770D01*
X1Y769D02*
X8Y769D01*
X1614Y769D02*
X1621Y769D01*
X1Y768D02*
X8Y768D01*
X1614Y768D02*
X1621Y768D01*
X1Y767D02*
X8Y767D01*
X1614Y767D02*
X1621Y767D01*
X1Y766D02*
X8Y766D01*
X1614Y766D02*
X1621Y766D01*
X1Y765D02*
X8Y765D01*
X1614Y765D02*
X1621Y765D01*
X1Y764D02*
X8Y764D01*
X1614Y764D02*
X1621Y764D01*
X1Y763D02*
X8Y763D01*
X1614Y763D02*
X1621Y763D01*
X1Y762D02*
X8Y762D01*
X1614Y762D02*
X1621Y762D01*
X1Y761D02*
X8Y761D01*
X1614Y761D02*
X1621Y761D01*
X1Y760D02*
X8Y760D01*
X1614Y760D02*
X1621Y760D01*
X1Y759D02*
X8Y759D01*
X1614Y759D02*
X1621Y759D01*
X1Y758D02*
X8Y758D01*
X1614Y758D02*
X1621Y758D01*
X1Y757D02*
X8Y757D01*
X1614Y757D02*
X1621Y757D01*
X1Y756D02*
X8Y756D01*
X1614Y756D02*
X1621Y756D01*
X1Y755D02*
X8Y755D01*
X1614Y755D02*
X1621Y755D01*
X1Y754D02*
X8Y754D01*
X1614Y754D02*
X1621Y754D01*
X1Y753D02*
X8Y753D01*
X1614Y753D02*
X1621Y753D01*
X1Y752D02*
X8Y752D01*
X1614Y752D02*
X1621Y752D01*
X1Y751D02*
X8Y751D01*
X1614Y751D02*
X1621Y751D01*
X1Y750D02*
X8Y750D01*
X1614Y750D02*
X1621Y750D01*
X1Y749D02*
X8Y749D01*
X1614Y749D02*
X1621Y749D01*
X1Y748D02*
X8Y748D01*
X1614Y748D02*
X1621Y748D01*
X1Y747D02*
X8Y747D01*
X1614Y747D02*
X1621Y747D01*
X1Y746D02*
X8Y746D01*
X1614Y746D02*
X1621Y746D01*
X1Y745D02*
X8Y745D01*
X1614Y745D02*
X1621Y745D01*
X1Y744D02*
X8Y744D01*
X1614Y744D02*
X1621Y744D01*
X1Y743D02*
X8Y743D01*
X1614Y743D02*
X1621Y743D01*
X1Y742D02*
X8Y742D01*
X1614Y742D02*
X1621Y742D01*
X1Y741D02*
X8Y741D01*
X1614Y741D02*
X1621Y741D01*
X1Y740D02*
X8Y740D01*
X1614Y740D02*
X1621Y740D01*
X1Y739D02*
X8Y739D01*
X1614Y739D02*
X1621Y739D01*
X1Y738D02*
X8Y738D01*
X1614Y738D02*
X1621Y738D01*
X1Y737D02*
X8Y737D01*
X1614Y737D02*
X1621Y737D01*
X1Y736D02*
X8Y736D01*
X1614Y736D02*
X1621Y736D01*
X1Y735D02*
X8Y735D01*
X1614Y735D02*
X1621Y735D01*
X1Y734D02*
X8Y734D01*
X1614Y734D02*
X1621Y734D01*
X1Y733D02*
X8Y733D01*
X1614Y733D02*
X1621Y733D01*
X1Y732D02*
X8Y732D01*
X1614Y732D02*
X1621Y732D01*
X1Y731D02*
X8Y731D01*
X1614Y731D02*
X1621Y731D01*
X1Y730D02*
X8Y730D01*
X1614Y730D02*
X1621Y730D01*
X1Y729D02*
X8Y729D01*
X1614Y729D02*
X1621Y729D01*
X1Y728D02*
X8Y728D01*
X1614Y728D02*
X1621Y728D01*
X1Y727D02*
X8Y727D01*
X1614Y727D02*
X1621Y727D01*
X1Y726D02*
X8Y726D01*
X1614Y726D02*
X1621Y726D01*
X1Y725D02*
X8Y725D01*
X1614Y725D02*
X1621Y725D01*
X1Y724D02*
X8Y724D01*
X1614Y724D02*
X1621Y724D01*
X1Y723D02*
X8Y723D01*
X1614Y723D02*
X1621Y723D01*
X1Y722D02*
X8Y722D01*
X1614Y722D02*
X1621Y722D01*
X1Y721D02*
X8Y721D01*
X1614Y721D02*
X1621Y721D01*
X1Y720D02*
X8Y720D01*
X1614Y720D02*
X1621Y720D01*
X1Y719D02*
X8Y719D01*
X1614Y719D02*
X1621Y719D01*
X1Y718D02*
X8Y718D01*
X1614Y718D02*
X1621Y718D01*
X1Y717D02*
X8Y717D01*
X1614Y717D02*
X1621Y717D01*
X1Y716D02*
X8Y716D01*
X1614Y716D02*
X1621Y716D01*
X1Y715D02*
X8Y715D01*
X1614Y715D02*
X1621Y715D01*
X1Y714D02*
X8Y714D01*
X1614Y714D02*
X1621Y714D01*
X1Y713D02*
X8Y713D01*
X1614Y713D02*
X1621Y713D01*
X1Y712D02*
X8Y712D01*
X1614Y712D02*
X1621Y712D01*
X1Y711D02*
X8Y711D01*
X1614Y711D02*
X1621Y711D01*
X1Y710D02*
X8Y710D01*
X1614Y710D02*
X1621Y710D01*
X1Y709D02*
X8Y709D01*
X1614Y709D02*
X1621Y709D01*
X1Y708D02*
X8Y708D01*
X1614Y708D02*
X1621Y708D01*
X1Y707D02*
X8Y707D01*
X1614Y707D02*
X1621Y707D01*
X1Y706D02*
X8Y706D01*
X1614Y706D02*
X1621Y706D01*
X1Y705D02*
X8Y705D01*
X1614Y705D02*
X1621Y705D01*
X1Y704D02*
X8Y704D01*
X1614Y704D02*
X1621Y704D01*
X1Y703D02*
X8Y703D01*
X1614Y703D02*
X1621Y703D01*
X1Y702D02*
X8Y702D01*
X1614Y702D02*
X1621Y702D01*
X1Y701D02*
X8Y701D01*
X1614Y701D02*
X1621Y701D01*
X1Y700D02*
X8Y700D01*
X1614Y700D02*
X1621Y700D01*
X1Y699D02*
X8Y699D01*
X1614Y699D02*
X1621Y699D01*
X1Y698D02*
X8Y698D01*
X1614Y698D02*
X1621Y698D01*
X1Y697D02*
X8Y697D01*
X1614Y697D02*
X1621Y697D01*
X1Y696D02*
X8Y696D01*
X1614Y696D02*
X1621Y696D01*
X1Y695D02*
X8Y695D01*
X1614Y695D02*
X1621Y695D01*
X1Y694D02*
X8Y694D01*
X1614Y694D02*
X1621Y694D01*
X1Y693D02*
X8Y693D01*
X1614Y693D02*
X1621Y693D01*
X1Y692D02*
X8Y692D01*
X1614Y692D02*
X1621Y692D01*
X1Y691D02*
X8Y691D01*
X1614Y691D02*
X1621Y691D01*
X1Y690D02*
X8Y690D01*
X1614Y690D02*
X1621Y690D01*
X1Y689D02*
X8Y689D01*
X1614Y689D02*
X1621Y689D01*
X1Y688D02*
X8Y688D01*
X1614Y688D02*
X1621Y688D01*
X1Y687D02*
X8Y687D01*
X1614Y687D02*
X1621Y687D01*
X1Y686D02*
X8Y686D01*
X1614Y686D02*
X1621Y686D01*
X1Y685D02*
X8Y685D01*
X1614Y685D02*
X1621Y685D01*
X1Y684D02*
X8Y684D01*
X1614Y684D02*
X1621Y684D01*
X1Y683D02*
X8Y683D01*
X1614Y683D02*
X1621Y683D01*
X1Y682D02*
X8Y682D01*
X1614Y682D02*
X1621Y682D01*
X1Y681D02*
X8Y681D01*
X1614Y681D02*
X1621Y681D01*
X1Y680D02*
X8Y680D01*
X1614Y680D02*
X1621Y680D01*
X1Y679D02*
X8Y679D01*
X1614Y679D02*
X1621Y679D01*
X1Y678D02*
X8Y678D01*
X1614Y678D02*
X1621Y678D01*
X1Y677D02*
X8Y677D01*
X1614Y677D02*
X1621Y677D01*
X1Y676D02*
X8Y676D01*
X1614Y676D02*
X1621Y676D01*
X1Y675D02*
X8Y675D01*
X1614Y675D02*
X1621Y675D01*
X1Y674D02*
X8Y674D01*
X1614Y674D02*
X1621Y674D01*
X1Y673D02*
X8Y673D01*
X1614Y673D02*
X1621Y673D01*
X1Y672D02*
X8Y672D01*
X1614Y672D02*
X1621Y672D01*
X1Y671D02*
X8Y671D01*
X1614Y671D02*
X1621Y671D01*
X1Y670D02*
X8Y670D01*
X1614Y670D02*
X1621Y670D01*
X1Y669D02*
X8Y669D01*
X1614Y669D02*
X1621Y669D01*
X1Y668D02*
X8Y668D01*
X1614Y668D02*
X1621Y668D01*
X1Y667D02*
X8Y667D01*
X1614Y667D02*
X1621Y667D01*
X1Y666D02*
X8Y666D01*
X1614Y666D02*
X1621Y666D01*
X1Y665D02*
X8Y665D01*
X1614Y665D02*
X1621Y665D01*
X1Y664D02*
X8Y664D01*
X1614Y664D02*
X1621Y664D01*
X1Y663D02*
X8Y663D01*
X1614Y663D02*
X1621Y663D01*
X1Y662D02*
X8Y662D01*
X1614Y662D02*
X1621Y662D01*
X1Y661D02*
X8Y661D01*
X1614Y661D02*
X1621Y661D01*
X1Y660D02*
X8Y660D01*
X1614Y660D02*
X1621Y660D01*
X1Y659D02*
X8Y659D01*
X1614Y659D02*
X1621Y659D01*
X1Y658D02*
X8Y658D01*
X1614Y658D02*
X1621Y658D01*
X1Y657D02*
X8Y657D01*
X1614Y657D02*
X1621Y657D01*
X1Y656D02*
X8Y656D01*
X1614Y656D02*
X1621Y656D01*
X1Y655D02*
X8Y655D01*
X1614Y655D02*
X1621Y655D01*
X1Y654D02*
X8Y654D01*
X1614Y654D02*
X1621Y654D01*
X1Y653D02*
X8Y653D01*
X1614Y653D02*
X1621Y653D01*
X1Y652D02*
X8Y652D01*
X1614Y652D02*
X1621Y652D01*
X1Y651D02*
X8Y651D01*
X1614Y651D02*
X1621Y651D01*
X1Y650D02*
X8Y650D01*
X1614Y650D02*
X1621Y650D01*
X1Y649D02*
X8Y649D01*
X1614Y649D02*
X1621Y649D01*
X1Y648D02*
X8Y648D01*
X1614Y648D02*
X1621Y648D01*
X1Y647D02*
X8Y647D01*
X1614Y647D02*
X1621Y647D01*
X1Y646D02*
X8Y646D01*
X1614Y646D02*
X1621Y646D01*
X1Y645D02*
X8Y645D01*
X1614Y645D02*
X1621Y645D01*
X1Y644D02*
X8Y644D01*
X1614Y644D02*
X1621Y644D01*
X1Y643D02*
X8Y643D01*
X1614Y643D02*
X1621Y643D01*
X1Y642D02*
X8Y642D01*
X1614Y642D02*
X1621Y642D01*
X1Y641D02*
X8Y641D01*
X1614Y641D02*
X1621Y641D01*
X1Y640D02*
X8Y640D01*
X1614Y640D02*
X1621Y640D01*
X1Y639D02*
X8Y639D01*
X1614Y639D02*
X1621Y639D01*
X1Y638D02*
X8Y638D01*
X1614Y638D02*
X1621Y638D01*
X1Y637D02*
X8Y637D01*
X1614Y637D02*
X1621Y637D01*
X1Y636D02*
X8Y636D01*
X1614Y636D02*
X1621Y636D01*
X1Y635D02*
X8Y635D01*
X1614Y635D02*
X1621Y635D01*
X1Y634D02*
X8Y634D01*
X1614Y634D02*
X1621Y634D01*
X1Y633D02*
X8Y633D01*
X1614Y633D02*
X1621Y633D01*
X1Y632D02*
X8Y632D01*
X1614Y632D02*
X1621Y632D01*
X1Y631D02*
X8Y631D01*
X1614Y631D02*
X1621Y631D01*
X1Y630D02*
X8Y630D01*
X1614Y630D02*
X1621Y630D01*
X1Y629D02*
X8Y629D01*
X1614Y629D02*
X1621Y629D01*
X1Y628D02*
X8Y628D01*
X1614Y628D02*
X1621Y628D01*
X1Y627D02*
X8Y627D01*
X1614Y627D02*
X1621Y627D01*
X1Y626D02*
X8Y626D01*
X1614Y626D02*
X1621Y626D01*
X1Y625D02*
X8Y625D01*
X1614Y625D02*
X1621Y625D01*
X1Y624D02*
X8Y624D01*
X1614Y624D02*
X1621Y624D01*
X1Y623D02*
X8Y623D01*
X1614Y623D02*
X1621Y623D01*
X1Y622D02*
X8Y622D01*
X1614Y622D02*
X1621Y622D01*
X1Y621D02*
X8Y621D01*
X1614Y621D02*
X1621Y621D01*
X1Y620D02*
X8Y620D01*
X1614Y620D02*
X1621Y620D01*
X1Y619D02*
X8Y619D01*
X1614Y619D02*
X1621Y619D01*
X1Y618D02*
X8Y618D01*
X1614Y618D02*
X1621Y618D01*
X1Y617D02*
X8Y617D01*
X1614Y617D02*
X1621Y617D01*
X1Y616D02*
X8Y616D01*
X1614Y616D02*
X1621Y616D01*
X1Y615D02*
X8Y615D01*
X1614Y615D02*
X1621Y615D01*
X1Y614D02*
X8Y614D01*
X1614Y614D02*
X1621Y614D01*
X1Y613D02*
X8Y613D01*
X1614Y613D02*
X1621Y613D01*
X1Y612D02*
X8Y612D01*
X1614Y612D02*
X1621Y612D01*
X1Y611D02*
X8Y611D01*
X1614Y611D02*
X1621Y611D01*
X1Y610D02*
X8Y610D01*
X1614Y610D02*
X1621Y610D01*
X1Y609D02*
X8Y609D01*
X1614Y609D02*
X1621Y609D01*
X1Y608D02*
X8Y608D01*
X1614Y608D02*
X1621Y608D01*
X1Y607D02*
X8Y607D01*
X1614Y607D02*
X1621Y607D01*
X1Y606D02*
X8Y606D01*
X1614Y606D02*
X1621Y606D01*
X1Y605D02*
X8Y605D01*
X1614Y605D02*
X1621Y605D01*
X1Y604D02*
X8Y604D01*
X1614Y604D02*
X1621Y604D01*
X1Y603D02*
X8Y603D01*
X1614Y603D02*
X1621Y603D01*
X1Y602D02*
X8Y602D01*
X1614Y602D02*
X1621Y602D01*
X1Y601D02*
X8Y601D01*
X1614Y601D02*
X1621Y601D01*
X1Y600D02*
X8Y600D01*
X1614Y600D02*
X1621Y600D01*
X1Y599D02*
X8Y599D01*
X1614Y599D02*
X1621Y599D01*
X1Y598D02*
X8Y598D01*
X1614Y598D02*
X1621Y598D01*
X1Y597D02*
X8Y597D01*
X1614Y597D02*
X1621Y597D01*
X1Y596D02*
X8Y596D01*
X1614Y596D02*
X1621Y596D01*
X1Y595D02*
X8Y595D01*
X1614Y595D02*
X1621Y595D01*
X1Y594D02*
X8Y594D01*
X1614Y594D02*
X1621Y594D01*
X1Y593D02*
X8Y593D01*
X1614Y593D02*
X1621Y593D01*
X1Y592D02*
X8Y592D01*
X1614Y592D02*
X1621Y592D01*
X1Y591D02*
X8Y591D01*
X1614Y591D02*
X1621Y591D01*
X1Y590D02*
X8Y590D01*
X1614Y590D02*
X1621Y590D01*
X1Y589D02*
X8Y589D01*
X1614Y589D02*
X1621Y589D01*
X1Y588D02*
X8Y588D01*
X1614Y588D02*
X1621Y588D01*
X1Y587D02*
X8Y587D01*
X1614Y587D02*
X1621Y587D01*
X1Y586D02*
X8Y586D01*
X1614Y586D02*
X1621Y586D01*
X1Y585D02*
X8Y585D01*
X1614Y585D02*
X1621Y585D01*
X1Y584D02*
X8Y584D01*
X1614Y584D02*
X1621Y584D01*
X1Y583D02*
X8Y583D01*
X1614Y583D02*
X1621Y583D01*
X1Y582D02*
X8Y582D01*
X1614Y582D02*
X1621Y582D01*
X1Y581D02*
X8Y581D01*
X1614Y581D02*
X1621Y581D01*
X1Y580D02*
X8Y580D01*
X1614Y580D02*
X1621Y580D01*
X1Y579D02*
X8Y579D01*
X1614Y579D02*
X1621Y579D01*
X1Y578D02*
X8Y578D01*
X1614Y578D02*
X1621Y578D01*
X1Y577D02*
X8Y577D01*
X1614Y577D02*
X1621Y577D01*
X1Y576D02*
X8Y576D01*
X1614Y576D02*
X1621Y576D01*
X1Y575D02*
X8Y575D01*
X1614Y575D02*
X1621Y575D01*
X1Y574D02*
X8Y574D01*
X1614Y574D02*
X1621Y574D01*
X1Y573D02*
X8Y573D01*
X1614Y573D02*
X1621Y573D01*
X1Y572D02*
X8Y572D01*
X1614Y572D02*
X1621Y572D01*
X1Y571D02*
X8Y571D01*
X1614Y571D02*
X1621Y571D01*
X1Y570D02*
X8Y570D01*
X1614Y570D02*
X1621Y570D01*
X1Y569D02*
X8Y569D01*
X1614Y569D02*
X1621Y569D01*
X1Y568D02*
X8Y568D01*
X1614Y568D02*
X1621Y568D01*
X1Y567D02*
X8Y567D01*
X1614Y567D02*
X1621Y567D01*
X1Y566D02*
X8Y566D01*
X1614Y566D02*
X1621Y566D01*
X1Y565D02*
X8Y565D01*
X1614Y565D02*
X1621Y565D01*
X1Y564D02*
X8Y564D01*
X1614Y564D02*
X1621Y564D01*
X1Y563D02*
X8Y563D01*
X1614Y563D02*
X1621Y563D01*
X1Y562D02*
X8Y562D01*
X1614Y562D02*
X1621Y562D01*
X1Y561D02*
X8Y561D01*
X1614Y561D02*
X1621Y561D01*
X1Y560D02*
X8Y560D01*
X1614Y560D02*
X1621Y560D01*
X1Y559D02*
X8Y559D01*
X1614Y559D02*
X1621Y559D01*
X1Y558D02*
X8Y558D01*
X1614Y558D02*
X1621Y558D01*
X1Y557D02*
X8Y557D01*
X1614Y557D02*
X1621Y557D01*
X1Y556D02*
X8Y556D01*
X1614Y556D02*
X1621Y556D01*
X1Y555D02*
X8Y555D01*
X1614Y555D02*
X1621Y555D01*
X1Y554D02*
X8Y554D01*
X1614Y554D02*
X1621Y554D01*
X1Y553D02*
X8Y553D01*
X1614Y553D02*
X1621Y553D01*
X1Y552D02*
X8Y552D01*
X1614Y552D02*
X1621Y552D01*
X1Y551D02*
X8Y551D01*
X1614Y551D02*
X1621Y551D01*
X1Y550D02*
X8Y550D01*
X1614Y550D02*
X1621Y550D01*
X1Y549D02*
X8Y549D01*
X1614Y549D02*
X1621Y549D01*
X1Y548D02*
X8Y548D01*
X1614Y548D02*
X1621Y548D01*
X1Y547D02*
X8Y547D01*
X1614Y547D02*
X1621Y547D01*
X1Y546D02*
X8Y546D01*
X1614Y546D02*
X1621Y546D01*
X1Y545D02*
X8Y545D01*
X1614Y545D02*
X1621Y545D01*
X1Y544D02*
X8Y544D01*
X1614Y544D02*
X1621Y544D01*
X1Y543D02*
X8Y543D01*
X1614Y543D02*
X1621Y543D01*
X1Y542D02*
X8Y542D01*
X1614Y542D02*
X1621Y542D01*
X1Y541D02*
X8Y541D01*
X1614Y541D02*
X1621Y541D01*
X1Y540D02*
X8Y540D01*
X1614Y540D02*
X1621Y540D01*
X1Y539D02*
X8Y539D01*
X1614Y539D02*
X1621Y539D01*
X1Y538D02*
X8Y538D01*
X1614Y538D02*
X1621Y538D01*
X1Y537D02*
X8Y537D01*
X1614Y537D02*
X1621Y537D01*
X1Y536D02*
X8Y536D01*
X1614Y536D02*
X1621Y536D01*
X1Y535D02*
X8Y535D01*
X1614Y535D02*
X1621Y535D01*
X1Y534D02*
X8Y534D01*
X1614Y534D02*
X1621Y534D01*
X1Y533D02*
X8Y533D01*
X1614Y533D02*
X1621Y533D01*
X1Y532D02*
X8Y532D01*
X1614Y532D02*
X1621Y532D01*
X1Y531D02*
X8Y531D01*
X1614Y531D02*
X1621Y531D01*
X1Y530D02*
X8Y530D01*
X1614Y530D02*
X1621Y530D01*
X1Y529D02*
X8Y529D01*
X1614Y529D02*
X1621Y529D01*
X1Y528D02*
X8Y528D01*
X1614Y528D02*
X1621Y528D01*
X1Y527D02*
X8Y527D01*
X1614Y527D02*
X1621Y527D01*
X1Y526D02*
X8Y526D01*
X1614Y526D02*
X1621Y526D01*
X1Y525D02*
X8Y525D01*
X1614Y525D02*
X1621Y525D01*
X1Y524D02*
X8Y524D01*
X1614Y524D02*
X1621Y524D01*
X1Y523D02*
X8Y523D01*
X1614Y523D02*
X1621Y523D01*
X1Y522D02*
X8Y522D01*
X1614Y522D02*
X1621Y522D01*
X1Y521D02*
X8Y521D01*
X1614Y521D02*
X1621Y521D01*
X1Y520D02*
X8Y520D01*
X1614Y520D02*
X1621Y520D01*
X1Y519D02*
X8Y519D01*
X1614Y519D02*
X1621Y519D01*
X1Y518D02*
X8Y518D01*
X1614Y518D02*
X1621Y518D01*
X1Y517D02*
X8Y517D01*
X1614Y517D02*
X1621Y517D01*
X1Y516D02*
X8Y516D01*
X1614Y516D02*
X1621Y516D01*
X1Y515D02*
X8Y515D01*
X1614Y515D02*
X1621Y515D01*
X1Y514D02*
X8Y514D01*
X1614Y514D02*
X1621Y514D01*
X1Y513D02*
X8Y513D01*
X1614Y513D02*
X1621Y513D01*
X1Y512D02*
X8Y512D01*
X1614Y512D02*
X1621Y512D01*
X1Y511D02*
X8Y511D01*
X1614Y511D02*
X1621Y511D01*
X1Y510D02*
X8Y510D01*
X1614Y510D02*
X1621Y510D01*
X1Y509D02*
X8Y509D01*
X1614Y509D02*
X1621Y509D01*
X1Y508D02*
X8Y508D01*
X1614Y508D02*
X1621Y508D01*
X1Y507D02*
X8Y507D01*
X1614Y507D02*
X1621Y507D01*
X1Y506D02*
X8Y506D01*
X1614Y506D02*
X1621Y506D01*
X1Y505D02*
X8Y505D01*
X1614Y505D02*
X1621Y505D01*
X1Y504D02*
X8Y504D01*
X1614Y504D02*
X1621Y504D01*
X1Y503D02*
X8Y503D01*
X1614Y503D02*
X1621Y503D01*
X1Y502D02*
X8Y502D01*
X1614Y502D02*
X1621Y502D01*
X1Y501D02*
X8Y501D01*
X1614Y501D02*
X1621Y501D01*
X1Y500D02*
X8Y500D01*
X1614Y500D02*
X1621Y500D01*
X1Y499D02*
X8Y499D01*
X1614Y499D02*
X1621Y499D01*
X1Y498D02*
X8Y498D01*
X1614Y498D02*
X1621Y498D01*
X1Y497D02*
X8Y497D01*
X1614Y497D02*
X1621Y497D01*
X1Y496D02*
X8Y496D01*
X1614Y496D02*
X1621Y496D01*
X1Y495D02*
X8Y495D01*
X1614Y495D02*
X1621Y495D01*
X1Y494D02*
X8Y494D01*
X1614Y494D02*
X1621Y494D01*
X1Y493D02*
X8Y493D01*
X1614Y493D02*
X1621Y493D01*
X1Y492D02*
X8Y492D01*
X1614Y492D02*
X1621Y492D01*
X1Y491D02*
X8Y491D01*
X1614Y491D02*
X1621Y491D01*
X1Y490D02*
X8Y490D01*
X1614Y490D02*
X1621Y490D01*
X1Y489D02*
X8Y489D01*
X1614Y489D02*
X1621Y489D01*
X1Y488D02*
X8Y488D01*
X1614Y488D02*
X1621Y488D01*
X1Y487D02*
X8Y487D01*
X1614Y487D02*
X1621Y487D01*
X1Y486D02*
X8Y486D01*
X1614Y486D02*
X1621Y486D01*
X1Y485D02*
X8Y485D01*
X1614Y485D02*
X1621Y485D01*
X1Y484D02*
X8Y484D01*
X1614Y484D02*
X1621Y484D01*
X1Y483D02*
X8Y483D01*
X1614Y483D02*
X1621Y483D01*
X1Y482D02*
X8Y482D01*
X1614Y482D02*
X1621Y482D01*
X1Y481D02*
X8Y481D01*
X1614Y481D02*
X1621Y481D01*
X1Y480D02*
X8Y480D01*
X1614Y480D02*
X1621Y480D01*
X1Y479D02*
X8Y479D01*
X1614Y479D02*
X1621Y479D01*
X1Y478D02*
X8Y478D01*
X1614Y478D02*
X1621Y478D01*
X1Y477D02*
X8Y477D01*
X1614Y477D02*
X1621Y477D01*
X1Y476D02*
X8Y476D01*
X1614Y476D02*
X1621Y476D01*
X1Y475D02*
X8Y475D01*
X1614Y475D02*
X1621Y475D01*
X1Y474D02*
X8Y474D01*
X1614Y474D02*
X1621Y474D01*
X1Y473D02*
X8Y473D01*
X1614Y473D02*
X1621Y473D01*
X1Y472D02*
X8Y472D01*
X1614Y472D02*
X1621Y472D01*
X1Y471D02*
X8Y471D01*
X1614Y471D02*
X1621Y471D01*
X1Y470D02*
X8Y470D01*
X1614Y470D02*
X1621Y470D01*
X1Y469D02*
X8Y469D01*
X1614Y469D02*
X1621Y469D01*
X1Y468D02*
X8Y468D01*
X1614Y468D02*
X1621Y468D01*
X1Y467D02*
X8Y467D01*
X1614Y467D02*
X1621Y467D01*
X1Y466D02*
X8Y466D01*
X1614Y466D02*
X1621Y466D01*
X1Y465D02*
X8Y465D01*
X1614Y465D02*
X1621Y465D01*
X1Y464D02*
X8Y464D01*
X1614Y464D02*
X1621Y464D01*
X1Y463D02*
X8Y463D01*
X1614Y463D02*
X1621Y463D01*
X1Y462D02*
X8Y462D01*
X1614Y462D02*
X1621Y462D01*
X1Y461D02*
X8Y461D01*
X1614Y461D02*
X1621Y461D01*
X1Y460D02*
X8Y460D01*
X1614Y460D02*
X1621Y460D01*
X1Y459D02*
X8Y459D01*
X1614Y459D02*
X1621Y459D01*
X1Y458D02*
X8Y458D01*
X1614Y458D02*
X1621Y458D01*
X1Y457D02*
X8Y457D01*
X1614Y457D02*
X1621Y457D01*
X1Y456D02*
X8Y456D01*
X1614Y456D02*
X1621Y456D01*
X1Y455D02*
X8Y455D01*
X1614Y455D02*
X1621Y455D01*
X1Y454D02*
X8Y454D01*
X1614Y454D02*
X1621Y454D01*
X1Y453D02*
X8Y453D01*
X1614Y453D02*
X1621Y453D01*
X1Y452D02*
X8Y452D01*
X1614Y452D02*
X1621Y452D01*
X1Y451D02*
X8Y451D01*
X1614Y451D02*
X1621Y451D01*
X1Y450D02*
X8Y450D01*
X1614Y450D02*
X1621Y450D01*
X1Y449D02*
X8Y449D01*
X1614Y449D02*
X1621Y449D01*
X1Y448D02*
X8Y448D01*
X1614Y448D02*
X1621Y448D01*
X1Y447D02*
X8Y447D01*
X1614Y447D02*
X1621Y447D01*
X1Y446D02*
X8Y446D01*
X1614Y446D02*
X1621Y446D01*
X1Y445D02*
X8Y445D01*
X1614Y445D02*
X1621Y445D01*
X1Y444D02*
X8Y444D01*
X1614Y444D02*
X1621Y444D01*
X1Y443D02*
X8Y443D01*
X1614Y443D02*
X1621Y443D01*
X1Y442D02*
X8Y442D01*
X1614Y442D02*
X1621Y442D01*
X1Y441D02*
X8Y441D01*
X1614Y441D02*
X1621Y441D01*
X1Y440D02*
X8Y440D01*
X1614Y440D02*
X1621Y440D01*
X1Y439D02*
X8Y439D01*
X1614Y439D02*
X1621Y439D01*
X1Y438D02*
X8Y438D01*
X1614Y438D02*
X1621Y438D01*
X1Y437D02*
X8Y437D01*
X1614Y437D02*
X1621Y437D01*
X1Y436D02*
X8Y436D01*
X1614Y436D02*
X1621Y436D01*
X1Y435D02*
X8Y435D01*
X1614Y435D02*
X1621Y435D01*
X1Y434D02*
X8Y434D01*
X1614Y434D02*
X1621Y434D01*
X1Y433D02*
X8Y433D01*
X1614Y433D02*
X1621Y433D01*
X1Y432D02*
X8Y432D01*
X1614Y432D02*
X1621Y432D01*
X1Y431D02*
X8Y431D01*
X1614Y431D02*
X1621Y431D01*
X1Y430D02*
X8Y430D01*
X1614Y430D02*
X1621Y430D01*
X1Y429D02*
X8Y429D01*
X1614Y429D02*
X1621Y429D01*
X1Y428D02*
X8Y428D01*
X1614Y428D02*
X1621Y428D01*
X1Y427D02*
X8Y427D01*
X1614Y427D02*
X1621Y427D01*
X1Y426D02*
X8Y426D01*
X1614Y426D02*
X1621Y426D01*
X1Y425D02*
X8Y425D01*
X1614Y425D02*
X1621Y425D01*
X1Y424D02*
X8Y424D01*
X1614Y424D02*
X1621Y424D01*
X1Y423D02*
X8Y423D01*
X1614Y423D02*
X1621Y423D01*
X1Y422D02*
X8Y422D01*
X1614Y422D02*
X1621Y422D01*
X1Y421D02*
X8Y421D01*
X1614Y421D02*
X1621Y421D01*
X1Y420D02*
X8Y420D01*
X1614Y420D02*
X1621Y420D01*
X1Y419D02*
X8Y419D01*
X1614Y419D02*
X1621Y419D01*
X1Y418D02*
X8Y418D01*
X1614Y418D02*
X1621Y418D01*
X1Y417D02*
X8Y417D01*
X1614Y417D02*
X1621Y417D01*
X1Y416D02*
X8Y416D01*
X1614Y416D02*
X1621Y416D01*
X1Y415D02*
X8Y415D01*
X1614Y415D02*
X1621Y415D01*
X1Y414D02*
X8Y414D01*
X1614Y414D02*
X1621Y414D01*
X1Y413D02*
X8Y413D01*
X1614Y413D02*
X1621Y413D01*
X1Y412D02*
X8Y412D01*
X1614Y412D02*
X1621Y412D01*
X1Y411D02*
X8Y411D01*
X1614Y411D02*
X1621Y411D01*
X1Y410D02*
X8Y410D01*
X1614Y410D02*
X1621Y410D01*
X1Y409D02*
X8Y409D01*
X1614Y409D02*
X1621Y409D01*
X1Y408D02*
X8Y408D01*
X1614Y408D02*
X1621Y408D01*
X1Y407D02*
X8Y407D01*
X1614Y407D02*
X1621Y407D01*
X1Y406D02*
X8Y406D01*
X1614Y406D02*
X1621Y406D01*
X1Y405D02*
X8Y405D01*
X1614Y405D02*
X1621Y405D01*
X1Y404D02*
X8Y404D01*
X1614Y404D02*
X1621Y404D01*
X1Y403D02*
X8Y403D01*
X1614Y403D02*
X1621Y403D01*
X1Y402D02*
X8Y402D01*
X1614Y402D02*
X1621Y402D01*
X1Y401D02*
X8Y401D01*
X1614Y401D02*
X1621Y401D01*
X1Y400D02*
X8Y400D01*
X1614Y400D02*
X1621Y400D01*
X1Y399D02*
X8Y399D01*
X1614Y399D02*
X1621Y399D01*
X1Y398D02*
X8Y398D01*
X1614Y398D02*
X1621Y398D01*
X1Y397D02*
X8Y397D01*
X1614Y397D02*
X1621Y397D01*
X1Y396D02*
X8Y396D01*
X1614Y396D02*
X1621Y396D01*
X1Y395D02*
X8Y395D01*
X1614Y395D02*
X1621Y395D01*
X1Y394D02*
X8Y394D01*
X1614Y394D02*
X1621Y394D01*
X1Y393D02*
X8Y393D01*
X1614Y393D02*
X1621Y393D01*
X1Y392D02*
X8Y392D01*
X1614Y392D02*
X1621Y392D01*
X1Y391D02*
X8Y391D01*
X1614Y391D02*
X1621Y391D01*
X1Y390D02*
X8Y390D01*
X1614Y390D02*
X1621Y390D01*
X1Y389D02*
X8Y389D01*
X1614Y389D02*
X1621Y389D01*
X1Y388D02*
X8Y388D01*
X1614Y388D02*
X1621Y388D01*
X1Y387D02*
X8Y387D01*
X1614Y387D02*
X1621Y387D01*
X1Y386D02*
X8Y386D01*
X1614Y386D02*
X1621Y386D01*
X1Y385D02*
X8Y385D01*
X1614Y385D02*
X1621Y385D01*
X1Y384D02*
X8Y384D01*
X1614Y384D02*
X1621Y384D01*
X1Y383D02*
X8Y383D01*
X1614Y383D02*
X1621Y383D01*
X1Y382D02*
X8Y382D01*
X1614Y382D02*
X1621Y382D01*
X1Y381D02*
X8Y381D01*
X1614Y381D02*
X1621Y381D01*
X1Y380D02*
X8Y380D01*
X1614Y380D02*
X1621Y380D01*
X1Y379D02*
X8Y379D01*
X1614Y379D02*
X1621Y379D01*
X1Y378D02*
X8Y378D01*
X1614Y378D02*
X1621Y378D01*
X1Y377D02*
X8Y377D01*
X1614Y377D02*
X1621Y377D01*
X1Y376D02*
X8Y376D01*
X1614Y376D02*
X1621Y376D01*
X1Y375D02*
X8Y375D01*
X1614Y375D02*
X1621Y375D01*
X1Y374D02*
X8Y374D01*
X1614Y374D02*
X1621Y374D01*
X1Y373D02*
X8Y373D01*
X1614Y373D02*
X1621Y373D01*
X1Y372D02*
X8Y372D01*
X1614Y372D02*
X1621Y372D01*
X1Y371D02*
X8Y371D01*
X1614Y371D02*
X1621Y371D01*
X1Y370D02*
X8Y370D01*
X1614Y370D02*
X1621Y370D01*
X1Y369D02*
X8Y369D01*
X1614Y369D02*
X1621Y369D01*
X1Y368D02*
X8Y368D01*
X1614Y368D02*
X1621Y368D01*
X1Y367D02*
X8Y367D01*
X1614Y367D02*
X1621Y367D01*
X1Y366D02*
X8Y366D01*
X1614Y366D02*
X1621Y366D01*
X1Y365D02*
X8Y365D01*
X1614Y365D02*
X1621Y365D01*
X1Y364D02*
X8Y364D01*
X1614Y364D02*
X1621Y364D01*
X1Y363D02*
X8Y363D01*
X1614Y363D02*
X1621Y363D01*
X1Y362D02*
X8Y362D01*
X1614Y362D02*
X1621Y362D01*
X1Y361D02*
X8Y361D01*
X1614Y361D02*
X1621Y361D01*
X1Y360D02*
X8Y360D01*
X1614Y360D02*
X1621Y360D01*
X1Y359D02*
X8Y359D01*
X1614Y359D02*
X1621Y359D01*
X1Y358D02*
X8Y358D01*
X1614Y358D02*
X1621Y358D01*
X1Y357D02*
X8Y357D01*
X1614Y357D02*
X1621Y357D01*
X1Y356D02*
X8Y356D01*
X1614Y356D02*
X1621Y356D01*
X1Y355D02*
X8Y355D01*
X1614Y355D02*
X1621Y355D01*
X1Y354D02*
X8Y354D01*
X744Y354D02*
X747Y354D01*
X772Y354D02*
X774Y354D01*
X795Y354D02*
X813Y354D01*
X1614Y354D02*
X1621Y354D01*
X1Y353D02*
X8Y353D01*
X743Y353D02*
X748Y353D01*
X771Y353D02*
X775Y353D01*
X794Y353D02*
X813Y353D01*
X1614Y353D02*
X1621Y353D01*
X1Y352D02*
X8Y352D01*
X743Y352D02*
X748Y352D01*
X770Y352D02*
X776Y352D01*
X793Y352D02*
X813Y352D01*
X1614Y352D02*
X1621Y352D01*
X1Y351D02*
X8Y351D01*
X743Y351D02*
X749Y351D01*
X770Y351D02*
X776Y351D01*
X793Y351D02*
X813Y351D01*
X1614Y351D02*
X1621Y351D01*
X1Y350D02*
X8Y350D01*
X743Y350D02*
X749Y350D01*
X770Y350D02*
X776Y350D01*
X793Y350D02*
X813Y350D01*
X1614Y350D02*
X1621Y350D01*
X1Y349D02*
X8Y349D01*
X743Y349D02*
X749Y349D01*
X770Y349D02*
X776Y349D01*
X793Y349D02*
X813Y349D01*
X1614Y349D02*
X1621Y349D01*
X1Y348D02*
X8Y348D01*
X743Y348D02*
X749Y348D01*
X770Y348D02*
X776Y348D01*
X795Y348D02*
X813Y348D01*
X1614Y348D02*
X1621Y348D01*
X1Y347D02*
X8Y347D01*
X743Y347D02*
X749Y347D01*
X770Y347D02*
X776Y347D01*
X807Y347D02*
X813Y347D01*
X1614Y347D02*
X1621Y347D01*
X1Y346D02*
X8Y346D01*
X743Y346D02*
X749Y346D01*
X770Y346D02*
X776Y346D01*
X807Y346D02*
X813Y346D01*
X1614Y346D02*
X1621Y346D01*
X1Y345D02*
X8Y345D01*
X743Y345D02*
X749Y345D01*
X770Y345D02*
X776Y345D01*
X807Y345D02*
X813Y345D01*
X1614Y345D02*
X1621Y345D01*
X1Y344D02*
X8Y344D01*
X743Y344D02*
X749Y344D01*
X770Y344D02*
X776Y344D01*
X807Y344D02*
X813Y344D01*
X1614Y344D02*
X1621Y344D01*
X1Y343D02*
X8Y343D01*
X743Y343D02*
X749Y343D01*
X770Y343D02*
X776Y343D01*
X807Y343D02*
X813Y343D01*
X1614Y343D02*
X1621Y343D01*
X1Y342D02*
X8Y342D01*
X743Y342D02*
X749Y342D01*
X770Y342D02*
X776Y342D01*
X807Y342D02*
X813Y342D01*
X1614Y342D02*
X1621Y342D01*
X1Y341D02*
X8Y341D01*
X743Y341D02*
X749Y341D01*
X770Y341D02*
X776Y341D01*
X807Y341D02*
X813Y341D01*
X1614Y341D02*
X1621Y341D01*
X1Y340D02*
X8Y340D01*
X743Y340D02*
X749Y340D01*
X770Y340D02*
X776Y340D01*
X807Y340D02*
X813Y340D01*
X1614Y340D02*
X1621Y340D01*
X1Y339D02*
X8Y339D01*
X743Y339D02*
X749Y339D01*
X770Y339D02*
X776Y339D01*
X807Y339D02*
X813Y339D01*
X1614Y339D02*
X1621Y339D01*
X1Y338D02*
X8Y338D01*
X743Y338D02*
X749Y338D01*
X770Y338D02*
X776Y338D01*
X807Y338D02*
X813Y338D01*
X1614Y338D02*
X1621Y338D01*
X1Y337D02*
X8Y337D01*
X743Y337D02*
X749Y337D01*
X770Y337D02*
X776Y337D01*
X807Y337D02*
X813Y337D01*
X1614Y337D02*
X1621Y337D01*
X1Y336D02*
X8Y336D01*
X743Y336D02*
X749Y336D01*
X770Y336D02*
X776Y336D01*
X807Y336D02*
X813Y336D01*
X1614Y336D02*
X1621Y336D01*
X1Y335D02*
X8Y335D01*
X743Y335D02*
X749Y335D01*
X770Y335D02*
X776Y335D01*
X807Y335D02*
X813Y335D01*
X1614Y335D02*
X1621Y335D01*
X1Y334D02*
X8Y334D01*
X743Y334D02*
X749Y334D01*
X770Y334D02*
X776Y334D01*
X807Y334D02*
X813Y334D01*
X1614Y334D02*
X1621Y334D01*
X1Y333D02*
X8Y333D01*
X743Y333D02*
X749Y333D01*
X770Y333D02*
X776Y333D01*
X807Y333D02*
X813Y333D01*
X1614Y333D02*
X1621Y333D01*
X1Y332D02*
X8Y332D01*
X743Y332D02*
X749Y332D01*
X770Y332D02*
X776Y332D01*
X807Y332D02*
X813Y332D01*
X1614Y332D02*
X1621Y332D01*
X1Y331D02*
X8Y331D01*
X743Y331D02*
X749Y331D01*
X770Y331D02*
X776Y331D01*
X807Y331D02*
X813Y331D01*
X1614Y331D02*
X1621Y331D01*
X1Y330D02*
X8Y330D01*
X743Y330D02*
X749Y330D01*
X770Y330D02*
X776Y330D01*
X807Y330D02*
X813Y330D01*
X1614Y330D02*
X1621Y330D01*
X1Y329D02*
X8Y329D01*
X743Y329D02*
X749Y329D01*
X770Y329D02*
X776Y329D01*
X807Y329D02*
X813Y329D01*
X1614Y329D02*
X1621Y329D01*
X1Y328D02*
X8Y328D01*
X743Y328D02*
X749Y328D01*
X770Y328D02*
X776Y328D01*
X807Y328D02*
X813Y328D01*
X1614Y328D02*
X1621Y328D01*
X1Y327D02*
X8Y327D01*
X743Y327D02*
X749Y327D01*
X770Y327D02*
X776Y327D01*
X807Y327D02*
X813Y327D01*
X1614Y327D02*
X1621Y327D01*
X1Y326D02*
X8Y326D01*
X743Y326D02*
X749Y326D01*
X770Y326D02*
X776Y326D01*
X807Y326D02*
X813Y326D01*
X1614Y326D02*
X1621Y326D01*
X1Y325D02*
X8Y325D01*
X743Y325D02*
X749Y325D01*
X770Y325D02*
X776Y325D01*
X807Y325D02*
X813Y325D01*
X1614Y325D02*
X1621Y325D01*
X1Y324D02*
X8Y324D01*
X743Y324D02*
X749Y324D01*
X770Y324D02*
X776Y324D01*
X807Y324D02*
X813Y324D01*
X821Y324D02*
X825Y324D01*
X1614Y324D02*
X1621Y324D01*
X1Y323D02*
X8Y323D01*
X743Y323D02*
X749Y323D01*
X770Y323D02*
X776Y323D01*
X807Y323D02*
X813Y323D01*
X821Y323D02*
X826Y323D01*
X1614Y323D02*
X1621Y323D01*
X1Y322D02*
X8Y322D01*
X743Y322D02*
X749Y322D01*
X770Y322D02*
X776Y322D01*
X807Y322D02*
X813Y322D01*
X820Y322D02*
X826Y322D01*
X1614Y322D02*
X1621Y322D01*
X1Y321D02*
X8Y321D01*
X743Y321D02*
X749Y321D01*
X770Y321D02*
X776Y321D01*
X807Y321D02*
X813Y321D01*
X820Y321D02*
X826Y321D01*
X1614Y321D02*
X1621Y321D01*
X1Y320D02*
X8Y320D01*
X743Y320D02*
X749Y320D01*
X770Y320D02*
X776Y320D01*
X807Y320D02*
X813Y320D01*
X820Y320D02*
X826Y320D01*
X1614Y320D02*
X1621Y320D01*
X1Y319D02*
X8Y319D01*
X743Y319D02*
X749Y319D01*
X770Y319D02*
X776Y319D01*
X807Y319D02*
X813Y319D01*
X820Y319D02*
X826Y319D01*
X1614Y319D02*
X1621Y319D01*
X1Y318D02*
X8Y318D01*
X743Y318D02*
X749Y318D01*
X770Y318D02*
X776Y318D01*
X807Y318D02*
X813Y318D01*
X820Y318D02*
X826Y318D01*
X1614Y318D02*
X1621Y318D01*
X1Y317D02*
X8Y317D01*
X743Y317D02*
X749Y317D01*
X770Y317D02*
X776Y317D01*
X807Y317D02*
X813Y317D01*
X820Y317D02*
X826Y317D01*
X1614Y317D02*
X1621Y317D01*
X1Y316D02*
X8Y316D01*
X743Y316D02*
X749Y316D01*
X770Y316D02*
X776Y316D01*
X807Y316D02*
X813Y316D01*
X820Y316D02*
X826Y316D01*
X1614Y316D02*
X1621Y316D01*
X1Y315D02*
X8Y315D01*
X743Y315D02*
X749Y315D01*
X770Y315D02*
X776Y315D01*
X807Y315D02*
X813Y315D01*
X820Y315D02*
X826Y315D01*
X1614Y315D02*
X1621Y315D01*
X1Y314D02*
X8Y314D01*
X743Y314D02*
X749Y314D01*
X770Y314D02*
X776Y314D01*
X807Y314D02*
X813Y314D01*
X820Y314D02*
X826Y314D01*
X1614Y314D02*
X1621Y314D01*
X1Y313D02*
X8Y313D01*
X743Y313D02*
X749Y313D01*
X770Y313D02*
X776Y313D01*
X807Y313D02*
X813Y313D01*
X820Y313D02*
X826Y313D01*
X1614Y313D02*
X1621Y313D01*
X1Y312D02*
X8Y312D01*
X743Y312D02*
X749Y312D01*
X770Y312D02*
X776Y312D01*
X807Y312D02*
X813Y312D01*
X820Y312D02*
X826Y312D01*
X1614Y312D02*
X1621Y312D01*
X1Y311D02*
X8Y311D01*
X743Y311D02*
X749Y311D01*
X770Y311D02*
X776Y311D01*
X807Y311D02*
X813Y311D01*
X820Y311D02*
X826Y311D01*
X1614Y311D02*
X1621Y311D01*
X1Y310D02*
X8Y310D01*
X743Y310D02*
X749Y310D01*
X770Y310D02*
X776Y310D01*
X807Y310D02*
X813Y310D01*
X820Y310D02*
X826Y310D01*
X1614Y310D02*
X1621Y310D01*
X1Y309D02*
X8Y309D01*
X743Y309D02*
X749Y309D01*
X770Y309D02*
X776Y309D01*
X807Y309D02*
X813Y309D01*
X820Y309D02*
X826Y309D01*
X1614Y309D02*
X1621Y309D01*
X1Y308D02*
X8Y308D01*
X743Y308D02*
X750Y308D01*
X769Y308D02*
X776Y308D01*
X807Y308D02*
X813Y308D01*
X820Y308D02*
X826Y308D01*
X1614Y308D02*
X1621Y308D01*
X1Y307D02*
X8Y307D01*
X743Y307D02*
X775Y307D01*
X795Y307D02*
X826Y307D01*
X1614Y307D02*
X1621Y307D01*
X1Y306D02*
X8Y306D01*
X744Y306D02*
X775Y306D01*
X794Y306D02*
X826Y306D01*
X1614Y306D02*
X1621Y306D01*
X1Y305D02*
X8Y305D01*
X744Y305D02*
X774Y305D01*
X793Y305D02*
X826Y305D01*
X1614Y305D02*
X1621Y305D01*
X1Y304D02*
X8Y304D01*
X745Y304D02*
X774Y304D01*
X793Y304D02*
X826Y304D01*
X1614Y304D02*
X1621Y304D01*
X1Y303D02*
X8Y303D01*
X746Y303D02*
X773Y303D01*
X793Y303D02*
X826Y303D01*
X1614Y303D02*
X1621Y303D01*
X1Y302D02*
X8Y302D01*
X747Y302D02*
X771Y302D01*
X793Y302D02*
X826Y302D01*
X1614Y302D02*
X1621Y302D01*
X1Y301D02*
X8Y301D01*
X749Y301D02*
X769Y301D01*
X794Y301D02*
X825Y301D01*
X1614Y301D02*
X1621Y301D01*
X1Y300D02*
X8Y300D01*
X1614Y300D02*
X1621Y300D01*
X1Y299D02*
X8Y299D01*
X1614Y299D02*
X1621Y299D01*
X1Y298D02*
X8Y298D01*
X1614Y298D02*
X1621Y298D01*
X1Y297D02*
X8Y297D01*
X1614Y297D02*
X1621Y297D01*
X1Y296D02*
X8Y296D01*
X1614Y296D02*
X1621Y296D01*
X1Y295D02*
X8Y295D01*
X1614Y295D02*
X1621Y295D01*
X1Y294D02*
X8Y294D01*
X1614Y294D02*
X1621Y294D01*
X1Y293D02*
X8Y293D01*
X1614Y293D02*
X1621Y293D01*
X1Y292D02*
X8Y292D01*
X1614Y292D02*
X1621Y292D01*
X1Y291D02*
X8Y291D01*
X1614Y291D02*
X1621Y291D01*
X1Y290D02*
X8Y290D01*
X1614Y290D02*
X1621Y290D01*
X1Y289D02*
X8Y289D01*
X1614Y289D02*
X1621Y289D01*
X1Y288D02*
X8Y288D01*
X1614Y288D02*
X1621Y288D01*
X1Y287D02*
X8Y287D01*
X1614Y287D02*
X1621Y287D01*
X1Y286D02*
X8Y286D01*
X1614Y286D02*
X1621Y286D01*
X1Y285D02*
X8Y285D01*
X1614Y285D02*
X1621Y285D01*
X1Y284D02*
X8Y284D01*
X1614Y284D02*
X1621Y284D01*
X1Y283D02*
X8Y283D01*
X1614Y283D02*
X1621Y283D01*
X1Y282D02*
X8Y282D01*
X1614Y282D02*
X1621Y282D01*
X1Y281D02*
X8Y281D01*
X1614Y281D02*
X1621Y281D01*
X1Y280D02*
X8Y280D01*
X1614Y280D02*
X1621Y280D01*
X1Y279D02*
X8Y279D01*
X1614Y279D02*
X1621Y279D01*
X1Y278D02*
X8Y278D01*
X1614Y278D02*
X1621Y278D01*
X1Y277D02*
X8Y277D01*
X1614Y277D02*
X1621Y277D01*
X1Y276D02*
X8Y276D01*
X1614Y276D02*
X1621Y276D01*
X1Y275D02*
X8Y275D01*
X1614Y275D02*
X1621Y275D01*
X1Y274D02*
X8Y274D01*
X129Y274D02*
X732Y274D01*
X1614Y274D02*
X1621Y274D01*
X1Y273D02*
X8Y273D01*
X128Y273D02*
X733Y273D01*
X1614Y273D02*
X1621Y273D01*
X1Y272D02*
X8Y272D01*
X127Y272D02*
X733Y272D01*
X1614Y272D02*
X1621Y272D01*
X1Y271D02*
X8Y271D01*
X127Y271D02*
X734Y271D01*
X1614Y271D02*
X1621Y271D01*
X1Y270D02*
X8Y270D01*
X127Y270D02*
X734Y270D01*
X1614Y270D02*
X1621Y270D01*
X1Y269D02*
X8Y269D01*
X127Y269D02*
X734Y269D01*
X1614Y269D02*
X1621Y269D01*
X1Y268D02*
X8Y268D01*
X127Y268D02*
X296Y268D01*
X314Y268D02*
X396Y268D01*
X414Y268D02*
X496Y268D01*
X514Y268D02*
X596Y268D01*
X614Y268D02*
X734Y268D01*
X1614Y268D02*
X1621Y268D01*
X1Y267D02*
X8Y267D01*
X127Y267D02*
X292Y267D01*
X318Y267D02*
X392Y267D01*
X418Y267D02*
X492Y267D01*
X518Y267D02*
X592Y267D01*
X618Y267D02*
X734Y267D01*
X1614Y267D02*
X1621Y267D01*
X1Y266D02*
X8Y266D01*
X127Y266D02*
X134Y266D01*
X727Y266D02*
X734Y266D01*
X1614Y266D02*
X1621Y266D01*
X1Y265D02*
X8Y265D01*
X127Y265D02*
X134Y265D01*
X727Y265D02*
X734Y265D01*
X1614Y265D02*
X1621Y265D01*
X1Y264D02*
X8Y264D01*
X127Y264D02*
X134Y264D01*
X727Y264D02*
X734Y264D01*
X1614Y264D02*
X1621Y264D01*
X1Y263D02*
X8Y263D01*
X127Y263D02*
X134Y263D01*
X727Y263D02*
X734Y263D01*
X1614Y263D02*
X1621Y263D01*
X1Y262D02*
X8Y262D01*
X127Y262D02*
X134Y262D01*
X727Y262D02*
X734Y262D01*
X1614Y262D02*
X1621Y262D01*
X1Y261D02*
X8Y261D01*
X127Y261D02*
X134Y261D01*
X727Y261D02*
X734Y261D01*
X1614Y261D02*
X1621Y261D01*
X1Y260D02*
X8Y260D01*
X127Y260D02*
X134Y260D01*
X727Y260D02*
X734Y260D01*
X1614Y260D02*
X1621Y260D01*
X1Y259D02*
X8Y259D01*
X127Y259D02*
X134Y259D01*
X727Y259D02*
X734Y259D01*
X1614Y259D02*
X1621Y259D01*
X1Y258D02*
X8Y258D01*
X127Y258D02*
X134Y258D01*
X727Y258D02*
X734Y258D01*
X1614Y258D02*
X1621Y258D01*
X1Y257D02*
X8Y257D01*
X127Y257D02*
X134Y257D01*
X727Y257D02*
X734Y257D01*
X1614Y257D02*
X1621Y257D01*
X1Y256D02*
X8Y256D01*
X127Y256D02*
X134Y256D01*
X727Y256D02*
X734Y256D01*
X1614Y256D02*
X1621Y256D01*
X1Y255D02*
X8Y255D01*
X127Y255D02*
X134Y255D01*
X727Y255D02*
X734Y255D01*
X1614Y255D02*
X1621Y255D01*
X1Y254D02*
X8Y254D01*
X127Y254D02*
X134Y254D01*
X727Y254D02*
X734Y254D01*
X1614Y254D02*
X1621Y254D01*
X1Y253D02*
X8Y253D01*
X127Y253D02*
X134Y253D01*
X727Y253D02*
X734Y253D01*
X1614Y253D02*
X1621Y253D01*
X1Y252D02*
X8Y252D01*
X127Y252D02*
X134Y252D01*
X727Y252D02*
X734Y252D01*
X1614Y252D02*
X1621Y252D01*
X1Y251D02*
X8Y251D01*
X127Y251D02*
X134Y251D01*
X727Y251D02*
X734Y251D01*
X1614Y251D02*
X1621Y251D01*
X1Y250D02*
X8Y250D01*
X127Y250D02*
X134Y250D01*
X727Y250D02*
X734Y250D01*
X1614Y250D02*
X1621Y250D01*
X1Y249D02*
X8Y249D01*
X127Y249D02*
X134Y249D01*
X727Y249D02*
X734Y249D01*
X1614Y249D02*
X1621Y249D01*
X1Y248D02*
X8Y248D01*
X127Y248D02*
X134Y248D01*
X727Y248D02*
X734Y248D01*
X1614Y248D02*
X1621Y248D01*
X1Y247D02*
X8Y247D01*
X127Y247D02*
X134Y247D01*
X727Y247D02*
X734Y247D01*
X1614Y247D02*
X1621Y247D01*
X1Y246D02*
X8Y246D01*
X127Y246D02*
X134Y246D01*
X727Y246D02*
X734Y246D01*
X1614Y246D02*
X1621Y246D01*
X1Y245D02*
X8Y245D01*
X127Y245D02*
X134Y245D01*
X727Y245D02*
X734Y245D01*
X1614Y245D02*
X1621Y245D01*
X1Y244D02*
X8Y244D01*
X127Y244D02*
X134Y244D01*
X727Y244D02*
X734Y244D01*
X1614Y244D02*
X1621Y244D01*
X1Y243D02*
X8Y243D01*
X127Y243D02*
X134Y243D01*
X727Y243D02*
X734Y243D01*
X1614Y243D02*
X1621Y243D01*
X1Y242D02*
X8Y242D01*
X127Y242D02*
X134Y242D01*
X727Y242D02*
X734Y242D01*
X1614Y242D02*
X1621Y242D01*
X1Y241D02*
X8Y241D01*
X127Y241D02*
X134Y241D01*
X727Y241D02*
X734Y241D01*
X1614Y241D02*
X1621Y241D01*
X1Y240D02*
X8Y240D01*
X127Y240D02*
X134Y240D01*
X727Y240D02*
X734Y240D01*
X1614Y240D02*
X1621Y240D01*
X1Y239D02*
X8Y239D01*
X127Y239D02*
X134Y239D01*
X727Y239D02*
X734Y239D01*
X1614Y239D02*
X1621Y239D01*
X1Y238D02*
X8Y238D01*
X127Y238D02*
X134Y238D01*
X727Y238D02*
X734Y238D01*
X1614Y238D02*
X1621Y238D01*
X1Y237D02*
X8Y237D01*
X127Y237D02*
X134Y237D01*
X727Y237D02*
X734Y237D01*
X1614Y237D02*
X1621Y237D01*
X1Y236D02*
X8Y236D01*
X127Y236D02*
X134Y236D01*
X727Y236D02*
X734Y236D01*
X1614Y236D02*
X1621Y236D01*
X1Y235D02*
X8Y235D01*
X127Y235D02*
X134Y235D01*
X727Y235D02*
X734Y235D01*
X1614Y235D02*
X1621Y235D01*
X1Y234D02*
X8Y234D01*
X127Y234D02*
X134Y234D01*
X727Y234D02*
X734Y234D01*
X1614Y234D02*
X1621Y234D01*
X1Y233D02*
X8Y233D01*
X127Y233D02*
X134Y233D01*
X727Y233D02*
X734Y233D01*
X1614Y233D02*
X1621Y233D01*
X1Y232D02*
X8Y232D01*
X127Y232D02*
X134Y232D01*
X727Y232D02*
X734Y232D01*
X1614Y232D02*
X1621Y232D01*
X1Y231D02*
X8Y231D01*
X127Y231D02*
X134Y231D01*
X727Y231D02*
X734Y231D01*
X1614Y231D02*
X1621Y231D01*
X1Y230D02*
X8Y230D01*
X127Y230D02*
X134Y230D01*
X727Y230D02*
X734Y230D01*
X1614Y230D02*
X1621Y230D01*
X1Y229D02*
X8Y229D01*
X127Y229D02*
X134Y229D01*
X727Y229D02*
X734Y229D01*
X1614Y229D02*
X1621Y229D01*
X1Y228D02*
X8Y228D01*
X127Y228D02*
X134Y228D01*
X727Y228D02*
X734Y228D01*
X1614Y228D02*
X1621Y228D01*
X1Y227D02*
X8Y227D01*
X127Y227D02*
X134Y227D01*
X727Y227D02*
X734Y227D01*
X1614Y227D02*
X1621Y227D01*
X1Y226D02*
X8Y226D01*
X127Y226D02*
X134Y226D01*
X727Y226D02*
X734Y226D01*
X1614Y226D02*
X1621Y226D01*
X1Y225D02*
X8Y225D01*
X127Y225D02*
X134Y225D01*
X727Y225D02*
X734Y225D01*
X1614Y225D02*
X1621Y225D01*
X1Y224D02*
X8Y224D01*
X127Y224D02*
X134Y224D01*
X727Y224D02*
X734Y224D01*
X1614Y224D02*
X1621Y224D01*
X1Y223D02*
X8Y223D01*
X127Y223D02*
X134Y223D01*
X727Y223D02*
X734Y223D01*
X1614Y223D02*
X1621Y223D01*
X1Y222D02*
X8Y222D01*
X127Y222D02*
X134Y222D01*
X727Y222D02*
X734Y222D01*
X1614Y222D02*
X1621Y222D01*
X1Y221D02*
X8Y221D01*
X127Y221D02*
X134Y221D01*
X727Y221D02*
X734Y221D01*
X1614Y221D02*
X1621Y221D01*
X1Y220D02*
X8Y220D01*
X127Y220D02*
X134Y220D01*
X727Y220D02*
X734Y220D01*
X1614Y220D02*
X1621Y220D01*
X1Y219D02*
X8Y219D01*
X127Y219D02*
X134Y219D01*
X727Y219D02*
X734Y219D01*
X1614Y219D02*
X1621Y219D01*
X1Y218D02*
X8Y218D01*
X127Y218D02*
X134Y218D01*
X727Y218D02*
X734Y218D01*
X1614Y218D02*
X1621Y218D01*
X1Y217D02*
X8Y217D01*
X127Y217D02*
X134Y217D01*
X727Y217D02*
X734Y217D01*
X1614Y217D02*
X1621Y217D01*
X1Y216D02*
X8Y216D01*
X127Y216D02*
X134Y216D01*
X727Y216D02*
X734Y216D01*
X1614Y216D02*
X1621Y216D01*
X1Y215D02*
X8Y215D01*
X127Y215D02*
X134Y215D01*
X727Y215D02*
X734Y215D01*
X1614Y215D02*
X1621Y215D01*
X1Y214D02*
X8Y214D01*
X127Y214D02*
X134Y214D01*
X727Y214D02*
X734Y214D01*
X1614Y214D02*
X1621Y214D01*
X1Y213D02*
X8Y213D01*
X127Y213D02*
X134Y213D01*
X727Y213D02*
X734Y213D01*
X1614Y213D02*
X1621Y213D01*
X1Y212D02*
X8Y212D01*
X127Y212D02*
X134Y212D01*
X727Y212D02*
X734Y212D01*
X1614Y212D02*
X1621Y212D01*
X1Y211D02*
X8Y211D01*
X127Y211D02*
X134Y211D01*
X727Y211D02*
X734Y211D01*
X1614Y211D02*
X1621Y211D01*
X1Y210D02*
X8Y210D01*
X127Y210D02*
X134Y210D01*
X727Y210D02*
X734Y210D01*
X1614Y210D02*
X1621Y210D01*
X1Y209D02*
X8Y209D01*
X127Y209D02*
X134Y209D01*
X727Y209D02*
X734Y209D01*
X1614Y209D02*
X1621Y209D01*
X1Y208D02*
X8Y208D01*
X127Y208D02*
X134Y208D01*
X727Y208D02*
X734Y208D01*
X1614Y208D02*
X1621Y208D01*
X1Y207D02*
X8Y207D01*
X127Y207D02*
X134Y207D01*
X727Y207D02*
X734Y207D01*
X1614Y207D02*
X1621Y207D01*
X1Y206D02*
X8Y206D01*
X127Y206D02*
X134Y206D01*
X727Y206D02*
X734Y206D01*
X1614Y206D02*
X1621Y206D01*
X1Y205D02*
X8Y205D01*
X127Y205D02*
X134Y205D01*
X727Y205D02*
X734Y205D01*
X1614Y205D02*
X1621Y205D01*
X1Y204D02*
X8Y204D01*
X127Y204D02*
X134Y204D01*
X727Y204D02*
X734Y204D01*
X1614Y204D02*
X1621Y204D01*
X1Y203D02*
X8Y203D01*
X127Y203D02*
X134Y203D01*
X727Y203D02*
X734Y203D01*
X1614Y203D02*
X1621Y203D01*
X1Y202D02*
X8Y202D01*
X127Y202D02*
X134Y202D01*
X727Y202D02*
X734Y202D01*
X1614Y202D02*
X1621Y202D01*
X1Y201D02*
X8Y201D01*
X127Y201D02*
X134Y201D01*
X727Y201D02*
X734Y201D01*
X1614Y201D02*
X1621Y201D01*
X1Y200D02*
X8Y200D01*
X127Y200D02*
X134Y200D01*
X727Y200D02*
X734Y200D01*
X1614Y200D02*
X1621Y200D01*
X1Y199D02*
X8Y199D01*
X127Y199D02*
X134Y199D01*
X727Y199D02*
X734Y199D01*
X1614Y199D02*
X1621Y199D01*
X1Y198D02*
X8Y198D01*
X127Y198D02*
X134Y198D01*
X727Y198D02*
X734Y198D01*
X1614Y198D02*
X1621Y198D01*
X1Y197D02*
X8Y197D01*
X127Y197D02*
X134Y197D01*
X727Y197D02*
X734Y197D01*
X1614Y197D02*
X1621Y197D01*
X1Y196D02*
X8Y196D01*
X127Y196D02*
X134Y196D01*
X727Y196D02*
X734Y196D01*
X1614Y196D02*
X1621Y196D01*
X1Y195D02*
X8Y195D01*
X127Y195D02*
X134Y195D01*
X727Y195D02*
X734Y195D01*
X1614Y195D02*
X1621Y195D01*
X1Y194D02*
X8Y194D01*
X127Y194D02*
X134Y194D01*
X727Y194D02*
X734Y194D01*
X1614Y194D02*
X1621Y194D01*
X1Y193D02*
X8Y193D01*
X127Y193D02*
X134Y193D01*
X727Y193D02*
X734Y193D01*
X1614Y193D02*
X1621Y193D01*
X1Y192D02*
X8Y192D01*
X127Y192D02*
X134Y192D01*
X727Y192D02*
X734Y192D01*
X1614Y192D02*
X1621Y192D01*
X1Y191D02*
X8Y191D01*
X127Y191D02*
X134Y191D01*
X727Y191D02*
X734Y191D01*
X1614Y191D02*
X1621Y191D01*
X1Y190D02*
X8Y190D01*
X127Y190D02*
X134Y190D01*
X727Y190D02*
X734Y190D01*
X1614Y190D02*
X1621Y190D01*
X1Y189D02*
X8Y189D01*
X127Y189D02*
X134Y189D01*
X727Y189D02*
X734Y189D01*
X1614Y189D02*
X1621Y189D01*
X1Y188D02*
X8Y188D01*
X127Y188D02*
X134Y188D01*
X727Y188D02*
X734Y188D01*
X1614Y188D02*
X1621Y188D01*
X1Y187D02*
X8Y187D01*
X127Y187D02*
X134Y187D01*
X727Y187D02*
X734Y187D01*
X1614Y187D02*
X1621Y187D01*
X1Y186D02*
X8Y186D01*
X127Y186D02*
X134Y186D01*
X727Y186D02*
X734Y186D01*
X1614Y186D02*
X1621Y186D01*
X1Y185D02*
X8Y185D01*
X127Y185D02*
X134Y185D01*
X727Y185D02*
X734Y185D01*
X1614Y185D02*
X1621Y185D01*
X1Y184D02*
X8Y184D01*
X127Y184D02*
X134Y184D01*
X727Y184D02*
X734Y184D01*
X1614Y184D02*
X1621Y184D01*
X1Y183D02*
X8Y183D01*
X127Y183D02*
X134Y183D01*
X727Y183D02*
X734Y183D01*
X1614Y183D02*
X1621Y183D01*
X1Y182D02*
X8Y182D01*
X127Y182D02*
X134Y182D01*
X727Y182D02*
X734Y182D01*
X1614Y182D02*
X1621Y182D01*
X1Y181D02*
X8Y181D01*
X127Y181D02*
X134Y181D01*
X727Y181D02*
X734Y181D01*
X1614Y181D02*
X1621Y181D01*
X1Y180D02*
X8Y180D01*
X127Y180D02*
X134Y180D01*
X727Y180D02*
X734Y180D01*
X1614Y180D02*
X1621Y180D01*
X1Y179D02*
X8Y179D01*
X127Y179D02*
X134Y179D01*
X727Y179D02*
X734Y179D01*
X1614Y179D02*
X1621Y179D01*
X1Y178D02*
X8Y178D01*
X127Y178D02*
X134Y178D01*
X727Y178D02*
X734Y178D01*
X1614Y178D02*
X1621Y178D01*
X1Y177D02*
X8Y177D01*
X127Y177D02*
X134Y177D01*
X727Y177D02*
X734Y177D01*
X1614Y177D02*
X1621Y177D01*
X1Y176D02*
X8Y176D01*
X127Y176D02*
X134Y176D01*
X727Y176D02*
X734Y176D01*
X1614Y176D02*
X1621Y176D01*
X1Y175D02*
X8Y175D01*
X127Y175D02*
X134Y175D01*
X727Y175D02*
X734Y175D01*
X1614Y175D02*
X1621Y175D01*
X1Y174D02*
X8Y174D01*
X127Y174D02*
X134Y174D01*
X727Y174D02*
X734Y174D01*
X1614Y174D02*
X1621Y174D01*
X1Y173D02*
X8Y173D01*
X127Y173D02*
X134Y173D01*
X727Y173D02*
X734Y173D01*
X1614Y173D02*
X1621Y173D01*
X1Y172D02*
X8Y172D01*
X127Y172D02*
X134Y172D01*
X727Y172D02*
X734Y172D01*
X1614Y172D02*
X1621Y172D01*
X1Y171D02*
X8Y171D01*
X127Y171D02*
X134Y171D01*
X727Y171D02*
X734Y171D01*
X1614Y171D02*
X1621Y171D01*
X1Y170D02*
X8Y170D01*
X127Y170D02*
X134Y170D01*
X727Y170D02*
X734Y170D01*
X1614Y170D02*
X1621Y170D01*
X1Y169D02*
X8Y169D01*
X127Y169D02*
X134Y169D01*
X727Y169D02*
X734Y169D01*
X1614Y169D02*
X1621Y169D01*
X1Y168D02*
X8Y168D01*
X127Y168D02*
X134Y168D01*
X727Y168D02*
X734Y168D01*
X1614Y168D02*
X1621Y168D01*
X1Y167D02*
X8Y167D01*
X127Y167D02*
X134Y167D01*
X727Y167D02*
X734Y167D01*
X1614Y167D02*
X1621Y167D01*
X1Y166D02*
X8Y166D01*
X127Y166D02*
X134Y166D01*
X727Y166D02*
X734Y166D01*
X1614Y166D02*
X1621Y166D01*
X1Y165D02*
X8Y165D01*
X127Y165D02*
X134Y165D01*
X727Y165D02*
X734Y165D01*
X1614Y165D02*
X1621Y165D01*
X1Y164D02*
X8Y164D01*
X127Y164D02*
X134Y164D01*
X727Y164D02*
X734Y164D01*
X1614Y164D02*
X1621Y164D01*
X1Y163D02*
X8Y163D01*
X127Y163D02*
X134Y163D01*
X727Y163D02*
X734Y163D01*
X1614Y163D02*
X1621Y163D01*
X1Y162D02*
X8Y162D01*
X127Y162D02*
X134Y162D01*
X727Y162D02*
X734Y162D01*
X1614Y162D02*
X1621Y162D01*
X1Y161D02*
X8Y161D01*
X127Y161D02*
X134Y161D01*
X727Y161D02*
X734Y161D01*
X1614Y161D02*
X1621Y161D01*
X1Y160D02*
X8Y160D01*
X127Y160D02*
X134Y160D01*
X727Y160D02*
X734Y160D01*
X1614Y160D02*
X1621Y160D01*
X1Y159D02*
X8Y159D01*
X127Y159D02*
X134Y159D01*
X727Y159D02*
X734Y159D01*
X1614Y159D02*
X1621Y159D01*
X1Y158D02*
X8Y158D01*
X127Y158D02*
X134Y158D01*
X727Y158D02*
X734Y158D01*
X1614Y158D02*
X1621Y158D01*
X1Y157D02*
X8Y157D01*
X127Y157D02*
X134Y157D01*
X727Y157D02*
X734Y157D01*
X1614Y157D02*
X1621Y157D01*
X1Y156D02*
X8Y156D01*
X127Y156D02*
X134Y156D01*
X727Y156D02*
X734Y156D01*
X1614Y156D02*
X1621Y156D01*
X1Y155D02*
X8Y155D01*
X127Y155D02*
X134Y155D01*
X727Y155D02*
X734Y155D01*
X1614Y155D02*
X1621Y155D01*
X1Y154D02*
X8Y154D01*
X127Y154D02*
X134Y154D01*
X727Y154D02*
X734Y154D01*
X1614Y154D02*
X1621Y154D01*
X1Y153D02*
X8Y153D01*
X127Y153D02*
X134Y153D01*
X727Y153D02*
X734Y153D01*
X1614Y153D02*
X1621Y153D01*
X1Y152D02*
X8Y152D01*
X127Y152D02*
X134Y152D01*
X727Y152D02*
X734Y152D01*
X1614Y152D02*
X1621Y152D01*
X1Y151D02*
X8Y151D01*
X127Y151D02*
X134Y151D01*
X727Y151D02*
X734Y151D01*
X1614Y151D02*
X1621Y151D01*
X1Y150D02*
X8Y150D01*
X127Y150D02*
X134Y150D01*
X727Y150D02*
X734Y150D01*
X1614Y150D02*
X1621Y150D01*
X1Y149D02*
X8Y149D01*
X127Y149D02*
X134Y149D01*
X727Y149D02*
X734Y149D01*
X1614Y149D02*
X1621Y149D01*
X1Y148D02*
X8Y148D01*
X127Y148D02*
X134Y148D01*
X727Y148D02*
X734Y148D01*
X1614Y148D02*
X1621Y148D01*
X1Y147D02*
X8Y147D01*
X127Y147D02*
X134Y147D01*
X727Y147D02*
X734Y147D01*
X1614Y147D02*
X1621Y147D01*
X1Y146D02*
X8Y146D01*
X127Y146D02*
X134Y146D01*
X727Y146D02*
X734Y146D01*
X1614Y146D02*
X1621Y146D01*
X1Y145D02*
X8Y145D01*
X127Y145D02*
X134Y145D01*
X727Y145D02*
X734Y145D01*
X1614Y145D02*
X1621Y145D01*
X1Y144D02*
X8Y144D01*
X127Y144D02*
X134Y144D01*
X727Y144D02*
X734Y144D01*
X1614Y144D02*
X1621Y144D01*
X1Y143D02*
X8Y143D01*
X127Y143D02*
X134Y143D01*
X727Y143D02*
X734Y143D01*
X1614Y143D02*
X1621Y143D01*
X1Y142D02*
X8Y142D01*
X127Y142D02*
X134Y142D01*
X727Y142D02*
X734Y142D01*
X1614Y142D02*
X1621Y142D01*
X1Y141D02*
X8Y141D01*
X127Y141D02*
X134Y141D01*
X727Y141D02*
X734Y141D01*
X1614Y141D02*
X1621Y141D01*
X1Y140D02*
X8Y140D01*
X127Y140D02*
X134Y140D01*
X727Y140D02*
X734Y140D01*
X1614Y140D02*
X1621Y140D01*
X1Y139D02*
X8Y139D01*
X127Y139D02*
X134Y139D01*
X727Y139D02*
X734Y139D01*
X1614Y139D02*
X1621Y139D01*
X1Y138D02*
X8Y138D01*
X127Y138D02*
X134Y138D01*
X727Y138D02*
X734Y138D01*
X1614Y138D02*
X1621Y138D01*
X1Y137D02*
X8Y137D01*
X127Y137D02*
X134Y137D01*
X727Y137D02*
X734Y137D01*
X1614Y137D02*
X1621Y137D01*
X1Y136D02*
X8Y136D01*
X127Y136D02*
X134Y136D01*
X727Y136D02*
X734Y136D01*
X1614Y136D02*
X1621Y136D01*
X1Y135D02*
X8Y135D01*
X127Y135D02*
X134Y135D01*
X727Y135D02*
X734Y135D01*
X1614Y135D02*
X1621Y135D01*
X1Y134D02*
X8Y134D01*
X127Y134D02*
X134Y134D01*
X727Y134D02*
X734Y134D01*
X1614Y134D02*
X1621Y134D01*
X1Y133D02*
X8Y133D01*
X127Y133D02*
X134Y133D01*
X727Y133D02*
X734Y133D01*
X1614Y133D02*
X1621Y133D01*
X1Y132D02*
X8Y132D01*
X127Y132D02*
X134Y132D01*
X727Y132D02*
X734Y132D01*
X1614Y132D02*
X1621Y132D01*
X1Y131D02*
X8Y131D01*
X127Y131D02*
X134Y131D01*
X727Y131D02*
X734Y131D01*
X1614Y131D02*
X1621Y131D01*
X1Y130D02*
X8Y130D01*
X127Y130D02*
X134Y130D01*
X727Y130D02*
X734Y130D01*
X1614Y130D02*
X1621Y130D01*
X1Y129D02*
X8Y129D01*
X127Y129D02*
X134Y129D01*
X727Y129D02*
X734Y129D01*
X1614Y129D02*
X1621Y129D01*
X1Y128D02*
X8Y128D01*
X127Y128D02*
X134Y128D01*
X727Y128D02*
X734Y128D01*
X1614Y128D02*
X1621Y128D01*
X1Y127D02*
X8Y127D01*
X127Y127D02*
X134Y127D01*
X727Y127D02*
X734Y127D01*
X1614Y127D02*
X1621Y127D01*
X1Y126D02*
X8Y126D01*
X127Y126D02*
X134Y126D01*
X727Y126D02*
X734Y126D01*
X1614Y126D02*
X1621Y126D01*
X1Y125D02*
X8Y125D01*
X127Y125D02*
X134Y125D01*
X727Y125D02*
X734Y125D01*
X1614Y125D02*
X1621Y125D01*
X1Y124D02*
X8Y124D01*
X127Y124D02*
X134Y124D01*
X727Y124D02*
X734Y124D01*
X1614Y124D02*
X1621Y124D01*
X1Y123D02*
X8Y123D01*
X127Y123D02*
X134Y123D01*
X727Y123D02*
X734Y123D01*
X1614Y123D02*
X1621Y123D01*
X1Y122D02*
X8Y122D01*
X127Y122D02*
X134Y122D01*
X727Y122D02*
X734Y122D01*
X1614Y122D02*
X1621Y122D01*
X1Y121D02*
X8Y121D01*
X127Y121D02*
X134Y121D01*
X727Y121D02*
X734Y121D01*
X1614Y121D02*
X1621Y121D01*
X1Y120D02*
X8Y120D01*
X127Y120D02*
X134Y120D01*
X727Y120D02*
X734Y120D01*
X1614Y120D02*
X1621Y120D01*
X1Y119D02*
X8Y119D01*
X127Y119D02*
X134Y119D01*
X727Y119D02*
X734Y119D01*
X1614Y119D02*
X1621Y119D01*
X1Y118D02*
X8Y118D01*
X127Y118D02*
X134Y118D01*
X727Y118D02*
X734Y118D01*
X1614Y118D02*
X1621Y118D01*
X1Y117D02*
X8Y117D01*
X127Y117D02*
X134Y117D01*
X727Y117D02*
X734Y117D01*
X1614Y117D02*
X1621Y117D01*
X1Y116D02*
X8Y116D01*
X127Y116D02*
X134Y116D01*
X727Y116D02*
X734Y116D01*
X1614Y116D02*
X1621Y116D01*
X1Y115D02*
X8Y115D01*
X127Y115D02*
X134Y115D01*
X727Y115D02*
X734Y115D01*
X1614Y115D02*
X1621Y115D01*
X1Y114D02*
X8Y114D01*
X127Y114D02*
X134Y114D01*
X727Y114D02*
X734Y114D01*
X1614Y114D02*
X1621Y114D01*
X1Y113D02*
X8Y113D01*
X127Y113D02*
X134Y113D01*
X727Y113D02*
X734Y113D01*
X1614Y113D02*
X1621Y113D01*
X1Y112D02*
X8Y112D01*
X127Y112D02*
X134Y112D01*
X727Y112D02*
X734Y112D01*
X1614Y112D02*
X1621Y112D01*
X1Y111D02*
X8Y111D01*
X127Y111D02*
X134Y111D01*
X727Y111D02*
X734Y111D01*
X1614Y111D02*
X1621Y111D01*
X1Y110D02*
X8Y110D01*
X127Y110D02*
X134Y110D01*
X727Y110D02*
X734Y110D01*
X1614Y110D02*
X1621Y110D01*
X1Y109D02*
X8Y109D01*
X127Y109D02*
X134Y109D01*
X727Y109D02*
X734Y109D01*
X1614Y109D02*
X1621Y109D01*
X1Y108D02*
X8Y108D01*
X127Y108D02*
X134Y108D01*
X727Y108D02*
X734Y108D01*
X1614Y108D02*
X1621Y108D01*
X1Y107D02*
X8Y107D01*
X127Y107D02*
X134Y107D01*
X727Y107D02*
X734Y107D01*
X1614Y107D02*
X1621Y107D01*
X1Y106D02*
X8Y106D01*
X127Y106D02*
X134Y106D01*
X727Y106D02*
X734Y106D01*
X1614Y106D02*
X1621Y106D01*
X1Y105D02*
X8Y105D01*
X127Y105D02*
X134Y105D01*
X727Y105D02*
X734Y105D01*
X1614Y105D02*
X1621Y105D01*
X1Y104D02*
X8Y104D01*
X127Y104D02*
X134Y104D01*
X727Y104D02*
X734Y104D01*
X1614Y104D02*
X1621Y104D01*
X1Y103D02*
X8Y103D01*
X127Y103D02*
X134Y103D01*
X727Y103D02*
X734Y103D01*
X1614Y103D02*
X1621Y103D01*
X1Y102D02*
X8Y102D01*
X127Y102D02*
X134Y102D01*
X727Y102D02*
X734Y102D01*
X1614Y102D02*
X1621Y102D01*
X1Y101D02*
X8Y101D01*
X127Y101D02*
X134Y101D01*
X727Y101D02*
X734Y101D01*
X1614Y101D02*
X1621Y101D01*
X1Y100D02*
X8Y100D01*
X127Y100D02*
X134Y100D01*
X727Y100D02*
X734Y100D01*
X1614Y100D02*
X1621Y100D01*
X1Y99D02*
X8Y99D01*
X127Y99D02*
X134Y99D01*
X727Y99D02*
X734Y99D01*
X1614Y99D02*
X1621Y99D01*
X1Y98D02*
X8Y98D01*
X127Y98D02*
X134Y98D01*
X727Y98D02*
X734Y98D01*
X1614Y98D02*
X1621Y98D01*
X1Y97D02*
X8Y97D01*
X127Y97D02*
X134Y97D01*
X727Y97D02*
X734Y97D01*
X1614Y97D02*
X1621Y97D01*
X1Y96D02*
X8Y96D01*
X127Y96D02*
X134Y96D01*
X727Y96D02*
X734Y96D01*
X1614Y96D02*
X1621Y96D01*
X1Y95D02*
X8Y95D01*
X127Y95D02*
X134Y95D01*
X727Y95D02*
X734Y95D01*
X1614Y95D02*
X1621Y95D01*
X1Y94D02*
X8Y94D01*
X127Y94D02*
X134Y94D01*
X727Y94D02*
X734Y94D01*
X1614Y94D02*
X1621Y94D01*
X1Y93D02*
X8Y93D01*
X127Y93D02*
X134Y93D01*
X727Y93D02*
X734Y93D01*
X1614Y93D02*
X1621Y93D01*
X1Y92D02*
X8Y92D01*
X127Y92D02*
X134Y92D01*
X727Y92D02*
X734Y92D01*
X1614Y92D02*
X1621Y92D01*
X1Y91D02*
X8Y91D01*
X127Y91D02*
X134Y91D01*
X727Y91D02*
X734Y91D01*
X1614Y91D02*
X1621Y91D01*
X1Y90D02*
X8Y90D01*
X127Y90D02*
X134Y90D01*
X727Y90D02*
X734Y90D01*
X1614Y90D02*
X1621Y90D01*
X1Y89D02*
X8Y89D01*
X127Y89D02*
X134Y89D01*
X727Y89D02*
X734Y89D01*
X1614Y89D02*
X1621Y89D01*
X1Y88D02*
X8Y88D01*
X127Y88D02*
X134Y88D01*
X727Y88D02*
X734Y88D01*
X1614Y88D02*
X1621Y88D01*
X1Y87D02*
X8Y87D01*
X127Y87D02*
X134Y87D01*
X727Y87D02*
X734Y87D01*
X1614Y87D02*
X1621Y87D01*
X1Y86D02*
X8Y86D01*
X127Y86D02*
X134Y86D01*
X727Y86D02*
X734Y86D01*
X1614Y86D02*
X1621Y86D01*
X1Y85D02*
X8Y85D01*
X127Y85D02*
X134Y85D01*
X727Y85D02*
X734Y85D01*
X1614Y85D02*
X1621Y85D01*
X1Y84D02*
X8Y84D01*
X127Y84D02*
X134Y84D01*
X727Y84D02*
X734Y84D01*
X1614Y84D02*
X1621Y84D01*
X1Y83D02*
X8Y83D01*
X127Y83D02*
X134Y83D01*
X727Y83D02*
X734Y83D01*
X1614Y83D02*
X1621Y83D01*
X1Y82D02*
X8Y82D01*
X127Y82D02*
X134Y82D01*
X727Y82D02*
X734Y82D01*
X1614Y82D02*
X1621Y82D01*
X1Y81D02*
X8Y81D01*
X127Y81D02*
X134Y81D01*
X727Y81D02*
X734Y81D01*
X1614Y81D02*
X1621Y81D01*
X1Y80D02*
X8Y80D01*
X127Y80D02*
X134Y80D01*
X727Y80D02*
X734Y80D01*
X1614Y80D02*
X1621Y80D01*
X1Y79D02*
X8Y79D01*
X127Y79D02*
X134Y79D01*
X727Y79D02*
X734Y79D01*
X1614Y79D02*
X1621Y79D01*
X1Y78D02*
X8Y78D01*
X127Y78D02*
X134Y78D01*
X727Y78D02*
X734Y78D01*
X1614Y78D02*
X1621Y78D01*
X1Y77D02*
X8Y77D01*
X127Y77D02*
X134Y77D01*
X727Y77D02*
X734Y77D01*
X1614Y77D02*
X1621Y77D01*
X1Y76D02*
X8Y76D01*
X127Y76D02*
X134Y76D01*
X727Y76D02*
X734Y76D01*
X1614Y76D02*
X1621Y76D01*
X1Y75D02*
X8Y75D01*
X127Y75D02*
X134Y75D01*
X727Y75D02*
X734Y75D01*
X1614Y75D02*
X1621Y75D01*
X1Y74D02*
X8Y74D01*
X127Y74D02*
X134Y74D01*
X727Y74D02*
X734Y74D01*
X1614Y74D02*
X1621Y74D01*
X1Y73D02*
X8Y73D01*
X127Y73D02*
X134Y73D01*
X727Y73D02*
X734Y73D01*
X1614Y73D02*
X1621Y73D01*
X1Y72D02*
X8Y72D01*
X127Y72D02*
X134Y72D01*
X727Y72D02*
X734Y72D01*
X1614Y72D02*
X1621Y72D01*
X1Y71D02*
X8Y71D01*
X127Y71D02*
X134Y71D01*
X727Y71D02*
X734Y71D01*
X1614Y71D02*
X1621Y71D01*
X1Y70D02*
X8Y70D01*
X127Y70D02*
X134Y70D01*
X727Y70D02*
X734Y70D01*
X1614Y70D02*
X1621Y70D01*
X1Y69D02*
X8Y69D01*
X127Y69D02*
X134Y69D01*
X727Y69D02*
X734Y69D01*
X1614Y69D02*
X1621Y69D01*
X1Y68D02*
X8Y68D01*
X127Y68D02*
X134Y68D01*
X727Y68D02*
X734Y68D01*
X1614Y68D02*
X1621Y68D01*
X1Y67D02*
X8Y67D01*
X127Y67D02*
X134Y67D01*
X727Y67D02*
X734Y67D01*
X1614Y67D02*
X1621Y67D01*
X1Y66D02*
X8Y66D01*
X127Y66D02*
X134Y66D01*
X727Y66D02*
X734Y66D01*
X1614Y66D02*
X1621Y66D01*
X1Y65D02*
X8Y65D01*
X127Y65D02*
X134Y65D01*
X727Y65D02*
X734Y65D01*
X1614Y65D02*
X1621Y65D01*
X1Y64D02*
X8Y64D01*
X127Y64D02*
X134Y64D01*
X727Y64D02*
X734Y64D01*
X1614Y64D02*
X1621Y64D01*
X1Y63D02*
X8Y63D01*
X127Y63D02*
X134Y63D01*
X727Y63D02*
X734Y63D01*
X1614Y63D02*
X1621Y63D01*
X1Y62D02*
X8Y62D01*
X127Y62D02*
X134Y62D01*
X727Y62D02*
X734Y62D01*
X1614Y62D02*
X1621Y62D01*
X1Y61D02*
X8Y61D01*
X127Y61D02*
X134Y61D01*
X727Y61D02*
X734Y61D01*
X1614Y61D02*
X1621Y61D01*
X1Y60D02*
X8Y60D01*
X127Y60D02*
X134Y60D01*
X727Y60D02*
X734Y60D01*
X1614Y60D02*
X1621Y60D01*
X1Y59D02*
X8Y59D01*
X127Y59D02*
X134Y59D01*
X727Y59D02*
X734Y59D01*
X1614Y59D02*
X1621Y59D01*
X1Y58D02*
X8Y58D01*
X127Y58D02*
X134Y58D01*
X727Y58D02*
X734Y58D01*
X1614Y58D02*
X1621Y58D01*
X1Y57D02*
X8Y57D01*
X127Y57D02*
X134Y57D01*
X727Y57D02*
X734Y57D01*
X1614Y57D02*
X1621Y57D01*
X1Y56D02*
X8Y56D01*
X127Y56D02*
X134Y56D01*
X727Y56D02*
X734Y56D01*
X1614Y56D02*
X1621Y56D01*
X1Y55D02*
X8Y55D01*
X127Y55D02*
X134Y55D01*
X727Y55D02*
X734Y55D01*
X1614Y55D02*
X1621Y55D01*
X1Y54D02*
X8Y54D01*
X127Y54D02*
X134Y54D01*
X727Y54D02*
X734Y54D01*
X1614Y54D02*
X1621Y54D01*
X1Y53D02*
X8Y53D01*
X127Y53D02*
X134Y53D01*
X727Y53D02*
X734Y53D01*
X1614Y53D02*
X1621Y53D01*
X1Y52D02*
X8Y52D01*
X127Y52D02*
X134Y52D01*
X727Y52D02*
X734Y52D01*
X1614Y52D02*
X1621Y52D01*
X1Y51D02*
X8Y51D01*
X127Y51D02*
X134Y51D01*
X727Y51D02*
X734Y51D01*
X1614Y51D02*
X1621Y51D01*
X1Y50D02*
X8Y50D01*
X127Y50D02*
X134Y50D01*
X727Y50D02*
X734Y50D01*
X1614Y50D02*
X1621Y50D01*
X1Y49D02*
X8Y49D01*
X127Y49D02*
X134Y49D01*
X727Y49D02*
X734Y49D01*
X1614Y49D02*
X1621Y49D01*
X1Y48D02*
X8Y48D01*
X127Y48D02*
X134Y48D01*
X727Y48D02*
X734Y48D01*
X1614Y48D02*
X1621Y48D01*
X1Y47D02*
X8Y47D01*
X127Y47D02*
X134Y47D01*
X727Y47D02*
X734Y47D01*
X1614Y47D02*
X1621Y47D01*
X1Y46D02*
X8Y46D01*
X127Y46D02*
X134Y46D01*
X727Y46D02*
X734Y46D01*
X1614Y46D02*
X1621Y46D01*
X1Y45D02*
X8Y45D01*
X127Y45D02*
X134Y45D01*
X727Y45D02*
X734Y45D01*
X1614Y45D02*
X1621Y45D01*
X1Y44D02*
X8Y44D01*
X127Y44D02*
X134Y44D01*
X727Y44D02*
X734Y44D01*
X1614Y44D02*
X1621Y44D01*
X1Y43D02*
X8Y43D01*
X127Y43D02*
X134Y43D01*
X727Y43D02*
X734Y43D01*
X1614Y43D02*
X1621Y43D01*
X1Y42D02*
X8Y42D01*
X127Y42D02*
X134Y42D01*
X727Y42D02*
X734Y42D01*
X1614Y42D02*
X1621Y42D01*
X1Y41D02*
X8Y41D01*
X127Y41D02*
X134Y41D01*
X727Y41D02*
X734Y41D01*
X1614Y41D02*
X1621Y41D01*
X1Y40D02*
X8Y40D01*
X127Y40D02*
X134Y40D01*
X727Y40D02*
X734Y40D01*
X1614Y40D02*
X1621Y40D01*
X1Y39D02*
X8Y39D01*
X127Y39D02*
X134Y39D01*
X727Y39D02*
X734Y39D01*
X1614Y39D02*
X1621Y39D01*
X1Y38D02*
X8Y38D01*
X127Y38D02*
X134Y38D01*
X727Y38D02*
X734Y38D01*
X1614Y38D02*
X1621Y38D01*
X1Y37D02*
X8Y37D01*
X127Y37D02*
X134Y37D01*
X727Y37D02*
X734Y37D01*
X1614Y37D02*
X1621Y37D01*
X1Y36D02*
X8Y36D01*
X127Y36D02*
X134Y36D01*
X727Y36D02*
X734Y36D01*
X1614Y36D02*
X1621Y36D01*
X1Y35D02*
X8Y35D01*
X127Y35D02*
X134Y35D01*
X727Y35D02*
X734Y35D01*
X1614Y35D02*
X1621Y35D01*
X1Y34D02*
X8Y34D01*
X127Y34D02*
X134Y34D01*
X727Y34D02*
X734Y34D01*
X1614Y34D02*
X1621Y34D01*
X1Y33D02*
X8Y33D01*
X127Y33D02*
X134Y33D01*
X727Y33D02*
X734Y33D01*
X1614Y33D02*
X1621Y33D01*
X1Y32D02*
X8Y32D01*
X127Y32D02*
X134Y32D01*
X727Y32D02*
X734Y32D01*
X1614Y32D02*
X1621Y32D01*
X1Y31D02*
X8Y31D01*
X127Y31D02*
X134Y31D01*
X727Y31D02*
X734Y31D01*
X1614Y31D02*
X1621Y31D01*
X1Y30D02*
X8Y30D01*
X127Y30D02*
X134Y30D01*
X727Y30D02*
X734Y30D01*
X1614Y30D02*
X1621Y30D01*
X1Y29D02*
X8Y29D01*
X127Y29D02*
X134Y29D01*
X727Y29D02*
X734Y29D01*
X1614Y29D02*
X1621Y29D01*
X1Y28D02*
X8Y28D01*
X127Y28D02*
X134Y28D01*
X727Y28D02*
X734Y28D01*
X1614Y28D02*
X1621Y28D01*
X1Y27D02*
X8Y27D01*
X127Y27D02*
X134Y27D01*
X727Y27D02*
X734Y27D01*
X1614Y27D02*
X1621Y27D01*
X1Y26D02*
X8Y26D01*
X127Y26D02*
X134Y26D01*
X727Y26D02*
X734Y26D01*
X1614Y26D02*
X1621Y26D01*
X1Y25D02*
X8Y25D01*
X127Y25D02*
X134Y25D01*
X727Y25D02*
X734Y25D01*
X1614Y25D02*
X1621Y25D01*
X1Y24D02*
X8Y24D01*
X127Y24D02*
X134Y24D01*
X727Y24D02*
X734Y24D01*
X1614Y24D02*
X1621Y24D01*
X1Y23D02*
X8Y23D01*
X127Y23D02*
X134Y23D01*
X727Y23D02*
X734Y23D01*
X1614Y23D02*
X1621Y23D01*
X1Y22D02*
X8Y22D01*
X127Y22D02*
X134Y22D01*
X727Y22D02*
X734Y22D01*
X1614Y22D02*
X1621Y22D01*
X1Y21D02*
X8Y21D01*
X127Y21D02*
X134Y21D01*
X727Y21D02*
X734Y21D01*
X1614Y21D02*
X1621Y21D01*
X1Y20D02*
X8Y20D01*
X127Y20D02*
X134Y20D01*
X727Y20D02*
X734Y20D01*
X1614Y20D02*
X1621Y20D01*
X1Y19D02*
X8Y19D01*
X127Y19D02*
X134Y19D01*
X727Y19D02*
X734Y19D01*
X1614Y19D02*
X1621Y19D01*
X1Y18D02*
X8Y18D01*
X127Y18D02*
X134Y18D01*
X727Y18D02*
X734Y18D01*
X1614Y18D02*
X1621Y18D01*
X1Y17D02*
X8Y17D01*
X127Y17D02*
X134Y17D01*
X727Y17D02*
X734Y17D01*
X1614Y17D02*
X1621Y17D01*
X1Y16D02*
X8Y16D01*
X127Y16D02*
X134Y16D01*
X727Y16D02*
X734Y16D01*
X1614Y16D02*
X1621Y16D01*
X1Y15D02*
X8Y15D01*
X127Y15D02*
X134Y15D01*
X727Y15D02*
X734Y15D01*
X1614Y15D02*
X1621Y15D01*
X1Y14D02*
X8Y14D01*
X127Y14D02*
X134Y14D01*
X727Y14D02*
X734Y14D01*
X1614Y14D02*
X1621Y14D01*
X1Y13D02*
X8Y13D01*
X127Y13D02*
X134Y13D01*
X727Y13D02*
X734Y13D01*
X1614Y13D02*
X1621Y13D01*
X1Y12D02*
X8Y12D01*
X127Y12D02*
X134Y12D01*
X727Y12D02*
X734Y12D01*
X1614Y12D02*
X1621Y12D01*
X1Y11D02*
X8Y11D01*
X127Y11D02*
X134Y11D01*
X727Y11D02*
X734Y11D01*
X1614Y11D02*
X1621Y11D01*
X1Y10D02*
X8Y10D01*
X127Y10D02*
X134Y10D01*
X727Y10D02*
X734Y10D01*
X1614Y10D02*
X1621Y10D01*
X1Y9D02*
X8Y9D01*
X127Y9D02*
X134Y9D01*
X727Y9D02*
X734Y9D01*
X1614Y9D02*
X1621Y9D01*
X1Y8D02*
X1621Y8D01*
X1Y7D02*
X1621Y7D01*
X1Y6D02*
X1621Y6D01*
X1Y5D02*
X1621Y5D01*
X1Y4D02*
X1621Y4D01*
X1Y3D02*
X1621Y3D01*
X1Y2D02*
X1621Y2D01*
X1Y1D02*
X1621Y1D01*
X127Y0D02*
X134Y0D01*
X727Y0D02*
X734Y0D01*
X127Y-1D02*
X134Y-1D01*
X727Y-1D02*
X734Y-1D01*
D02*
G04 End of Silk1*
M02*