G04 MADE WITH FRITZING*
G04 WWW.FRITZING.ORG*
G04 DOUBLE SIDED*
G04 HOLES PLATED*
G04 CONTOUR ON CENTER OF CONTOUR VECTOR*
%ASAXBY*%
%FSLAX23Y23*%
%MOIN*%
%OFA0B0*%
%SFA1.0B1.0*%
%ADD10C,0.138425*%
%ADD11C,0.070000*%
%ADD12C,0.066000*%
%ADD13C,0.075000*%
%ADD14C,0.074000*%
%ADD15C,0.024000*%
%ADD16R,0.001000X0.001000*%
%LNCOPPER0*%
G90*
G70*
G54D10*
X355Y1227D03*
X355Y1827D03*
G54D11*
X1055Y1227D03*
X955Y1227D03*
X855Y1227D03*
X755Y1227D03*
X655Y1227D03*
X555Y1227D03*
G54D10*
X1255Y1227D03*
G54D12*
X955Y1827D03*
G54D10*
X1255Y1827D03*
G54D12*
X855Y1827D03*
X755Y1827D03*
X655Y1827D03*
G54D13*
X1411Y527D03*
X1155Y527D03*
X1411Y704D03*
X1155Y704D03*
G54D14*
X605Y227D03*
X555Y127D03*
X505Y227D03*
X405Y227D03*
X305Y227D03*
X455Y127D03*
X355Y127D03*
X255Y127D03*
G54D15*
X953Y927D02*
X955Y1207D01*
D02*
X564Y144D02*
X953Y927D01*
D02*
X755Y927D02*
X755Y1207D01*
D02*
X462Y145D02*
X755Y927D01*
D02*
X1555Y527D02*
X1428Y527D01*
D02*
X1555Y1525D02*
X1555Y527D01*
D02*
X755Y1525D02*
X1555Y1525D01*
D02*
X755Y1246D02*
X755Y1525D01*
G54D16*
X219Y163D02*
X292Y163D01*
X219Y162D02*
X292Y162D01*
X219Y161D02*
X292Y161D01*
X219Y160D02*
X292Y160D01*
X219Y159D02*
X292Y159D01*
X219Y158D02*
X292Y158D01*
X219Y157D02*
X292Y157D01*
X219Y156D02*
X292Y156D01*
X219Y155D02*
X292Y155D01*
X219Y154D02*
X292Y154D01*
X219Y153D02*
X292Y153D01*
X219Y152D02*
X292Y152D01*
X219Y151D02*
X292Y151D01*
X219Y150D02*
X292Y150D01*
X219Y149D02*
X292Y149D01*
X219Y148D02*
X292Y148D01*
X219Y147D02*
X292Y147D01*
X219Y146D02*
X250Y146D01*
X261Y146D02*
X292Y146D01*
X219Y145D02*
X247Y145D01*
X264Y145D02*
X292Y145D01*
X219Y144D02*
X245Y144D01*
X266Y144D02*
X292Y144D01*
X219Y143D02*
X243Y143D01*
X267Y143D02*
X292Y143D01*
X219Y142D02*
X242Y142D01*
X268Y142D02*
X292Y142D01*
X219Y141D02*
X241Y141D01*
X270Y141D02*
X292Y141D01*
X219Y140D02*
X240Y140D01*
X270Y140D02*
X292Y140D01*
X219Y139D02*
X239Y139D01*
X271Y139D02*
X292Y139D01*
X219Y138D02*
X239Y138D01*
X272Y138D02*
X292Y138D01*
X219Y137D02*
X238Y137D01*
X273Y137D02*
X292Y137D01*
X219Y136D02*
X237Y136D01*
X273Y136D02*
X292Y136D01*
X219Y135D02*
X237Y135D01*
X274Y135D02*
X292Y135D01*
X219Y134D02*
X236Y134D01*
X274Y134D02*
X292Y134D01*
X219Y133D02*
X236Y133D01*
X274Y133D02*
X292Y133D01*
X219Y132D02*
X236Y132D01*
X275Y132D02*
X292Y132D01*
X219Y131D02*
X236Y131D01*
X275Y131D02*
X292Y131D01*
X219Y130D02*
X235Y130D01*
X275Y130D02*
X292Y130D01*
X219Y129D02*
X235Y129D01*
X275Y129D02*
X292Y129D01*
X219Y128D02*
X235Y128D01*
X275Y128D02*
X292Y128D01*
X219Y127D02*
X235Y127D01*
X275Y127D02*
X292Y127D01*
X219Y126D02*
X235Y126D01*
X275Y126D02*
X292Y126D01*
X219Y125D02*
X235Y125D01*
X275Y125D02*
X292Y125D01*
X219Y124D02*
X235Y124D01*
X275Y124D02*
X292Y124D01*
X219Y123D02*
X236Y123D01*
X275Y123D02*
X292Y123D01*
X219Y122D02*
X236Y122D01*
X275Y122D02*
X292Y122D01*
X219Y121D02*
X236Y121D01*
X274Y121D02*
X292Y121D01*
X219Y120D02*
X236Y120D01*
X274Y120D02*
X292Y120D01*
X219Y119D02*
X237Y119D01*
X274Y119D02*
X292Y119D01*
X219Y118D02*
X237Y118D01*
X273Y118D02*
X292Y118D01*
X219Y117D02*
X238Y117D01*
X273Y117D02*
X292Y117D01*
X219Y116D02*
X239Y116D01*
X272Y116D02*
X292Y116D01*
X219Y115D02*
X239Y115D01*
X271Y115D02*
X292Y115D01*
X219Y114D02*
X240Y114D01*
X270Y114D02*
X292Y114D01*
X219Y113D02*
X241Y113D01*
X270Y113D02*
X292Y113D01*
X219Y112D02*
X242Y112D01*
X268Y112D02*
X292Y112D01*
X219Y111D02*
X243Y111D01*
X267Y111D02*
X292Y111D01*
X219Y110D02*
X245Y110D01*
X266Y110D02*
X292Y110D01*
X219Y109D02*
X247Y109D01*
X264Y109D02*
X292Y109D01*
X219Y108D02*
X250Y108D01*
X261Y108D02*
X292Y108D01*
X219Y107D02*
X292Y107D01*
X219Y106D02*
X292Y106D01*
X219Y105D02*
X292Y105D01*
X219Y104D02*
X292Y104D01*
X219Y103D02*
X292Y103D01*
X219Y102D02*
X292Y102D01*
X219Y101D02*
X292Y101D01*
X219Y100D02*
X292Y100D01*
X219Y99D02*
X292Y99D01*
X219Y98D02*
X292Y98D01*
X219Y97D02*
X292Y97D01*
X219Y96D02*
X292Y96D01*
X219Y95D02*
X292Y95D01*
X219Y94D02*
X292Y94D01*
X219Y93D02*
X292Y93D01*
X219Y92D02*
X292Y92D01*
X219Y91D02*
X292Y91D01*
D02*
G04 End of Copper0*
M02*