; NON-PLATED HOLES START AT T1
; THROUGH (PLATED) HOLES START AT T100
M48
INCH
T100C0.035000
T101C0.039370
T102C0.037194
T103C0.098425
%
T100
X014107Y007037
X011548Y007037
X011548Y005265
X014107Y005265
T101
X005048Y002265
X003548Y001265
X008548Y018265
X009548Y018265
X004048Y002265
X004548Y001265
X006548Y012265
X007548Y012265
X006548Y018265
X005548Y012265
X005548Y001265
X006048Y002265
X010548Y012265
X003048Y002265
X007548Y018265
X009548Y012265
X002548Y001265
X008548Y012265
T102
X006548Y009265
X005548Y009265
X003548Y009265
X004548Y009265
X001548Y009265
X002548Y009265
T103
X012548Y012265
X003548Y018265
X003548Y012265
X012548Y018265
T00
M30
